<svg id="svg" version="1.1" xmlns="http://www.w3.org/2000/svg" xmlns:xlink="http://www.w3.org/1999/xlink" width="400" height="293.7142857142857" viewBox="0, 0, 400,293.7142857142857"><g id="svgg"><path id="path0" d="M197.252 5.017 L 195.336 10.034 190.051 8.444 C 183.541 6.484,183.107 6.857,186.155 11.789 C 189.352 16.962,189.253 17.527,184.579 20.710 C 179.356 24.267,179.515 24.783,186.110 25.690 L 191.649 26.452 191.107 32.083 C 190.498 38.420,191.486 39.054,195.429 34.857 C 198.820 31.247,201.180 31.247,204.571 34.857 C 208.514 39.054,209.502 38.420,208.893 32.083 L 208.351 26.452 213.890 25.690 C 220.485 24.783,220.644 24.267,215.421 20.710 C 210.747 17.527,210.648 16.962,213.845 11.789 C 216.893 6.857,216.459 6.484,209.949 8.444 L 204.664 10.034 202.748 5.017 C 201.695 2.258,200.458 0.000,200.000 0.000 C 199.542 0.000,198.305 2.258,197.252 5.017 M147.635 28.098 C 145.245 31.806,144.795 32.045,143.063 30.529 C 133.178 21.872,128.165 26.622,135.479 37.714 C 142.934 49.019,133.660 70.551,111.182 94.123 C 98.810 107.098,95.271 112.459,93.227 121.324 L 92.000 126.647 82.645 121.703 C 74.366 117.328,72.290 114.523,78.541 116.158 C 81.682 116.979,84.016 113.910,81.707 111.994 C 80.278 110.808,79.595 110.865,77.979 112.307 C 75.749 114.296,73.143 112.597,73.143 109.155 C 73.143 107.140,70.433 105.706,68.676 106.792 C 67.158 107.731,68.408 110.857,70.301 110.857 C 71.223 110.857,71.560 111.723,71.188 113.143 C 70.417 116.091,69.528 116.023,66.485 112.783 C 63.404 109.504,63.384 108.124,66.347 103.329 C 68.835 99.304,69.194 87.979,66.857 87.253 C 64.570 86.542,60.017 103.690,61.256 108.344 L 62.382 112.571 51.886 112.819 C 42.123 113.050,41.346 112.902,40.770 110.699 C 39.961 107.606,37.253 108.543,36.753 112.090 C 36.538 113.612,35.618 115.692,34.707 116.712 C 31.682 120.101,43.164 121.430,47.746 118.221 C 50.045 116.611,50.286 116.611,50.286 118.221 C 50.286 119.199,50.800 120.000,51.429 120.000 C 52.057 120.000,52.571 120.617,52.571 121.371 C 52.571 122.438,52.267 122.438,51.200 121.371 C 49.051 119.222,45.475 119.652,45.961 122.000 C 46.247 123.382,47.332 123.934,49.473 123.785 C 51.506 123.644,52.571 124.135,52.571 125.213 C 52.571 127.346,54.199 127.313,56.000 125.143 C 57.091 123.828,57.111 123.053,56.084 121.816 C 55.261 120.824,55.169 119.942,55.847 119.523 C 56.452 119.149,57.151 119.453,57.399 120.198 C 58.027 122.081,61.714 120.477,61.714 118.322 C 61.714 117.147,60.610 116.571,58.353 116.571 C 56.505 116.571,54.625 115.977,54.175 115.250 C 52.875 113.145,60.687 114.839,68.544 118.366 C 75.986 121.705,76.847 122.842,72.857 124.058 C 71.443 124.489,69.454 125.571,68.436 126.462 C 66.783 127.910,66.646 127.774,67.141 125.184 C 67.593 122.820,67.249 122.286,65.276 122.286 C 62.668 122.286,61.931 125.474,64.050 127.592 C 64.878 128.420,64.622 129.864,63.215 132.317 C 61.333 135.596,61.316 136.204,62.986 140.782 C 65.667 148.136,67.978 147.266,68.099 138.857 C 68.237 129.270,68.195 129.396,71.943 127.458 C 76.933 124.878,81.994 125.327,87.682 128.857 L 92.746 132.000 92.322 139.099 C 91.811 147.638,91.844 147.600,84.178 148.640 C 80.820 149.096,73.860 151.321,68.712 153.584 C 63.563 155.848,57.183 158.029,54.533 158.431 C 49.200 159.241,44.856 161.046,48.091 161.108 C 49.218 161.130,49.862 162.108,49.805 163.714 C 49.740 165.554,50.365 166.286,52.000 166.286 C 53.635 166.286,54.260 165.554,54.195 163.714 C 54.135 162.010,54.767 161.143,56.068 161.143 C 57.237 161.143,57.967 161.952,57.873 163.142 C 57.666 165.752,62.309 166.505,63.264 164.017 C 63.728 162.807,63.107 161.854,61.410 161.171 C 59.864 160.550,59.549 160.116,60.611 160.072 C 61.576 160.033,66.719 158.237,72.040 156.082 C 82.379 151.895,90.286 149.961,90.286 151.619 C 90.286 153.980,86.563 157.945,85.683 156.521 C 84.107 153.971,80.818 156.264,81.597 159.369 C 81.981 160.896,81.778 162.465,81.147 162.855 C 80.516 163.244,80.000 162.817,80.000 161.904 C 80.000 160.128,77.245 158.565,76.112 159.698 C 74.678 161.131,75.515 164.424,77.429 164.879 C 78.614 165.160,77.247 165.940,74.070 166.795 C 68.029 168.420,63.708 172.121,66.116 173.609 C 67.581 174.515,53.129 176.011,43.429 175.958 C 39.381 175.936,38.712 175.682,40.286 174.766 C 42.319 173.582,45.714 167.955,45.714 165.771 C 45.714 162.983,41.574 164.957,36.245 170.286 C 31.514 175.017,29.821 176.003,26.408 176.016 C 20.659 176.037,17.143 177.141,17.143 178.923 C 17.143 181.808,20.106 182.289,41.714 182.906 L 63.429 183.526 41.143 183.736 C 28.886 183.851,16.800 183.470,14.286 182.890 C 5.702 180.907,1.606 172.281,7.434 168.463 C 11.321 165.916,14.137 168.047,13.103 172.754 C 12.334 176.256,14.313 177.230,16.914 174.629 C 20.967 170.576,16.339 163.429,9.662 163.429 C 1.324 163.429,-2.641 172.227,2.155 180.091 C 6.576 187.342,7.150 187.415,61.316 187.561 C 88.249 187.634,109.386 187.929,108.286 188.216 C 107.186 188.504,106.286 189.216,106.286 189.798 C 106.286 190.381,107.186 190.873,108.286 190.893 C 109.386 190.913,112.836 192.178,115.953 193.704 L 121.620 196.479 115.096 199.466 L 108.573 202.453 105.561 200.083 C 102.421 197.614,91.429 196.610,91.429 198.792 C 91.429 200.940,96.611 203.429,101.111 203.443 L 105.714 203.457 98.857 207.408 C 90.758 212.075,90.723 212.082,89.955 209.143 C 89.272 206.531,85.714 206.004,85.714 208.515 C 85.714 209.426,86.614 210.696,87.714 211.337 C 89.292 212.256,88.642 212.509,84.639 212.537 C 80.091 212.568,79.784 212.410,81.682 211.022 C 84.089 209.262,83.371 205.714,80.607 205.714 C 78.921 205.714,78.380 206.979,78.772 210.000 C 79.168 213.049,72.868 209.721,67.661 204.129 C 64.102 200.308,56.934 197.542,55.168 199.309 C 54.152 200.324,61.643 207.836,64.502 208.669 C 65.797 209.046,68.914 210.273,71.429 211.397 C 73.943 212.520,77.029 213.821,78.286 214.289 C 83.250 216.135,73.520 217.516,54.857 217.615 C 42.432 217.680,35.610 218.153,34.857 219.002 C 32.433 221.732,26.683 221.809,26.774 219.109 C 26.877 216.058,23.164 215.015,22.097 217.795 C 21.626 219.021,22.089 220.305,23.328 221.211 C 25.153 222.545,25.029 222.873,21.800 225.260 C 17.385 228.524,17.217 230.704,21.429 230.058 C 28.344 228.997,29.661 228.435,34.277 224.579 C 40.157 219.666,46.735 218.972,48.586 223.069 C 50.103 226.426,52.585 227.051,53.315 224.260 C 54.142 221.099,71.760 219.283,73.387 222.191 C 74.901 224.896,78.631 224.453,79.063 221.518 C 79.264 220.153,80.031 218.838,80.767 218.596 C 81.618 218.316,81.882 219.012,81.491 220.506 C 81.018 222.316,81.417 222.857,83.228 222.857 C 86.123 222.857,87.554 220.812,85.851 219.108 C 84.928 218.185,85.555 217.437,88.181 216.333 C 92.883 214.356,93.047 214.688,90.782 221.613 C 88.627 228.202,88.961 239.190,91.386 241.469 C 92.586 242.596,92.729 241.963,92.150 238.108 C 91.511 233.858,91.661 233.418,93.575 233.918 C 94.752 234.226,95.650 235.334,95.571 236.382 C 95.364 239.143,104.950 239.606,109.851 237.072 C 114.912 234.455,111.768 232.689,103.297 233.392 C 97.784 233.849,97.143 233.670,97.143 231.675 C 97.143 229.952,96.533 229.564,94.450 229.963 C 91.886 230.453,91.802 230.275,92.709 226.241 C 95.142 215.413,97.278 212.554,106.366 207.962 L 112.733 204.746 110.689 210.659 C 108.356 217.410,107.953 224.000,109.874 224.000 C 112.488 224.000,114.214 219.855,114.249 213.492 C 114.305 203.618,125.490 195.996,143.562 193.519 L 148.776 192.804 145.921 195.885 C 140.589 201.638,139.171 206.255,139.603 216.459 C 139.985 225.470,139.858 226.030,136.191 231.481 C 132.853 236.442,132.474 236.719,133.129 233.714 C 135.771 221.606,134.156 218.286,125.626 218.286 C 115.812 218.286,112.739 224.800,116.149 238.378 C 118.190 246.502,117.926 247.663,114.459 245.807 C 110.754 243.824,98.286 244.702,98.286 246.946 C 98.286 248.442,106.288 250.272,112.857 250.279 L 118.857 250.286 118.857 255.364 C 118.857 265.354,128.389 266.636,154.304 260.133 C 162.780 258.006,172.389 255.904,175.658 255.462 L 181.602 254.658 179.126 260.518 C 177.093 265.331,176.899 266.775,178.039 268.602 C 178.803 269.825,179.429 271.012,179.429 271.239 C 179.429 272.387,169.692 275.464,160.476 277.229 C 150.285 279.180,150.095 279.276,150.095 282.479 C 150.095 286.600,157.733 286.157,168.000 281.440 C 171.457 279.851,176.428 278.194,179.046 277.758 L 183.806 276.963 179.444 283.824 C 175.054 290.729,174.652 293.729,178.122 293.697 C 181.299 293.667,182.405 292.326,187.297 282.571 C 192.162 272.870,194.353 269.968,191.305 277.261 C 189.294 282.074,190.102 287.516,193.063 289.100 C 195.421 290.362,211.375 289.324,213.336 287.781 C 214.198 287.103,215.009 287.302,215.622 288.341 C 216.913 290.532,221.504 292.836,222.881 291.985 C 224.618 290.912,224.230 289.299,221.286 285.352 C 215.373 277.426,215.395 276.689,221.482 278.661 C 224.438 279.618,228.400 281.547,230.286 282.948 C 233.267 285.162,244.128 289.143,247.187 289.143 C 247.769 289.143,247.961 288.405,247.615 287.502 C 247.269 286.600,247.600 285.636,248.350 285.360 C 250.973 284.394,247.496 282.594,239.147 280.595 C 230.743 278.584,218.983 271.402,221.523 269.833 C 225.253 267.527,225.239 258.276,221.502 256.782 C 217.398 255.140,225.931 256.341,237.143 258.984 C 266.219 265.838,281.351 263.834,282.912 252.922 C 283.344 249.901,284.922 243.867,286.420 239.515 C 290.863 226.601,289.571 221.691,280.858 218.390 C 273.792 215.714,265.594 221.054,266.569 227.697 C 267.174 231.820,266.877 231.702,263.392 226.436 C 261.569 223.681,260.008 219.052,259.249 214.150 C 258.013 206.165,256.081 201.169,252.719 197.267 C 250.337 194.502,255.064 195.160,269.706 199.632 C 282.112 203.421,283.855 204.633,286.316 211.182 C 290.037 221.089,294.857 226.023,294.857 219.925 C 294.857 216.316,293.194 212.967,289.361 208.857 C 285.861 205.104,286.144 205.052,294.016 207.997 C 306.280 212.586,311.926 222.037,311.088 236.571 L 310.857 240.571 302.914 240.571 C 293.869 240.571,290.088 242.541,295.317 244.529 C 299.762 246.219,304.233 245.995,307.174 243.935 C 310.178 241.831,310.260 242.196,308.000 247.605 C 307.057 249.861,306.286 252.159,306.286 252.711 C 306.286 254.631,308.422 253.699,309.130 251.470 C 309.698 249.680,310.524 249.362,313.207 249.898 C 315.618 250.381,316.581 250.126,316.606 249.000 C 316.630 247.931,317.013 248.068,317.806 249.429 C 319.259 251.923,321.815 252.018,322.739 249.611 C 323.797 246.854,322.784 246.049,317.209 245.212 C 312.324 244.480,312.151 244.323,313.195 241.578 C 313.795 240.000,314.286 236.476,314.286 233.747 C 314.286 229.427,314.568 228.859,316.467 229.356 C 318.979 230.013,323.123 222.851,321.630 220.435 C 321.026 219.458,321.365 219.269,322.759 219.804 C 328.597 222.045,343.379 225.143,348.229 225.143 C 353.751 225.143,353.791 225.116,353.753 221.429 C 353.722 218.489,353.237 217.714,351.429 217.714 C 349.793 217.714,349.169 218.446,349.234 220.286 C 349.346 223.462,348.618 223.472,335.858 220.477 C 326.138 218.195,325.747 217.982,326.412 215.334 C 326.955 213.169,326.646 212.555,324.981 212.494 C 323.813 212.452,325.271 211.767,328.222 210.973 C 338.153 208.299,340.119 204.571,331.598 204.571 C 327.733 204.571,324.902 205.351,322.257 207.143 C 317.736 210.206,316.247 213.222,319.702 212.318 C 321.484 211.852,321.876 212.178,321.457 213.779 C 320.967 215.653,320.123 215.475,312.173 211.824 C 307.364 209.615,300.197 206.466,296.247 204.828 C 290.860 202.593,289.504 201.603,290.819 200.867 C 293.155 199.560,293.041 196.948,290.588 195.575 C 288.856 194.606,289.001 194.365,291.730 193.680 C 298.339 192.021,293.097 188.948,285.901 190.262 C 276.438 191.990,273.000 197.340,282.131 196.128 C 287.557 195.409,287.678 195.458,287.158 198.175 C 286.631 200.931,286.576 200.942,281.884 199.265 C 257.084 190.398,239.845 189.062,225.714 194.910 C 223.649 195.765,223.586 195.664,225.060 193.853 C 229.823 188.001,228.185 188.129,310.608 187.175 C 395.073 186.199,393.328 186.358,397.685 179.212 C 402.256 171.714,399.215 163.328,391.354 161.755 C 384.457 160.375,378.350 169.500,383.379 173.673 C 385.683 175.585,387.569 174.100,386.788 170.988 C 385.895 167.429,388.739 165.112,391.913 166.811 C 396.870 169.464,395.964 176.385,390.161 180.187 C 387.549 181.898,379.731 182.134,311.630 182.559 C 263.610 182.858,234.540 183.468,232.000 184.228 C 225.980 186.031,220.545 190.627,218.221 195.880 C 216.505 199.760,209.143 208.572,209.143 206.746 C 209.143 204.023,214.736 191.526,218.244 186.411 C 228.128 171.997,235.896 167.497,245.143 170.825 C 247.657 171.731,251.771 172.512,254.286 172.562 C 260.462 172.684,255.958 175.449,247.707 176.601 C 233.709 178.554,236.115 181.705,251.383 181.414 L 265.624 181.143 266.326 177.702 C 267.196 173.436,276.380 155.620,279.123 152.877 C 281.398 150.602,291.486 150.066,296.458 151.957 C 303.087 154.477,297.994 173.310,290.169 175.210 C 279.420 177.821,277.714 178.483,277.714 180.046 C 277.714 182.469,300.798 182.482,302.807 180.060 C 303.598 179.107,304.377 173.460,304.644 166.744 C 305.134 154.433,305.500 153.043,307.676 155.219 C 309.631 157.174,312.378 156.920,311.587 154.857 C 311.183 153.805,311.588 153.143,312.636 153.143 C 313.574 153.143,314.831 154.429,315.429 156.000 C 316.689 159.315,317.974 159.577,320.516 157.035 C 322.736 154.815,329.181 156.053,343.220 161.397 C 351.974 164.729,355.637 164.933,351.428 161.855 C 350.263 161.003,346.770 159.393,343.666 158.276 L 338.022 156.247 341.860 154.633 C 349.602 151.378,354.274 144.332,347.714 145.805 C 345.986 146.193,343.286 147.491,341.714 148.690 C 333.836 154.700,335.345 154.526,320.135 151.179 L 306.121 148.096 306.846 144.048 C 307.951 137.888,309.943 136.995,321.714 137.379 L 332.000 137.714 332.363 132.615 C 332.655 128.525,333.631 126.535,337.297 122.558 C 339.810 119.831,341.659 116.983,341.404 116.229 C 341.150 115.474,341.714 114.289,342.657 113.594 C 344.896 111.944,343.517 108.270,340.861 108.808 C 339.637 109.056,338.892 110.202,338.948 111.750 C 338.998 113.145,338.355 114.286,337.519 114.286 C 336.670 114.286,336.000 115.517,336.000 117.078 C 336.000 123.461,331.201 124.028,328.155 118.006 C 316.572 95.107,292.370 82.957,271.524 89.576 C 259.129 93.513,256.207 88.891,261.847 74.270 C 270.346 52.238,271.516 42.768,266.374 37.626 C 261.849 33.102,258.921 33.418,252.699 39.099 C 245.977 45.239,245.831 45.714,250.668 45.714 C 259.790 45.714,260.300 47.981,253.519 58.394 C 250.897 62.420,247.561 67.771,246.104 70.286 C 244.648 72.800,243.450 74.214,243.442 73.429 C 243.432 72.323,236.836 72.000,214.313 72.000 C 187.228 72.000,184.937 71.841,181.456 69.719 C 177.004 67.004,170.619 66.781,164.967 69.143 C 162.710 70.086,159.898 70.857,158.718 70.857 C 157.537 70.857,156.525 71.500,156.468 72.286 C 156.412 73.071,155.412 70.132,154.247 65.754 C 151.778 56.481,152.452 54.857,158.769 54.857 C 167.486 54.857,167.844 50.456,159.816 41.947 C 154.447 36.256,153.909 35.199,153.816 30.154 C 153.688 23.155,151.327 22.370,147.635 28.098 M179.015 44.000 C 177.179 48.785,178.679 49.143,200.571 49.143 C 222.464 49.143,223.964 48.785,222.128 44.000 C 221.146 41.441,179.997 41.441,179.015 44.000 M192.618 45.790 C 193.033 46.461,193.102 47.279,192.772 47.609 C 191.875 48.506,187.429 46.866,187.429 45.637 C 187.429 44.166,191.692 44.291,192.618 45.790 M207.476 45.790 C 207.890 46.461,207.959 47.279,207.629 47.609 C 206.732 48.506,202.286 46.866,202.286 45.637 C 202.286 44.166,206.549 44.291,207.476 45.790 M345.819 69.240 C 345.403 71.134,345.835 75.059,346.815 78.292 C 347.768 81.431,348.552 84.151,348.559 84.336 C 348.566 84.521,347.671 84.521,346.571 84.336 C 345.110 84.091,344.571 84.770,344.571 86.857 C 344.571 88.877,345.158 89.668,346.571 89.556 C 347.826 89.456,348.571 90.201,348.571 91.556 C 348.571 92.836,349.372 93.714,350.540 93.714 C 352.190 93.714,352.113 93.991,350.062 95.428 C 347.393 97.297,342.857 104.052,342.857 106.158 C 342.857 108.793,352.019 102.782,354.858 98.285 C 358.263 92.890,358.372 92.133,355.641 92.847 C 354.109 93.248,353.587 92.760,353.641 90.980 C 353.691 89.324,352.911 88.457,351.143 88.206 C 349.729 88.005,348.571 87.363,348.571 86.778 C 348.571 86.193,349.150 85.843,349.857 86.000 C 354.158 86.956,353.337 74.629,348.702 68.662 L 346.553 65.896 345.819 69.240 M49.842 74.000 C 50.148 76.357,50.617 79.700,50.885 81.429 C 51.152 83.157,50.870 84.571,50.257 84.571 C 48.481 84.571,48.969 88.832,50.827 89.545 C 51.753 89.900,52.961 89.387,53.510 88.406 C 54.362 86.884,54.868 86.845,56.940 88.139 C 58.757 89.274,59.700 89.329,60.672 88.357 C 62.503 86.526,60.842 84.397,57.899 84.802 C 55.646 85.113,55.429 84.631,55.429 79.319 C 55.429 73.468,53.615 69.714,50.789 69.714 C 49.716 69.714,49.445 70.939,49.842 74.000 M354.752 75.861 C 353.827 78.271,355.126 80.000,357.861 80.000 C 359.588 80.000,360.068 79.364,359.794 77.440 C 359.368 74.453,355.730 73.313,354.752 75.861 M162.667 78.492 C 163.400 78.221,163.866 77.404,163.701 76.676 C 163.492 75.747,165.792 75.448,171.416 75.676 C 182.234 76.113,182.738 78.857,172.000 78.857 L 164.571 78.857 164.571 90.353 C 164.571 98.497,164.201 101.620,163.301 101.064 C 162.602 100.632,161.581 100.987,161.033 101.854 C 160.437 102.794,160.081 97.675,160.150 89.143 C 160.213 81.286,160.506 75.786,160.800 76.920 C 161.094 78.055,161.934 78.762,162.667 78.492 M197.714 77.143 C 197.714 78.499,196.085 78.857,189.905 78.857 C 183.725 78.857,182.095 78.499,182.095 77.143 C 182.095 75.786,183.725 75.429,189.905 75.429 C 196.085 75.429,197.714 75.786,197.714 77.143 M216.762 77.143 C 216.762 78.499,215.132 78.857,208.952 78.857 C 202.772 78.857,201.143 78.499,201.143 77.143 C 201.143 75.786,202.772 75.429,208.952 75.429 C 215.132 75.429,216.762 75.786,216.762 77.143 M235.143 76.714 C 234.986 77.421,235.500 78.236,236.286 78.524 C 237.071 78.812,237.714 78.233,237.714 77.238 C 237.714 76.243,238.229 75.429,238.857 75.429 C 240.425 75.429,240.370 136.335,238.797 142.000 C 236.478 150.351,234.570 147.060,235.194 135.786 C 235.527 129.771,235.962 128.276,237.237 128.766 C 238.205 129.137,238.857 128.676,238.857 127.618 C 238.857 125.313,236.934 124.142,236.188 125.993 C 235.869 126.783,235.568 122.157,235.519 115.714 C 235.444 106.023,235.725 104.000,237.143 104.000 C 238.086 104.000,238.857 103.174,238.857 102.163 C 238.857 101.000,238.228 100.568,237.143 100.985 C 235.690 101.542,235.429 99.907,235.429 90.250 L 235.429 78.857 227.429 78.857 C 221.079 78.857,219.429 78.503,219.429 77.143 C 219.429 75.782,221.079 75.429,227.429 75.429 C 232.762 75.429,235.333 75.857,235.143 76.714 M42.835 81.179 C 42.391 81.897,42.565 83.023,43.223 83.680 C 44.759 85.216,48.339 83.876,47.715 81.999 C 47.079 80.089,43.844 79.545,42.835 81.179 M173.714 88.000 L 173.714 94.857 170.286 94.857 L 166.857 94.857 166.857 88.000 L 166.857 81.143 170.286 81.143 L 173.714 81.143 173.714 88.000 M187.429 88.000 C 187.429 94.095,187.175 94.857,185.143 94.857 C 183.111 94.857,182.857 94.095,182.857 88.000 C 182.857 81.905,183.111 81.143,185.143 81.143 C 187.175 81.143,187.429 81.905,187.429 88.000 M209.143 99.429 L 209.143 117.714 204.571 117.714 C 200.386 117.714,198.317 116.180,201.204 115.218 C 202.025 114.944,202.048 113.913,201.277 111.980 C 200.654 110.419,200.104 109.657,200.055 110.286 C 200.005 110.914,199.547 110.770,199.036 109.964 C 197.656 107.789,193.766 109.801,193.442 112.857 C 193.292 114.271,193.678 115.429,194.299 115.429 C 194.920 115.429,195.429 115.943,195.429 116.571 C 195.429 117.200,194.400 117.714,193.143 117.714 C 190.952 117.714,190.857 116.952,190.857 99.429 L 190.857 81.143 200.000 81.143 L 209.143 81.143 209.143 99.429 M232.000 87.429 C 232.000 92.864,231.703 93.714,229.806 93.714 C 227.840 93.714,227.730 93.289,228.747 89.607 C 230.132 84.592,229.631 83.979,225.365 85.465 C 223.403 86.150,221.391 86.211,220.450 85.615 C 217.423 83.698,214.647 84.375,215.352 86.857 C 215.708 88.114,216.292 90.171,216.648 91.429 C 217.147 93.186,216.751 93.714,214.934 93.714 C 212.832 93.714,212.571 93.021,212.571 87.429 L 212.571 81.143 222.286 81.143 L 232.000 81.143 232.000 87.429 M196.857 84.267 C 192.349 87.293,193.811 93.714,199.008 93.714 C 201.510 93.714,202.613 93.004,203.425 90.867 C 204.677 87.572,203.849 84.571,201.687 84.571 C 200.864 84.571,200.019 84.115,199.810 83.556 C 199.600 82.998,198.271 83.318,196.857 84.267 M359.678 83.762 C 359.343 84.635,359.483 86.021,359.990 86.842 C 361.272 88.916,364.827 87.314,364.357 84.874 C 363.882 82.407,360.506 81.604,359.678 83.762 M353.143 85.714 C 353.143 87.238,353.905 88.000,355.429 88.000 C 356.952 88.000,357.714 87.238,357.714 85.714 C 357.714 84.190,356.952 83.429,355.429 83.429 C 353.905 83.429,353.143 84.190,353.143 85.714 M156.571 90.997 C 156.571 95.563,156.339 96.087,154.857 94.857 C 152.848 93.190,152.680 90.999,154.326 87.925 C 156.115 84.582,156.571 85.206,156.571 90.997 M316.149 88.286 C 314.912 92.901,315.392 98.867,317.208 101.460 C 320.035 105.496,321.143 104.463,321.143 97.789 C 321.143 88.142,317.861 81.897,316.149 88.286 M42.670 88.648 C 42.292 89.633,42.530 90.987,43.200 91.657 C 44.978 93.435,48.000 91.874,48.000 89.179 C 48.000 86.360,43.711 85.933,42.670 88.648 M333.237 88.737 C 332.032 91.880,332.542 97.735,334.232 100.148 C 335.783 102.362,335.718 102.486,333.251 102.015 C 330.578 101.504,328.431 104.209,329.778 106.389 C 330.790 108.026,334.862 107.602,335.559 105.786 C 335.906 104.883,336.918 104.424,337.809 104.766 C 339.071 105.250,339.429 104.149,339.429 99.779 C 339.429 91.562,335.109 83.859,333.237 88.737 M49.143 93.114 C 49.143 94.378,48.284 94.628,45.714 94.114 C 40.906 93.153,41.229 95.666,46.571 100.787 C 53.706 107.625,60.971 107.549,54.413 100.704 C 51.258 97.411,52.283 93.389,55.580 96.126 C 57.485 97.706,59.429 96.455,59.429 93.647 C 59.429 91.141,55.421 90.503,54.471 92.857 C 54.010 94.000,53.877 94.000,53.805 92.857 C 53.676 90.826,49.143 91.076,49.143 93.114 M198.291 95.991 C 197.548 97.194,199.063 100.651,200.469 100.960 C 202.283 101.358,203.743 96.901,202.133 95.881 C 200.085 94.584,199.144 94.611,198.291 95.991 M180.571 99.571 C 180.571 100.121,179.573 100.571,178.353 100.571 C 177.133 100.571,175.857 100.121,175.517 99.571 C 175.177 99.021,176.175 98.571,177.735 98.571 C 179.295 98.571,180.571 99.021,180.571 99.571 M352.799 104.286 C 345.116 113.792,344.579 117.483,351.413 113.802 C 355.404 111.653,358.857 106.098,358.857 101.827 C 358.857 98.214,357.144 98.909,352.799 104.286 M202.189 102.402 C 201.174 103.626,201.129 104.443,202.029 105.343 C 203.607 106.921,206.857 105.739,206.857 103.587 C 206.857 101.205,203.822 100.435,202.189 102.402 M226.286 101.714 C 226.286 102.343,224.773 102.857,222.925 102.857 C 221.076 102.857,219.246 102.343,218.857 101.714 C 218.437 101.034,219.798 100.571,222.218 100.571 C 224.455 100.571,226.286 101.086,226.286 101.714 M193.262 102.760 C 191.101 104.127,192.608 107.699,195.139 107.212 C 196.241 106.999,197.143 105.847,197.143 104.651 C 197.143 102.115,195.527 101.328,193.262 102.760 M34.286 103.743 C 34.286 105.351,43.652 110.730,47.949 111.590 C 52.322 112.464,52.364 111.038,48.087 106.940 C 44.631 103.629,34.286 101.232,34.286 103.743 M164.481 115.143 C 164.432 121.900,164.132 126.786,163.815 126.000 C 162.891 123.711,161.143 124.352,161.143 126.979 C 161.143 128.590,161.680 129.181,162.766 128.764 C 164.054 128.270,164.467 129.804,164.766 136.189 C 165.184 145.105,164.408 147.722,162.048 145.363 C 159.664 142.982,159.306 123.959,161.602 121.664 C 163.639 119.626,164.134 109.171,162.329 106.316 C 161.438 104.907,162.532 102.982,164.286 102.875 C 164.443 102.865,164.531 108.386,164.481 115.143 M75.429 107.306 C 75.429 109.719,78.389 111.396,79.493 109.610 C 80.568 107.871,79.155 105.143,77.179 105.143 C 76.216 105.143,75.429 106.116,75.429 107.306 M154.571 108.312 C 156.295 109.826,156.571 112.252,156.571 125.868 C 156.571 146.626,157.448 148.888,168.068 155.552 C 176.127 160.609,176.582 161.375,175.308 167.745 L 174.616 171.204 165.813 165.210 C 160.971 161.913,152.411 156.736,146.791 153.706 C 141.170 150.675,136.428 148.094,136.254 147.970 C 136.079 147.847,136.525 146.260,137.244 144.444 C 137.963 142.628,138.931 137.492,139.393 133.030 C 139.856 128.568,141.559 121.368,143.178 117.030 C 144.797 112.692,146.413 108.207,146.769 107.064 C 147.504 104.706,151.124 105.285,154.571 108.312 M173.714 111.429 C 173.714 117.651,173.680 117.714,170.286 117.714 C 166.892 117.714,166.857 117.651,166.857 111.429 C 166.857 105.206,166.892 105.143,170.286 105.143 C 173.680 105.143,173.714 105.206,173.714 111.429 M187.429 111.429 C 187.429 116.952,187.152 117.714,185.143 117.714 C 183.134 117.714,182.857 116.952,182.857 111.429 C 182.857 105.905,183.134 105.143,185.143 105.143 C 187.152 105.143,187.429 105.905,187.429 111.429 M216.703 108.286 C 214.457 115.843,214.455 116.972,216.686 116.058 C 221.207 114.207,222.890 114.074,226.378 115.289 L 229.969 116.541 229.200 111.414 C 228.568 107.200,228.749 106.286,230.216 106.286 C 231.595 106.286,232.000 107.583,232.000 112.000 L 232.000 117.714 222.286 117.714 L 212.571 117.714 212.571 112.000 C 212.571 106.986,212.861 106.286,214.934 106.286 C 216.649 106.286,217.134 106.834,216.703 108.286 M203.896 109.001 C 202.928 111.524,204.216 112.812,205.962 111.067 C 206.993 110.036,206.997 109.397,205.980 108.380 C 204.964 107.364,204.468 107.511,203.896 109.001 M331.830 110.317 C 331.409 111.414,331.776 112.661,332.691 113.240 C 334.955 114.672,336.571 113.885,336.571 111.349 C 336.571 108.588,332.808 107.769,331.830 110.317 M251.338 120.887 C 256.922 126.122,266.150 130.552,270.430 130.052 C 280.395 128.889,278.904 145.964,268.777 148.982 C 265.835 149.858,261.566 151.356,259.290 152.311 C 255.505 153.898,255.163 153.886,255.290 152.167 C 255.374 151.032,254.409 150.142,252.857 149.921 C 250.901 149.643,250.286 150.121,250.286 151.921 C 250.286 153.221,250.929 154.301,251.714 154.319 C 252.500 154.337,249.014 156.523,243.967 159.176 C 238.920 161.829,232.106 165.972,228.824 168.383 L 222.857 172.766 222.842 169.526 C 222.833 167.744,222.558 165.257,222.231 164.000 C 221.749 162.148,223.254 160.701,230.165 156.371 C 242.443 148.678,242.779 147.953,243.255 128.082 L 243.654 111.486 246.108 114.886 C 247.458 116.756,249.811 119.457,251.338 120.887 M356.940 113.830 C 356.554 114.836,356.943 116.095,357.804 116.627 C 358.664 117.159,359.382 118.778,359.399 120.226 C 359.420 122.073,360.195 122.966,362.000 123.222 C 364.094 123.520,364.571 123.043,364.571 120.651 C 364.571 118.716,363.945 117.714,362.735 117.714 C 361.489 117.714,361.134 117.101,361.631 115.806 C 362.034 114.753,361.705 113.479,360.896 112.966 C 358.711 111.580,357.721 111.796,356.940 113.830 M365.284 114.900 C 364.894 115.919,365.355 116.944,366.382 117.338 C 368.516 118.157,370.851 116.125,369.776 114.385 C 368.654 112.571,366.064 112.868,365.284 114.900 M350.286 117.714 C 349.353 119.223,350.602 121.143,352.517 121.143 C 353.791 121.143,355.429 118.840,355.429 117.049 C 355.429 116.048,350.959 116.626,350.286 117.714 M342.476 120.762 C 339.866 123.372,348.836 128.347,354.213 127.272 C 359.050 126.304,358.604 125.072,352.426 122.339 C 346.985 119.932,343.809 119.429,342.476 120.762 M187.257 124.857 C 187.098 128.314,187.053 128.354,186.610 125.429 C 185.847 120.393,181.745 122.486,181.680 127.943 C 181.649 130.480,181.493 130.597,180.476 128.851 C 179.648 127.428,178.494 127.048,176.511 127.546 C 174.891 127.953,173.714 127.749,173.714 127.063 C 173.714 125.530,170.471 122.286,168.939 122.286 C 168.288 122.286,168.020 122.975,168.343 123.818 C 168.667 124.661,168.473 126.075,167.912 126.961 C 167.192 128.098,166.887 127.480,166.875 124.857 L 166.857 121.143 177.143 121.143 L 187.429 121.143 187.257 124.857 M209.143 124.331 C 209.143 127.058,208.688 127.512,206.000 127.474 C 203.057 127.431,202.857 127.738,202.857 132.287 C 202.857 134.959,202.712 137.145,202.535 137.144 C 202.357 137.144,200.366 136.371,198.109 135.429 C 192.732 133.182,192.249 133.246,191.664 136.286 C 191.391 137.700,191.098 134.871,191.013 130.000 L 190.857 121.143 200.000 121.143 L 209.143 121.143 209.143 124.331 M232.000 124.000 C 232.000 126.295,231.431 126.857,229.107 126.857 C 225.740 126.857,224.265 129.565,226.298 132.015 C 227.448 133.400,227.366 133.714,225.854 133.714 C 224.497 133.714,224.000 132.642,224.000 129.714 C 224.000 125.658,218.597 123.580,216.571 126.857 C 215.022 129.363,212.571 127.963,212.571 124.571 L 212.571 121.143 222.286 121.143 C 231.886 121.143,232.000 121.176,232.000 124.000 M73.714 128.000 C 72.771 129.527,74.039 131.429,76.000 131.429 C 78.331 131.429,79.394 129.042,77.575 127.890 C 75.510 126.582,74.574 126.609,73.714 128.000 M149.614 135.431 C 148.187 141.808,149.478 148.416,151.864 146.941 C 153.544 145.903,155.584 135.882,154.823 132.414 C 153.649 127.072,151.162 128.513,149.614 135.431 M255.370 133.054 C 254.450 137.955,255.707 143.959,257.822 144.771 C 258.706 145.110,259.429 146.104,259.429 146.979 C 259.429 147.928,260.618 148.571,262.370 148.571 C 265.969 148.571,265.862 144.761,262.248 144.240 C 260.329 143.964,260.014 143.207,260.347 139.669 C 261.133 131.302,256.783 125.520,255.370 133.054 M78.881 132.704 C 72.168 135.382,70.118 139.429,75.474 139.429 C 79.182 139.429,88.000 135.476,88.000 133.813 C 88.000 131.509,83.307 130.938,78.881 132.704 M209.108 135.714 C 209.073 140.099,208.011 139.440,206.347 134.000 C 205.763 132.092,206.023 131.429,207.352 131.429 C 208.666 131.429,209.134 132.570,209.108 135.714 M293.355 133.914 C 295.678 136.096,296.957 139.429,295.471 139.429 C 295.180 139.429,292.333 140.457,289.144 141.714 L 283.347 143.999 286.245 139.734 C 287.839 137.389,289.143 134.560,289.143 133.449 C 289.143 130.789,290.147 130.900,293.355 133.914 M216.000 137.636 C 216.000 138.382,215.245 139.990,214.322 141.210 C 212.763 143.271,212.642 143.074,212.608 138.431 C 212.576 134.117,212.806 133.629,214.286 134.857 C 215.229 135.640,216.000 136.890,216.000 137.636 M232.000 137.865 C 232.000 141.503,226.781 146.635,218.430 151.209 L 212.571 154.418 212.571 150.352 C 212.571 147.528,213.087 146.286,214.259 146.286 C 215.188 146.286,216.790 145.000,217.819 143.429 C 218.849 141.857,220.249 140.571,220.931 140.571 C 221.750 140.571,221.705 141.038,220.800 141.943 C 218.305 144.438,219.360 145.410,223.714 144.627 C 228.513 143.764,230.857 141.423,230.857 137.496 C 230.857 136.045,231.114 134.857,231.429 134.857 C 231.743 134.857,232.000 136.211,232.000 137.865 M35.433 140.286 C 35.438 144.325,39.306 150.674,42.476 151.847 C 44.585 152.627,44.666 152.862,43.041 153.486 C 40.693 154.387,40.557 157.245,42.821 158.114 C 44.723 158.844,45.103 158.380,46.131 154.072 C 46.898 150.862,44.145 144.805,39.608 139.714 C 36.576 136.313,35.428 136.470,35.433 140.286 M174.857 144.516 C 174.857 146.540,179.684 147.711,180.799 145.957 C 181.283 145.195,181.720 145.086,181.769 145.714 C 181.819 146.343,182.421 145.571,183.108 144.000 C 183.795 142.429,184.293 140.806,184.215 140.394 C 184.136 139.982,184.827 139.356,185.750 139.001 C 187.127 138.473,187.429 139.788,187.429 146.322 C 187.429 150.702,187.180 154.286,186.877 154.286 C 185.572 154.286,170.755 144.665,169.478 142.988 C 166.728 139.378,167.832 138.010,171.429 140.571 C 173.314 141.914,174.857 143.689,174.857 144.516 M249.692 141.751 C 249.248 142.469,249.423 143.594,250.080 144.251 C 251.616 145.787,255.197 144.448,254.572 142.571 C 253.936 140.660,250.702 140.117,249.692 141.751 M298.286 145.143 C 298.286 147.083,297.552 147.416,293.429 147.344 L 288.571 147.259 293.143 145.143 C 295.657 143.979,297.843 142.989,298.000 142.942 C 298.157 142.895,298.286 143.886,298.286 145.143 M360.571 144.454 C 357.666 145.732,349.714 154.953,349.714 157.044 C 349.714 159.786,355.597 156.817,360.792 151.453 C 368.807 143.178,368.734 140.865,360.571 144.454 M195.729 150.124 C 199.020 150.985,204.775 149.720,207.215 147.600 C 209.185 145.890,209.270 146.082,208.930 151.472 C 208.422 159.514,202.922 162.808,195.551 159.484 L 190.857 157.367 190.934 150.969 C 190.999 145.670,191.217 144.996,192.208 147.044 C 192.865 148.403,194.450 149.790,195.729 150.124 M244.988 146.849 C 244.592 147.881,244.816 149.273,245.486 149.943 C 247.227 151.684,250.526 150.093,250.071 147.731 C 249.565 145.100,245.903 144.465,244.988 146.849 M142.286 147.429 C 141.231 149.136,142.699 150.857,145.210 150.857 C 146.667 150.857,147.429 150.072,147.429 148.571 C 147.429 146.147,143.603 145.297,142.286 147.429 M179.779 156.163 C 179.249 157.546,178.780 157.560,176.719 156.257 C 175.381 155.411,172.383 153.566,170.058 152.159 C 167.572 150.654,166.070 148.975,166.411 148.084 C 166.840 146.967,168.752 147.614,173.699 150.550 C 178.197 153.220,180.199 155.068,179.779 156.163 M233.527 147.925 C 233.923 148.956,232.765 150.386,230.408 151.776 C 228.347 152.993,225.352 154.845,223.754 155.892 C 221.259 157.527,220.757 157.560,220.207 156.128 C 219.648 154.672,222.292 152.615,232.735 146.383 C 232.825 146.330,233.181 147.023,233.527 147.925 M26.485 149.336 C 26.970 151.851,31.429 152.193,31.429 149.714 C 31.429 148.771,30.226 147.830,28.755 147.621 C 26.683 147.328,26.173 147.713,26.485 149.336 M50.286 148.973 C 50.286 152.911,61.730 155.631,65.782 152.657 C 67.937 151.074,67.918 150.997,65.143 149.962 C 59.385 147.814,50.286 147.209,50.286 148.973 M33.143 150.778 C 33.143 152.557,33.872 153.143,36.084 153.143 C 39.835 153.143,39.501 149.320,35.703 148.778 C 33.758 148.500,33.143 148.981,33.143 150.778 M148.571 150.857 C 148.571 152.114,149.313 153.143,150.218 153.143 C 152.604 153.143,153.705 150.772,151.861 149.604 C 149.415 148.055,148.571 148.376,148.571 150.857 M366.873 149.705 C 364.798 150.987,366.400 154.541,368.841 154.071 C 369.935 153.861,370.991 152.859,371.186 151.845 C 371.604 149.675,369.006 148.386,366.873 149.705 M374.930 150.198 C 373.156 152.335,374.282 154.286,377.290 154.286 C 378.998 154.286,379.494 153.649,379.222 151.804 C 378.766 148.702,376.786 147.961,374.930 150.198 M119.980 154.571 C 119.970 157.243,118.950 163.286,117.714 168.000 C 114.986 178.411,114.971 178.808,117.224 181.061 C 118.857 182.694,117.792 182.853,105.510 182.812 C 93.257 182.772,92.319 182.625,95.429 181.237 C 101.471 178.540,112.000 163.591,112.000 157.709 C 112.000 155.690,117.242 149.714,119.013 149.714 C 119.556 149.714,119.991 151.900,119.980 154.571 M21.075 153.253 C 20.649 153.941,21.005 155.209,21.865 156.068 C 23.847 158.050,26.891 156.369,25.917 153.830 C 25.113 151.737,22.225 151.392,21.075 153.253 M280.471 153.565 C 279.613 155.800,280.782 157.714,283.004 157.714 C 284.126 157.714,284.603 156.845,284.365 155.232 C 283.922 152.219,281.401 151.139,280.471 153.565 M29.916 154.541 C 28.036 156.421,28.241 158.486,30.389 159.310 C 33.977 160.687,35.803 156.968,32.773 154.453 C 31.668 153.536,30.897 153.560,29.916 154.541 M139.578 154.934 C 141.574 155.967,142.799 157.361,142.468 158.224 C 141.539 160.644,143.967 162.325,146.293 160.873 C 147.884 159.880,149.664 160.393,155.003 163.385 C 171.288 172.509,181.408 182.951,189.839 199.327 L 194.599 208.571 190.922 205.143 C 188.900 203.257,185.987 199.065,184.449 195.826 C 181.931 190.521,178.615 187.158,173.714 184.937 C 172.311 184.302,172.363 184.146,174.000 184.080 C 176.448 183.982,176.603 181.337,174.296 179.031 C 170.802 175.536,164.596 174.547,149.822 175.130 C 128.893 175.954,127.865 175.063,132.151 159.789 C 134.191 152.517,134.506 152.311,139.578 154.934 M267.537 159.714 C 261.852 170.857,261.773 170.918,256.734 167.944 C 253.148 165.828,251.362 165.519,245.954 166.077 C 238.862 166.809,239.062 166.456,248.538 161.521 C 254.948 158.183,267.257 153.283,269.445 153.199 C 270.375 153.163,269.696 155.483,267.537 159.714 M35.429 156.571 C 35.429 158.095,36.190 158.857,37.714 158.857 C 39.238 158.857,40.000 158.095,40.000 156.571 C 40.000 155.048,39.238 154.286,37.714 154.286 C 36.190 154.286,35.429 155.048,35.429 156.571 M287.619 155.916 C 286.560 158.676,290.059 160.716,292.193 158.583 C 293.178 157.597,293.636 156.227,293.211 155.538 C 292.099 153.740,288.357 153.993,287.619 155.916 M359.297 155.930 C 358.915 156.927,359.184 158.445,359.896 159.304 C 360.908 160.522,360.685 160.996,358.881 161.468 C 354.790 162.538,356.411 164.372,362.689 165.777 C 372.405 167.951,381.847 164.125,373.429 161.425 C 371.386 160.770,370.614 160.181,371.714 160.117 C 374.719 159.941,374.341 155.429,371.322 155.429 C 369.890 155.429,368.689 156.347,368.331 157.714 C 367.492 160.922,363.793 160.713,363.909 157.464 C 364.017 154.448,360.336 153.224,359.297 155.930 M195.143 163.138 C 197.769 164.451,198.857 165.790,198.857 167.708 C 198.857 169.578,198.413 170.152,197.429 169.555 C 187.162 163.332,182.406 159.626,182.267 157.742 C 182.115 155.678,182.414 155.723,186.766 158.406 C 189.331 159.987,193.100 162.117,195.143 163.138 M217.873 157.429 C 217.597 160.908,201.810 170.644,201.317 167.639 C 201.098 166.307,201.355 165.071,201.888 164.891 C 202.421 164.711,206.200 162.527,210.286 160.037 C 214.371 157.547,217.786 155.491,217.873 155.469 C 217.960 155.447,217.960 156.329,217.873 157.429 M311.241 158.363 C 310.288 160.845,312.707 163.179,314.437 161.448 C 315.900 159.985,314.994 156.571,313.143 156.571 C 312.475 156.571,311.619 157.377,311.241 158.363 M90.459 163.078 C 89.841 164.182,88.135 165.099,86.668 165.114 C 84.771 165.135,84.000 165.804,84.000 167.429 C 84.000 169.881,83.106 170.727,79.284 171.894 C 77.639 172.396,79.115 170.183,83.855 165.041 C 90.348 157.999,93.891 156.945,90.459 163.078 M277.286 159.769 C 276.976 160.270,277.115 161.316,277.595 162.093 C 278.687 163.860,282.286 162.598,282.286 160.449 C 282.286 158.766,278.245 158.217,277.286 159.769 M284.857 159.692 C 284.071 159.966,283.429 160.955,283.429 161.889 C 283.429 163.875,288.150 163.595,288.816 161.569 C 289.306 160.081,286.948 158.963,284.857 159.692 M29.143 161.527 C 23.663 163.209,23.006 166.135,28.000 166.617 C 32.509 167.052,40.571 164.201,40.571 162.171 C 40.571 160.054,34.967 159.739,29.143 161.527 M317.373 160.722 C 315.573 162.522,316.641 164.720,319.143 164.365 C 320.557 164.164,321.714 163.236,321.714 162.301 C 321.714 160.486,318.704 159.391,317.373 160.722 M323.628 161.907 C 324.113 164.423,328.571 164.764,328.571 162.286 C 328.571 161.343,327.369 160.401,325.898 160.193 C 323.825 159.899,323.316 160.284,323.628 161.907 M336.762 161.905 C 335.416 163.251,335.949 165.714,337.587 165.714 C 338.460 165.714,339.103 166.614,339.016 167.714 C 338.915 168.980,339.800 169.847,341.429 170.079 C 342.843 170.280,344.000 169.943,344.000 169.329 C 344.000 168.716,344.971 168.468,346.157 168.778 C 348.958 169.510,350.322 167.252,348.444 164.990 C 347.123 163.398,346.844 163.405,345.634 165.060 C 343.805 167.560,340.276 166.159,341.186 163.293 C 341.869 161.142,338.563 160.104,336.762 161.905 M138.655 164.115 C 137.931 166.000,140.260 168.238,142.286 167.606 C 142.914 167.410,143.593 166.133,143.794 164.768 C 144.237 161.753,139.778 161.187,138.655 164.115 M146.286 165.714 C 146.286 167.596,146.878 168.075,148.857 167.794 C 150.271 167.593,151.429 166.657,151.429 165.714 C 151.429 164.771,150.271 163.836,148.857 163.635 C 146.878 163.354,146.286 163.833,146.286 165.714 M189.460 171.878 C 188.273 174.123,188.773 184.008,190.276 188.000 C 190.759 189.282,189.947 188.711,188.426 186.698 C 186.934 184.725,184.353 181.382,182.689 179.270 C 180.055 175.925,179.740 174.670,180.251 169.555 L 180.838 163.682 185.721 166.698 C 189.864 169.258,190.431 170.042,189.460 171.878 M213.773 185.191 C 211.462 188.766,208.661 194.075,207.548 196.989 C 206.436 199.902,205.011 202.286,204.382 202.286 C 203.753 202.286,203.433 201.900,203.670 201.429 C 211.967 184.977,214.017 178.056,212.387 172.000 C 211.624 169.163,211.905 168.236,214.018 166.628 L 216.571 164.685 217.273 171.687 C 217.941 178.354,217.774 179.001,213.773 185.191 M55.059 167.112 C 54.120 168.052,54.110 168.814,55.024 169.916 C 56.692 171.925,59.028 171.836,59.835 169.732 C 60.702 167.474,56.825 165.347,55.059 167.112 M356.571 166.889 C 356.571 169.229,361.216 174.836,364.605 176.589 C 368.548 178.628,369.143 178.680,369.143 176.983 C 369.143 176.267,369.998 175.055,371.043 174.291 C 374.055 172.089,372.124 168.742,368.271 169.488 C 366.500 169.831,364.399 169.451,363.429 168.611 C 360.858 166.387,356.571 165.310,356.571 166.889 M322.719 170.000 C 325.382 175.118,334.009 181.800,335.731 180.078 C 337.104 178.705,332.488 171.344,328.872 169.139 C 323.154 165.653,320.641 166.004,322.719 170.000 M372.785 168.857 C 373.363 171.889,378.286 172.216,378.286 169.222 C 378.286 167.443,377.557 166.857,375.345 166.857 C 373.161 166.857,372.502 167.372,372.785 168.857 M48.000 170.202 C 48.000 171.837,48.734 172.571,50.370 172.571 C 53.298 172.571,52.966 168.789,49.987 168.215 C 48.615 167.951,48.000 168.566,48.000 170.202 M344.000 172.488 C 344.000 174.123,344.734 174.857,346.370 174.857 C 349.298 174.857,348.966 171.074,345.987 170.501 C 344.615 170.237,344.000 170.852,344.000 172.488 M205.314 191.912 C 203.938 194.693,202.226 197.163,201.510 197.401 C 199.477 198.079,193.942 190.009,194.054 186.532 C 194.500 172.711,194.498 172.717,197.183 173.941 C 199.032 174.783,200.574 174.627,202.993 173.355 L 206.286 171.622 207.051 179.240 C 207.705 185.749,207.452 187.593,205.314 191.912 M373.909 175.051 C 374.160 176.827,375.048 177.714,376.571 177.714 C 379.975 177.714,379.635 173.253,376.194 172.766 C 373.978 172.452,373.595 172.836,373.909 175.051 M150.000 182.551 C 147.329 182.792,142.957 182.792,140.286 182.551 C 137.614 182.310,139.800 182.114,145.143 182.114 C 150.486 182.114,152.671 182.310,150.000 182.551 M167.334 188.661 C 171.265 189.406,174.230 190.848,176.505 193.122 L 179.868 196.483 172.505 193.495 C 162.837 189.571,146.747 188.601,136.366 191.316 C 129.375 193.145,129.250 193.136,124.055 190.373 L 118.806 187.582 140.166 187.571 C 151.913 187.565,164.139 188.056,167.334 188.661 M110.263 195.465 C 109.819 196.183,109.994 197.308,110.651 197.966 C 112.187 199.502,115.768 198.162,115.143 196.285 C 114.507 194.375,111.273 193.831,110.263 195.465 M149.867 200.844 C 147.104 206.259,146.661 209.473,147.894 215.143 C 149.856 224.165,153.968 218.400,152.822 208.234 C 151.829 199.423,154.988 195.339,162.665 195.509 C 167.816 195.623,172.154 197.522,167.519 197.634 C 159.313 197.831,156.832 208.559,163.662 214.307 C 169.984 219.626,185.143 215.428,185.143 208.358 C 185.143 204.742,190.810 209.640,195.308 217.143 C 200.347 225.549,199.187 227.082,187.143 227.934 C 172.488 228.971,160.960 230.644,150.667 233.229 C 139.565 236.016,139.045 236.011,140.837 233.143 C 141.622 231.886,142.869 230.857,143.608 230.857 C 144.348 230.857,145.124 230.376,145.333 229.789 C 145.562 229.147,147.640 229.238,150.535 230.015 C 153.187 230.727,155.712 230.954,156.147 230.519 C 157.683 228.983,152.700 225.099,148.289 224.394 C 139.266 222.951,139.532 203.717,148.665 197.321 C 152.275 194.792,152.547 195.590,149.867 200.844 M243.341 198.387 C 246.718 201.229,246.857 201.702,246.857 210.320 C 246.857 219.667,248.084 222.400,250.366 218.136 C 252.039 215.010,251.070 205.975,248.538 201.077 C 246.007 196.184,248.759 197.052,252.288 202.261 C 258.996 212.161,258.692 221.765,251.511 226.808 C 248.728 228.763,246.242 230.988,245.987 231.753 C 245.341 233.690,250.466 233.527,253.207 231.523 C 254.770 230.380,255.843 230.253,256.854 231.092 C 257.901 231.961,258.286 231.782,258.286 230.426 C 258.286 229.406,258.800 228.571,259.429 228.571 C 260.057 228.571,260.571 229.431,260.571 230.481 C 260.571 231.532,261.423 233.332,262.463 234.481 C 265.043 237.333,264.291 237.289,240.435 233.195 C 229.675 231.348,216.922 229.479,212.095 229.041 L 203.318 228.246 204.083 224.695 C 205.181 219.588,207.553 215.358,212.205 210.209 L 216.281 205.698 218.140 209.339 C 222.823 218.508,235.004 220.957,241.237 213.982 C 245.195 209.552,245.610 204.467,242.286 201.143 C 237.955 196.812,228.571 199.280,228.571 204.749 C 228.571 207.223,231.787 207.599,232.696 205.231 C 234.255 201.168,240.000 202.557,240.000 206.997 C 240.000 213.681,230.507 215.825,225.055 210.374 C 218.804 204.123,222.120 199.344,234.857 196.249 C 239.064 195.227,239.807 195.414,243.341 198.387 M305.436 197.660 C 301.502 198.621,298.286 200.765,298.286 202.426 C 298.286 204.141,308.594 203.525,312.729 201.563 C 319.732 198.240,314.507 195.443,305.436 197.660 M180.571 204.379 C 180.571 211.745,166.769 215.457,165.037 208.557 C 163.817 203.694,165.156 202.077,169.699 202.930 C 174.001 203.737,175.154 201.966,172.286 198.960 C 171.500 198.137,173.043 198.558,175.714 199.897 C 178.714 201.401,180.571 203.115,180.571 204.379 M77.333 199.619 C 75.991 200.961,76.519 204.571,78.057 204.571 C 80.655 204.571,82.390 202.074,80.976 200.370 C 79.586 198.695,78.484 198.468,77.333 199.619 M83.429 202.773 C 83.429 203.833,84.406 204.571,85.810 204.571 C 88.595 204.571,88.201 201.901,85.334 201.345 C 84.206 201.126,83.429 201.709,83.429 202.773 M27.050 203.046 C 26.179 203.916,34.007 214.506,36.120 215.317 C 40.721 217.082,41.358 216.123,38.714 211.418 C 35.683 206.025,28.923 201.173,27.050 203.046 M202.240 206.772 C 202.936 208.073,203.028 210.027,202.464 211.550 C 201.553 214.015,201.453 213.962,200.198 210.361 C 198.391 205.180,199.936 202.466,202.240 206.772 M311.984 206.305 C 310.729 207.818,310.793 208.426,312.376 210.008 C 314.601 212.234,317.028 210.633,316.393 207.359 C 315.859 204.602,313.805 204.111,311.984 206.305 M45.714 207.483 C 45.714 207.828,47.129 209.400,48.857 210.976 C 51.668 213.541,51.739 213.771,49.525 213.161 C 46.655 212.370,44.852 214.452,46.757 216.357 C 47.695 217.295,48.606 217.315,50.029 216.427 C 51.148 215.728,52.988 215.583,54.286 216.089 C 57.960 217.525,61.961 217.315,61.434 215.714 C 60.100 211.666,45.714 204.134,45.714 207.483 M348.919 208.571 C 344.091 211.952,340.445 219.429,343.624 219.429 C 345.626 219.429,355.429 209.922,355.429 207.980 C 355.429 206.291,351.689 206.630,348.919 208.571 M365.514 211.125 C 362.051 214.837,360.000 218.550,360.000 221.108 C 360.000 223.572,364.146 221.536,367.709 217.321 C 369.760 214.894,370.275 214.686,370.280 216.286 C 370.287 218.696,374.331 219.021,375.228 216.683 C 376.004 214.660,375.074 213.714,372.309 213.714 C 370.741 213.714,370.241 213.033,370.500 211.249 C 371.029 207.597,368.855 207.543,365.514 211.125 M18.921 210.183 C 18.186 211.371,19.302 214.866,20.408 214.840 C 22.422 214.792,24.253 212.594,23.631 210.972 C 22.870 208.990,19.960 208.502,18.921 210.183 M11.863 211.945 C 11.044 214.080,12.240 216.000,14.389 216.000 C 16.724 216.000,17.823 212.561,15.881 211.331 C 13.608 209.892,12.591 210.048,11.863 211.945 M25.714 212.571 C 24.659 214.279,26.127 216.000,28.639 216.000 C 30.095 216.000,30.857 215.215,30.857 213.714 C 30.857 211.290,27.032 210.440,25.714 212.571 M377.512 214.401 C 376.538 216.940,379.581 218.622,381.564 216.640 C 382.424 215.780,382.779 214.513,382.353 213.824 C 381.204 211.964,378.315 212.308,377.512 214.401 M355.048 214.476 C 353.286 216.238,354.380 218.431,356.845 218.079 C 360.081 217.618,361.103 213.714,357.989 213.714 C 356.790 213.714,355.467 214.057,355.048 214.476 M15.361 217.253 C 14.153 219.207,17.964 222.493,19.572 220.885 C 20.289 220.168,20.566 218.776,20.188 217.791 C 19.397 215.730,16.501 215.407,15.361 217.253 M367.468 220.508 C 367.058 221.172,367.001 222.166,367.343 222.718 C 367.684 223.270,366.428 224.029,364.553 224.404 C 359.682 225.378,360.307 226.808,367.082 230.183 C 376.418 234.836,380.140 233.623,374.606 227.732 C 373.210 226.247,372.053 223.909,372.034 222.536 C 371.998 219.897,368.740 218.450,367.468 220.508 M375.075 221.429 C 375.287 222.529,376.474 223.429,377.714 223.429 C 378.954 223.429,380.142 222.529,380.354 221.429 C 380.642 219.931,379.980 219.429,377.714 219.429 C 375.449 219.429,374.786 219.931,375.075 221.429 M280.012 221.714 C 283.809 221.714,286.149 230.411,283.045 232.987 C 281.812 234.011,281.538 233.326,281.617 229.412 C 281.745 223.036,274.576 221.211,272.485 227.088 C 271.510 229.829,271.232 229.991,270.542 228.222 C 269.518 225.598,274.723 220.056,277.287 221.040 C 278.253 221.411,279.480 221.714,280.012 221.714 M316.571 222.735 C 316.571 223.296,315.800 224.051,314.857 224.413 C 313.813 224.814,313.143 224.415,313.143 223.393 C 313.143 222.470,313.914 221.714,314.857 221.714 C 315.800 221.714,316.571 222.174,316.571 222.735 M42.857 225.143 C 41.802 226.850,43.270 228.571,45.782 228.571 C 47.238 228.571,48.000 227.786,48.000 226.286 C 48.000 223.862,44.174 223.012,42.857 225.143 M51.904 227.174 C 47.781 230.814,44.073 236.454,45.116 237.497 C 47.018 239.399,58.075 228.756,58.248 224.857 C 58.327 223.071,55.297 224.177,51.904 227.174 M130.225 228.979 C 129.124 229.993,128.972 229.817,129.546 228.192 C 129.953 227.041,130.345 225.498,130.418 224.764 C 130.491 224.029,130.797 224.383,131.097 225.550 C 131.397 226.717,131.005 228.260,130.225 228.979 M72.762 225.905 C 71.189 227.478,72.083 229.714,74.286 229.714 C 75.810 229.714,76.571 228.952,76.571 227.429 C 76.571 225.226,74.335 224.332,72.762 225.905 M80.801 225.865 C 79.002 227.665,80.070 229.863,82.571 229.508 C 83.986 229.307,85.143 228.378,85.143 227.444 C 85.143 225.629,82.133 224.534,80.801 225.865 M321.647 226.395 C 320.639 228.026,323.974 231.361,325.605 230.353 C 326.294 229.928,326.857 228.581,326.857 227.361 C 326.857 224.934,322.993 224.217,321.647 226.395 M343.510 229.871 C 345.923 234.538,350.633 238.857,353.310 238.857 C 356.218 238.857,355.980 237.971,351.389 231.714 C 346.384 224.892,340.185 223.442,343.510 229.871 M352.886 226.923 C 351.543 228.267,353.510 232.000,355.562 232.000 C 357.096 232.000,357.714 231.179,357.714 229.143 C 357.714 226.459,354.725 225.085,352.886 226.923 M213.274 232.722 L 219.119 233.425 214.469 240.162 C 209.913 246.765,209.777 246.856,207.664 244.743 C 205.793 242.873,205.709 242.263,207.031 240.146 C 209.713 235.852,207.162 233.767,198.738 233.368 C 192.883 233.091,191.713 233.307,192.857 234.454 C 194.679 236.279,194.719 244.824,192.914 246.629 C 191.848 247.695,192.660 248.000,196.571 248.000 C 200.483 248.000,201.295 247.695,200.229 246.629 C 199.474 245.874,198.857 244.467,198.857 243.502 C 198.857 242.493,199.951 243.311,201.429 245.425 C 204.320 249.562,215.949 251.352,214.444 247.429 C 213.969 246.190,214.569 245.714,216.607 245.714 C 218.159 245.714,219.429 246.229,219.429 246.857 C 219.429 247.486,218.914 248.000,218.286 248.000 C 214.611 248.000,218.031 250.099,222.571 250.630 C 225.557 250.980,232.886 252.356,238.857 253.688 C 257.852 257.924,256.364 257.805,255.482 255.026 C 254.630 252.342,256.418 251.756,259.429 253.732 C 260.869 254.677,260.891 255.020,259.565 255.874 C 258.446 256.595,259.383 257.127,262.784 257.702 C 267.594 258.515,270.222 257.727,267.767 256.209 C 267.046 255.764,265.356 252.458,264.011 248.864 C 260.729 240.092,260.261 240.045,255.429 248.000 C 253.130 251.784,250.739 254.566,250.115 254.180 C 248.523 253.196,250.115 244.297,252.172 242.681 C 254.177 241.106,253.393 240.552,247.714 239.527 C 243.899 238.838,241.420 240.283,244.598 241.342 C 245.284 241.571,245.463 243.257,245.030 245.419 C 244.625 247.447,243.856 248.836,243.322 248.505 C 242.787 248.175,241.123 248.709,239.622 249.693 C 235.049 252.689,233.295 251.049,234.452 244.859 C 234.997 241.942,236.082 239.148,236.864 238.652 C 237.945 237.966,237.898 237.745,236.667 237.732 C 235.776 237.722,235.337 237.425,235.691 237.071 C 236.045 236.717,243.788 237.522,252.899 238.860 C 265.911 240.770,270.778 241.052,275.589 240.176 C 283.119 238.803,282.669 237.949,279.861 248.280 C 276.391 261.047,272.026 261.958,242.541 256.066 C 207.984 249.161,188.842 248.694,164.000 254.153 C 146.905 257.910,144.354 258.404,145.900 257.659 C 147.465 256.905,138.596 243.429,136.534 243.429 C 135.811 243.429,134.285 246.514,133.143 250.286 C 132.001 254.057,130.634 257.143,130.105 257.143 C 129.576 257.143,129.143 257.657,129.143 258.286 C 129.143 258.914,130.686 259.429,132.571 259.429 C 134.457 259.429,136.000 258.914,136.000 258.286 C 136.000 257.657,135.486 257.143,134.857 257.143 C 134.229 257.143,133.714 256.629,133.714 256.000 C 133.714 255.371,135.055 254.857,136.694 254.857 C 138.873 254.857,139.496 255.318,139.015 256.571 C 138.535 257.823,139.196 258.316,141.464 258.400 L 144.571 258.514 141.714 259.429 C 137.678 260.721,128.662 260.767,125.359 259.511 C 122.475 258.414,122.609 258.874,120.395 242.549 L 119.734 237.670 122.798 238.835 C 127.753 240.719,134.738 240.208,152.751 236.644 C 162.081 234.799,171.257 233.076,173.143 232.815 C 178.806 232.034,207.002 231.969,213.274 232.722 M78.286 234.859 C 71.923 237.109,64.324 245.818,68.857 245.666 C 72.433 245.546,84.571 236.813,84.571 234.359 C 84.571 232.821,83.899 232.875,78.286 234.859 M129.143 234.857 C 129.143 237.020,127.902 237.032,125.076 234.893 C 122.951 233.286,122.990 233.214,126.000 233.179 C 128.048 233.156,129.143 233.740,129.143 234.857 M179.714 233.980 C 175.445 234.364,174.857 234.755,174.857 237.209 C 174.857 240.298,176.528 240.965,177.556 238.286 C 178.765 235.134,180.264 236.523,180.918 241.401 C 181.284 244.125,181.039 246.865,180.357 247.687 C 179.408 248.831,180.281 249.143,184.431 249.143 C 189.593 249.143,191.424 247.758,188.000 246.444 C 186.814 245.989,186.286 244.137,186.286 240.430 C 186.286 235.141,186.314 235.100,188.578 237.149 C 191.294 239.606,192.156 239.127,191.250 235.664 C 190.561 233.029,190.449 233.013,179.714 233.980 M318.857 233.837 C 318.857 235.910,326.153 249.383,327.570 249.927 C 331.951 251.608,330.560 242.837,325.540 237.118 C 322.470 233.622,318.857 231.848,318.857 233.837 M231.429 235.429 L 234.857 236.301 231.647 236.436 C 229.817 236.513,228.741 237.064,229.145 237.718 C 230.358 239.681,228.432 249.143,226.819 249.143 C 225.998 249.143,224.439 246.443,223.354 243.143 C 222.269 239.843,221.144 236.500,220.854 235.714 C 220.262 234.109,225.669 233.963,231.429 235.429 M164.857 236.582 C 160.085 238.547,161.329 244.226,166.857 245.714 C 169.371 246.391,171.429 247.409,171.429 247.977 C 171.429 250.092,168.954 250.425,166.276 248.670 C 162.643 246.290,162.504 246.342,163.172 249.835 C 163.704 252.620,164.042 252.765,168.385 252.071 C 177.792 250.567,179.236 243.701,170.551 241.776 C 167.868 241.182,165.843 240.185,166.051 239.562 C 166.698 237.620,168.801 237.536,170.643 239.378 C 173.089 241.824,173.936 241.586,173.508 238.571 C 173.098 235.685,169.209 234.790,164.857 236.582 M202.286 237.714 C 202.286 238.984,201.524 240.000,200.571 240.000 C 198.832 240.000,198.227 237.582,199.619 236.190 C 201.068 234.742,202.286 235.437,202.286 237.714 M155.618 238.716 C 154.376 239.503,154.407 239.802,155.790 240.333 C 160.170 242.014,159.162 252.496,154.615 252.554 C 152.960 252.575,150.424 243.919,151.366 241.465 C 151.914 240.036,151.291 239.878,147.728 240.544 C 142.702 241.482,141.827 242.086,143.759 243.279 C 144.533 243.758,145.823 246.430,146.627 249.217 C 147.980 253.913,148.396 254.312,152.281 254.638 C 159.722 255.262,161.244 253.574,160.884 245.097 C 160.565 237.574,159.485 236.265,155.618 238.716 M315.048 239.619 C 313.494 241.173,314.356 243.429,316.504 243.429 C 319.356 243.429,320.761 241.184,318.718 239.890 C 316.806 238.679,316.044 238.623,315.048 239.619 M79.321 243.602 C 78.256 245.326,82.361 248.382,83.805 246.938 C 85.261 245.482,83.896 242.286,81.818 242.286 C 80.892 242.286,79.769 242.878,79.321 243.602 M86.857 245.647 C 86.857 248.528,88.817 249.693,90.839 248.015 C 92.920 246.288,91.786 243.429,89.021 243.429 C 87.641 243.429,86.857 244.232,86.857 245.647 M82.298 249.700 C 80.261 252.153,81.769 255.090,84.840 254.652 C 87.769 254.234,88.997 250.478,86.684 249.012 C 84.541 247.654,83.914 247.752,82.298 249.700 M88.857 253.926 C 81.393 260.247,81.834 263.954,89.627 260.403 C 92.328 259.172,95.538 252.777,94.663 250.368 C 94.456 249.796,91.843 251.397,88.857 253.926 M293.006 251.945 C 292.201 254.041,293.372 256.000,295.429 256.000 C 297.781 256.000,298.672 253.842,297.101 251.950 C 295.343 249.831,293.818 249.830,293.006 251.945 M100.198 255.714 C 101.097 261.874,104.221 267.935,106.737 268.401 C 109.664 268.944,108.725 261.225,105.163 255.461 C 101.768 249.968,99.377 250.090,100.198 255.714 M300.214 252.167 C 298.597 253.784,299.512 256.000,301.798 256.000 C 303.396 256.000,304.047 255.379,303.798 254.095 C 303.390 251.991,301.439 250.942,300.214 252.167 M202.727 257.508 C 203.157 259.118,202.713 260.507,201.472 261.433 C 198.805 263.423,197.322 261.532,198.247 257.321 C 199.112 253.381,201.652 253.487,202.727 257.508 M309.714 255.747 C 309.714 258.749,314.487 265.612,316.897 266.076 C 319.711 266.618,319.401 262.860,316.246 258.177 C 313.222 253.690,309.714 252.385,309.714 255.747 M191.960 260.408 C 191.790 263.492,188.948 265.935,186.571 265.041 C 183.355 263.831,183.308 262.329,186.417 260.151 C 188.665 258.576,192.052 258.733,191.960 260.408 M216.914 259.657 C 220.137 262.880,216.191 268.287,211.827 266.628 C 209.287 265.662,209.264 261.759,211.788 259.991 C 214.731 257.930,215.159 257.902,216.914 259.657 M304.801 259.008 C 302.842 260.967,304.021 264.156,306.571 263.794 C 308.252 263.555,309.143 262.643,309.143 261.159 C 309.143 258.892,306.317 257.492,304.801 259.008 M295.782 263.714 C 291.248 268.575,288.794 274.286,291.238 274.286 C 293.392 274.286,301.714 265.346,301.714 263.033 C 301.714 259.667,299.298 259.944,295.782 263.714 M305.692 266.322 C 305.248 267.040,305.423 268.165,306.080 268.823 C 307.616 270.359,311.197 269.019,310.572 267.142 C 309.936 265.232,306.702 264.688,305.692 266.322 M204.571 274.771 C 208.758 280.413,208.319 281.657,202.000 282.063 C 195.933 282.452,195.746 282.109,198.410 275.452 C 200.627 269.909,200.939 269.875,204.571 274.771 M164.000 280.000 C 162.743 280.540,160.943 280.982,160.000 280.982 C 158.919 280.982,159.131 280.619,160.571 280.000 C 161.829 279.460,163.629 279.018,164.571 279.018 C 165.652 279.018,165.441 279.381,164.000 280.000 M209.714 285.714 C 209.326 286.343,205.567 286.806,201.361 286.743 C 195.795 286.660,194.492 286.380,196.571 285.714 C 200.825 284.352,210.556 284.352,209.714 285.714 " stroke="none" fill="#000000" fill-rule="evenodd"></path></g></svg>