<?xml version="1.0" standalone="no"?>
<!DOCTYPE svg PUBLIC "-//W3C//DTD SVG 20010904//EN"
 "http://www.w3.org/TR/2001/REC-SVG-20010904/DTD/svg10.dtd">
<svg version="1.0" xmlns="http://www.w3.org/2000/svg"
 width="800.000000pt" height="800.000000pt" viewBox="0 0 800.000000 800.000000"
 preserveAspectRatio="xMidYMid meet">

<g transform="translate(0.000000,800.000000) scale(0.100000,-0.100000)"
fill="#000000" stroke="none">
<path d="M3780 7340 c-8 -5 -30 -10 -47 -10 -22 0 -33 -5 -33 -14 0 -11 -10
-13 -40 -9 -24 3 -40 2 -40 -4 0 -6 -23 -13 -52 -15 -33 -4 -56 -12 -64 -23
-7 -9 -17 -14 -22 -11 -5 3 -15 -1 -22 -9 -7 -8 -16 -13 -20 -10 -4 3 -13 -2
-20 -10 -7 -8 -16 -13 -20 -10 -4 2 -15 -4 -25 -15 -10 -11 -25 -20 -34 -20
-9 0 -27 -14 -40 -30 -13 -17 -31 -30 -40 -30 -9 0 -62 -46 -117 -102 -77 -79
-108 -119 -133 -171 -50 -106 -53 -118 -61 -332 -9 -226 -23 -291 -89 -424
-84 -165 -210 -297 -372 -384 -132 -72 -328 -114 -471 -102 -58 5 -78 4 -78
-5 0 -7 -6 -10 -14 -7 -8 3 -17 1 -20 -6 -2 -7 -5 -4 -5 6 -1 9 7 17 17 18 23
1 -26 17 -53 17 -16 0 -15 -2 5 -8 15 -5 18 -8 8 -9 -25 -1 -49 10 -42 20 4 8
-17 14 -38 10 -5 0 -8 4 -8 11 0 6 -3 9 -6 6 -15 -16 124 -201 168 -224 47
-24 302 -15 413 15 89 24 238 92 319 146 68 45 227 204 276 275 121 178 183
398 178 635 -4 148 12 203 84 298 205 274 592 398 924 296 205 -63 400 -214
481 -373 l25 -49 64 64 c35 35 64 71 64 80 0 28 -28 86 -45 92 -8 4 -15 13
-15 20 0 24 -185 204 -206 199 -5 -1 -20 7 -32 19 -12 11 -26 17 -32 14 -5 -3
-12 1 -17 8 -4 8 -21 22 -37 33 -32 20 -71 30 -61 14 3 -5 15 -10 26 -10 10 0
19 -4 19 -10 0 -5 7 -10 16 -10 8 0 13 -4 10 -9 -3 -5 8 -14 24 -21 16 -7 42
-23 57 -36 15 -12 31 -20 36 -17 6 3 7 1 4 -4 -8 -13 77 -85 88 -75 5 4 5 1 1
-6 -5 -7 9 -31 34 -60 51 -57 67 -89 53 -103 -7 -7 -26 9 -59 48 -150 178
-315 281 -530 335 -115 28 -323 30 -429 5 -38 -10 -79 -20 -90 -22 -11 -3 0 4
24 15 52 24 174 47 293 56 57 4 91 11 99 20 7 9 8 14 1 14 -6 0 -12 -4 -14 -8
-1 -4 -16 -5 -33 -1 -24 5 -26 7 -7 8 13 0 20 6 17 11 -8 13 -175 13 -195 0z
m113 -12 c-2 -5 -15 -8 -28 -8 -13 0 -26 3 -28 8 -3 4 10 7 28 7 18 0 31 -3
28 -7z m-824 -768 c-7 -197 -23 -307 -50 -334 -12 -13 -11 -9 2 34 6 19 14
127 19 240 4 119 13 219 20 238 7 18 13 32 14 30 2 -2 -1 -95 -5 -208z m-1001
-987 c-10 -2 -28 -2 -40 0 -13 2 -5 4 17 4 22 1 32 -1 23 -4z"/>
<path d="M4060 7310 c23 -9 23 -9 -7 -6 -18 1 -33 -1 -33 -6 0 -10 96 -9 130
2 21 7 19 8 -15 8 -22 0 -53 2 -70 6 -28 5 -28 5 -5 -4z"/>
<path d="M4215 7269 c4 -5 21 -9 40 -9 20 0 35 -6 39 -15 3 -8 10 -15 16 -15
6 0 3 8 -7 19 -19 19 -98 38 -88 20z"/>
<path d="M3842 6673 l3 -438 55 0 c51 0 55 2 54 23 0 12 -1 209 -2 437 l-2
415 -55 0 -55 0 2 -437z m68 42 c0 -230 -4 -355 -10 -355 -6 0 -10 125 -10
355 0 230 4 355 10 355 6 0 10 -125 10 -355z"/>
<path d="M3578 7022 c-14 -27 -17 -73 -18 -294 0 -148 -5 -268 -10 -277 -7
-10 -9 81 -7 266 2 250 0 282 -14 291 -36 23 -39 -2 -39 -338 l0 -326 55 -27
c31 -15 58 -27 60 -27 8 0 4 712 -4 740 l-7 25 -16 -33z"/>
<path d="M4197 7043 c-10 -9 -9 -753 1 -753 4 0 30 13 57 28 l50 27 3 324 c2
337 2 344 -39 334 -13 -4 -16 -10 -10 -22 4 -9 8 -34 7 -56 -1 -22 -3 -141 -4
-265 -2 -150 -6 -220 -12 -210 -6 9 -10 122 -10 269 0 275 -11 357 -43 324z"/>
<path d="M2348 6883 c7 -3 16 -2 19 1 4 3 -2 6 -13 5 -11 0 -14 -3 -6 -6z"/>
<path d="M2345 6843 c-104 -25 -112 -26 -95 -14 9 7 10 11 3 11 -6 0 -15 -5
-19 -11 -3 -6 -24 -9 -45 -7 -39 4 -54 -7 -21 -15 9 -2 6 -3 -7 -2 -14 2 -34
-1 -45 -5 -53 -21 -62 -24 -76 -25 -8 0 -14 -6 -13 -12 2 -7 -7 -15 -19 -18
-17 -6 -18 -9 -7 -17 11 -8 10 -8 -4 -4 -29 9 -82 -24 -160 -99 -23 -23 -53
-48 -67 -57 -80 -50 -211 -286 -254 -458 -35 -136 -38 -308 -8 -405 17 -56 60
-130 127 -220 81 -108 126 -195 162 -312 23 -78 26 -104 27 -238 0 -135 -3
-159 -27 -238 -52 -168 -126 -287 -255 -408 -81 -76 -199 -151 -280 -177 -37
-13 -42 -17 -26 -23 10 -3 57 -21 104 -39 47 -17 97 -34 112 -37 68 -13 324
211 421 367 58 94 99 193 126 303 29 119 30 356 1 472 -27 106 -66 205 -96
241 -17 21 -22 23 -17 9 6 -20 6 -20 -15 -1 -27 24 -42 13 -16 -11 10 -10 20
-27 21 -38 1 -11 11 -47 23 -80 43 -118 61 -292 41 -390 l-9 -40 -1 55 c-3
147 -44 330 -94 425 -12 22 -56 90 -98 150 -41 61 -87 133 -102 160 -59 111
-60 116 -54 253 3 70 11 147 19 171 13 40 14 30 10 -128 -3 -123 -1 -171 7
-171 6 0 11 -9 11 -20 0 -11 3 -20 8 -20 4 0 21 -29 37 -65 19 -40 35 -63 43
-60 7 3 10 0 7 -5 -10 -17 6 -34 17 -19 8 11 9 10 4 -3 -6 -19 57 -122 67
-111 6 6 11 -11 8 -29 0 -4 10 -2 24 4 20 9 22 14 13 25 -9 11 -13 12 -21 1
-6 -9 -7 -8 -3 5 8 25 -33 80 -50 66 -8 -7 -14 -6 -20 2 -4 8 -3 9 5 5 23 -14
22 23 -2 61 -66 104 -77 138 -77 231 0 598 573 1012 1137 822 48 -16 88 -28
88 -27 1 1 7 29 14 62 15 67 19 110 10 110 -3 0 -13 6 -22 14 -20 16 -51 7
-44 -13 10 -25 -19 -39 -45 -23 -34 22 -158 46 -283 56 -60 4 -98 9 -83 10 15
0 30 6 33 11 9 15 -79 11 -150 -7z m-535 -1345 c10 -21 10 -21 -3 -6 -8 10
-18 14 -22 10 -5 -4 -5 -1 -1 6 10 17 14 15 26 -10z"/>
<path d="M2208 6843 c7 -3 16 -2 19 1 4 3 -2 6 -13 5 -11 0 -14 -3 -6 -6z"/>
<path d="M5128 6810 c-56 -10 -148 -35 -203 -56 -52 -20 -116 -83 -233 -229
-103 -129 -112 -139 -187 -201 -46 -37 -70 -53 -161 -104 -47 -27 -170 -69
-249 -86 -92 -19 -292 -19 -388 1 -144 30 -277 89 -389 174 -62 46 -83 79
-113 173 l-22 69 -7 -117 c-8 -142 -8 -140 112 -230 347 -257 815 -273 1167
-41 107 71 144 107 268 260 67 82 131 161 142 174 27 33 173 80 291 95 114 14
245 0 361 -38 276 -90 481 -306 563 -596 14 -48 23 -117 27 -201 6 -128 6
-128 29 -123 13 4 51 9 84 13 46 4 65 11 75 27 17 24 20 120 6 193 -6 26 -15
75 -22 108 -6 33 -14 64 -17 70 -3 5 -7 22 -9 39 -2 16 -8 34 -13 41 -5 7 -7
15 -3 18 3 4 -2 9 -11 13 -9 3 -13 10 -11 15 6 8 -22 58 -39 70 -5 4 -6 11 -3
16 7 12 -29 44 -38 35 -4 -4 -5 -2 -4 3 8 28 -27 87 -81 138 -33 30 -60 53
-60 50 0 -3 -12 3 -27 12 -28 17 -28 17 3 -16 17 -19 40 -44 50 -56 13 -17 20
-19 27 -10 6 8 7 6 3 -6 -3 -11 2 -27 15 -40 26 -28 102 -170 120 -222 7 -22
16 -44 20 -50 16 -24 42 -177 43 -252 1 -113 -17 -111 -27 2 -11 125 -39 222
-102 350 -134 271 -387 457 -692 510 -91 16 -217 18 -295 5z"/>
<path d="M4880 6793 c-14 -3 -30 -9 -37 -15 -7 -5 -17 -7 -23 -3 -5 3 -10 2
-10 -4 0 -6 -11 -13 -25 -17 -29 -7 -66 -46 -167 -180 -114 -151 -217 -237
-363 -305 -33 -15 -52 -28 -43 -28 9 -1 20 4 23 10 4 6 13 8 20 5 8 -3 15 -1
17 4 5 14 78 42 78 30 0 -5 -7 -10 -16 -10 -9 0 -12 -5 -8 -12 4 -6 3 -8 -3
-5 -5 3 -22 -3 -39 -14 -16 -11 -45 -27 -64 -35 -19 -9 -43 -20 -52 -25 -10
-5 -24 -6 -33 -3 -8 3 -15 1 -15 -5 0 -6 -10 -12 -22 -12 -14 -1 -17 -3 -7 -6
8 -2 58 10 109 28 232 77 337 155 497 369 94 124 179 211 228 230 20 9 20 9 0
8 -11 0 -31 -3 -45 -5z m-485 -483 c-3 -5 -14 -10 -23 -9 -14 0 -13 2 3 9 27
11 27 11 20 0z"/>
<path d="M2363 6653 c-18 -2 -33 -7 -33 -10 0 -10 442 -613 449 -613 4 0 20
22 35 50 l27 50 -118 162 c-64 90 -133 184 -153 210 -19 25 -53 72 -74 102
-42 60 -43 60 -133 49z m57 -13 c0 -5 -5 -10 -11 -10 -5 0 -7 5 -4 10 3 6 8
10 11 10 2 0 4 -4 4 -10z m27 -9 c0 -10 20 -48 47 -83 115 -154 266 -367 266
-377 0 -6 -3 -11 -7 -10 -5 0 -81 101 -170 224 -120 167 -160 229 -156 244 7
26 22 28 20 2z"/>
<path d="M5324 6638 c-23 -26 -295 -399 -338 -465 l-27 -41 25 -51 c15 -28 30
-51 35 -51 9 0 408 545 430 588 7 13 11 25 9 27 -2 2 -28 6 -58 10 -50 6 -57
4 -76 -17z m66 2 c-19 -13 -30 -13 -30 0 0 6 10 10 23 10 18 0 19 -2 7 -10z
m-10 -28 c0 -5 -9 -17 -20 -27 -23 -21 -26 -14 -8 15 13 20 28 27 28 12z"/>
<path d="M2055 6513 c-22 -14 -41 -27 -43 -28 -2 -2 302 -425 469 -651 50 -67
52 -68 111 -18 l27 22 -30 39 c-62 77 -74 94 -232 313 -38 52 -72 94 -76 93
-4 -1 -8 4 -8 10 0 20 -104 158 -114 152 -5 -4 -6 0 -3 8 3 8 -2 19 -9 26 -12
9 -16 8 -20 -3 -6 -16 39 -82 54 -78 6 1 7 -2 4 -8 -9 -14 24 -52 38 -43 6 3
7 1 3 -5 -4 -6 7 -31 24 -54 17 -24 51 -71 76 -106 25 -34 49 -60 53 -57 5 2
8 -3 7 -13 0 -9 4 -16 11 -15 7 2 10 -3 7 -11 -3 -8 0 -17 7 -22 8 -5 10 -3 4
6 -5 9 -4 11 4 6 6 -4 9 -12 5 -18 -3 -5 5 -22 18 -36 14 -15 33 -41 43 -59
10 -18 21 -30 25 -28 3 2 7 -7 8 -21 4 -50 14 -63 -342 430 -97 134 -106 149
-91 169 6 9 16 13 20 9 5 -4 5 -1 1 6 -9 15 -5 16 -51 -15z m295 -328 c14 -19
14 -19 -2 -6 -10 7 -18 18 -18 24 0 6 1 8 3 6 1 -2 9 -13 17 -24z m124 -171
c3 -8 2 -12 -4 -9 -6 3 -10 10 -10 16 0 14 7 11 14 -7z"/>
<path d="M5684 6522 c-12 -9 -82 -100 -155 -202 -73 -102 -176 -244 -230 -316
-132 -179 -127 -165 -74 -203 l43 -31 239 327 c220 303 273 378 273 387 0 2
-12 11 -26 21 -15 9 -24 13 -21 7 5 -8 -113 -175 -146 -207 -16 -16 2 15 33
55 39 51 82 120 73 119 -22 -4 -25 2 -8 15 10 7 20 21 21 30 3 19 4 20 -22 -2z
m-184 -342 c-12 -16 -24 -30 -26 -30 -3 0 4 14 16 30 12 17 24 30 26 30 3 0
-4 -13 -16 -30z"/>
<path d="M4756 6404 l-78 -98 6 -50 c11 -101 83 -279 153 -383 33 -48 133
-155 212 -226 60 -54 178 -122 278 -162 216 -87 497 -87 736 0 133 48 224 49
335 4 298 -119 505 -389 540 -705 26 -227 -53 -491 -190 -640 l-39 -42 57 -31
c32 -17 73 -37 92 -43 34 -13 35 -12 76 33 102 113 193 338 215 528 12 102 8
210 -10 301 -15 71 -61 210 -70 210 -5 0 -9 9 -9 20 0 11 -4 20 -10 20 -5 0
-10 9 -10 20 0 11 -4 20 -10 20 -5 0 -10 7 -10 15 0 18 -18 51 -42 79 -10 11
-18 24 -18 28 0 10 -43 53 -138 140 -34 32 -62 63 -62 69 0 7 -3 9 -7 6 -3 -4
-12 1 -20 11 -8 9 -12 11 -8 5 3 -8 -6 -6 -24 5 -16 9 -28 19 -26 21 6 6 -44
31 -62 31 -16 0 -45 25 -37 32 3 3 -10 8 -27 12 -18 3 -34 4 -37 1 -3 -3 2 -5
12 -5 11 0 14 -4 10 -12 -5 -8 -2 -9 9 -5 9 3 20 0 24 -7 14 -22 55 -45 72
-39 9 4 13 3 9 -2 -9 -9 63 -66 75 -58 4 2 6 1 5 -4 -2 -5 25 -37 59 -71 69
-69 151 -179 193 -262 39 -78 102 -280 87 -280 -2 0 -14 33 -27 73 -129 411
-536 722 -862 657 -34 -6 -75 -18 -90 -26 -14 -7 -71 -25 -125 -40 -83 -22
-119 -26 -238 -26 -93 -1 -164 5 -213 16 -315 70 -575 294 -692 598 -48 124
-53 162 -31 238 l19 65 0 -85 c0 -92 22 -171 80 -287 64 -129 206 -289 247
-277 16 4 17 3 5 -5 -8 -5 -12 -12 -10 -14 46 -35 64 -46 71 -41 5 3 6 11 3
17 -4 7 -3 8 2 4 5 -5 9 -13 9 -19 0 -6 9 -16 20 -22 11 -6 22 -14 25 -17 3
-3 16 -12 30 -19 23 -12 24 -12 11 3 -17 21 -3 22 23 2 14 -11 16 -15 5 -15
-8 -1 1 -7 20 -15 38 -17 53 -19 31 -5 -13 9 -13 10 0 10 8 0 -18 17 -58 38
-274 141 -451 407 -479 721 l-8 84 -79 -99z m529 -702 c-3 -3 -11 0 -18 7 -9
10 -8 11 6 5 10 -3 15 -9 12 -12z"/>
<path d="M3280 6436 c0 -2 8 -10 18 -17 15 -13 16 -12 3 4 -13 16 -21 21 -21
13z"/>
<path d="M1814 6235 c-14 -25 -24 -51 -21 -58 3 -6 88 -124 189 -262 l184
-250 62 1 c34 1 65 3 68 6 5 6 -375 536 -419 586 -11 12 -24 22 -28 22 -5 0
-20 -20 -35 -45z m59 -14 c-2 -10 24 -56 64 -111 38 -52 112 -154 165 -227 53
-72 94 -134 91 -137 -11 -10 -30 13 -180 220 -140 193 -167 243 -155 282 7 20
21 -6 15 -27z"/>
<path d="M5918 6252 c-43 -47 -420 -573 -415 -578 3 -3 32 -8 64 -11 l58 -5
180 247 c99 136 184 255 189 266 10 21 -7 69 -33 93 -16 15 -20 14 -43 -12z
m32 -48 c0 -8 -12 -27 -26 -42 l-26 -27 21 38 c24 43 26 51 9 41 -7 -4 -8 -3
-4 5 9 14 26 5 26 -15z"/>
<path d="M4150 6230 c-9 -6 -10 -10 -3 -10 6 0 15 5 18 10 8 12 4 12 -15 0z"/>
<path d="M4108 6213 c7 -3 16 -2 19 1 4 3 -2 6 -13 5 -11 0 -14 -3 -6 -6z"/>
<path d="M4018 6153 c7 -3 16 -2 19 1 4 3 -2 6 -13 5 -11 0 -14 -3 -6 -6z"/>
<path d="M6145 5700 c-22 -5 -61 -17 -86 -28 -97 -42 -218 -65 -346 -66 -67
-1 -114 -4 -105 -8 9 -4 27 -7 40 -7 12 -1 22 -7 22 -13 0 -10 2 -10 9 0 6 10
19 11 47 6 l39 -8 -30 -7 c-29 -6 -29 -7 -4 -8 15 0 32 6 39 14 14 17 65 21
55 5 -3 -5 3 -10 14 -10 53 0 246 54 257 71 3 5 15 9 27 9 18 0 19 2 7 10 -13
8 -12 10 3 10 10 0 15 5 12 10 -4 6 2 6 17 0 16 -8 31 -8 48 0 23 9 22 10 -10
5 -34 -5 -34 -4 -7 6 15 6 35 8 45 4 9 -5 35 -9 57 -10 29 -2 34 0 20 5 -18 8
-17 9 6 9 15 1 40 -6 55 -14 16 -8 23 -15 15 -15 -8 0 -12 -2 -10 -5 8 -7 49
6 49 16 0 5 -11 9 -24 9 -14 0 -27 4 -31 9 -7 12 -173 12 -230 1z m-55 -40 c0
-5 -8 -10 -17 -10 -15 0 -16 2 -3 10 19 12 20 12 20 0z m-85 -42 c-9 -6 -19
-7 -22 -4 -4 3 -1 6 6 6 7 0 9 4 6 10 -4 6 1 7 11 3 15 -6 15 -7 -1 -15z
m-132 -35 c-7 -2 -19 -2 -25 0 -7 3 -2 5 12 5 14 0 19 -2 13 -5z"/>
<path d="M1437 5692 c-9 -2 -15 -8 -12 -13 4 -5 1 -9 -5 -9 -7 0 -5 -7 4 -16
22 -22 20 -44 -4 -44 -19 0 -26 24 -21 68 2 10 -7 11 -36 6 -52 -10 -103 -32
-103 -45 0 -5 -4 -8 -9 -5 -12 8 -122 -50 -143 -74 -9 -11 -22 -20 -30 -20 -7
0 -20 -9 -28 -20 -8 -11 -19 -20 -24 -20 -5 0 -52 -44 -105 -98 -185 -189
-281 -429 -281 -704 0 -224 77 -458 205 -620 80 -102 169 -157 335 -208 178
-55 297 -126 405 -242 107 -114 176 -236 217 -383 18 -66 22 -106 21 -225 0
-128 -3 -155 -26 -233 -29 -94 -72 -186 -118 -254 -16 -23 -29 -44 -29 -47 0
-5 105 27 145 44 11 5 43 16 72 25 51 16 51 16 82 93 57 142 71 219 71 387 0
129 -4 167 -25 251 -90 355 -363 636 -724 743 -55 17 -111 35 -123 42 -115 60
-223 227 -270 419 -29 116 -28 292 1 405 55 211 184 392 362 510 87 59 219
115 270 115 20 0 38 2 40 5 8 7 -69 162 -83 167 -7 2 -21 3 -31 0z m-673
-1084 c21 -180 169 -478 239 -478 16 0 18 -3 9 -9 -11 -6 -10 -10 5 -16 10 -4
23 -9 28 -11 25 -6 79 -33 67 -34 -7 0 -22 5 -33 10 -10 6 -19 8 -19 6 0 -9
57 -35 63 -29 9 9 137 -29 131 -38 -3 -5 3 -8 13 -7 37 3 54 -2 47 -13 -5 -8
1 -10 19 -5 24 6 47 -7 30 -17 -5 -2 -2 -2 5 -1 6 2 20 0 29 -3 15 -6 15 -7
-3 -15 -14 -6 -12 -7 10 -4 39 5 56 -2 56 -25 0 -18 10 -23 38 -20 6 1 12 -3
12 -9 0 -6 5 -8 11 -5 6 4 13 -2 16 -14 5 -18 8 -19 21 -9 12 10 14 10 8 1 -4
-8 -2 -13 4 -13 6 0 9 -4 6 -9 -6 -10 58 -63 68 -56 3 3 4 2 2 -1 -3 -3 27
-43 65 -88 79 -92 157 -239 189 -355 11 -41 18 -76 16 -78 -2 -2 -20 35 -39
82 -138 328 -359 529 -692 630 -121 37 -171 64 -231 127 -102 105 -181 280
-204 451 -12 95 -13 117 -1 117 4 0 12 -28 15 -62z m736 -692 c0 -3 -4 -8 -10
-11 -5 -3 -10 -1 -10 4 0 6 5 11 10 11 6 0 10 -2 10 -4z m131 -103 c13 -16 12
-17 -3 -4 -10 7 -18 15 -18 17 0 8 8 3 21 -13z"/>
<path d="M1138 4033 c7 -3 16 -2 19 1 4 3 -2 6 -13 5 -11 0 -14 -3 -6 -6z"/>
<path d="M1210 4010 c0 -5 5 -10 10 -10 6 0 10 5 10 10 0 6 -4 10 -10 10 -5 0
-10 -4 -10 -10z"/>
<path d="M6458 5663 c6 -2 9 -10 6 -15 -4 -7 -2 -8 5 -4 13 9 5 26 -12 25 -9
0 -8 -2 1 -6z"/>
<path d="M5412 5642 c-9 -6 -6 -12 13 -20 15 -7 25 -8 25 -2 0 6 8 10 18 11
14 0 14 2 -3 9 -26 11 -37 11 -53 2z m35 -8 c-3 -3 -12 -4 -19 -1 -8 3 -5 6 6
6 11 1 17 -2 13 -5z"/>
<path d="M5498 5623 c7 -3 16 -2 19 1 4 3 -2 6 -13 5 -11 0 -14 -3 -6 -6z"/>
<path d="M5460 5610 c0 -5 5 -10 10 -10 6 0 10 5 10 10 0 6 -4 10 -10 10 -5 0
-10 -4 -10 -10z"/>
<path d="M5548 5613 c7 -3 16 -2 19 1 4 3 -2 6 -13 5 -11 0 -14 -3 -6 -6z"/>
<path d="M6114 5457 c-25 -14 -143 -139 -162 -171 -11 -20 -12 -19 -6 7 8 34
-14 90 -32 83 -9 -3 -11 0 -7 12 6 15 5 15 -11 2 -25 -20 -63 -109 -92 -215
-21 -78 -24 -112 -24 -251 0 -138 4 -175 24 -257 45 -177 124 -315 260 -455
126 -130 217 -189 346 -226 52 -15 142 -50 200 -77 94 -45 110 -57 154 -112
62 -78 130 -218 157 -322 26 -103 29 -277 5 -388 -66 -304 -297 -555 -591
-641 -39 -12 -72 -24 -73 -29 -7 -18 54 -157 72 -165 27 -12 239 61 291 101
33 25 83 58 101 66 11 5 64 51 116 103 98 95 165 187 213 293 48 103 61 142
81 243 32 166 -1 501 -58 569 -6 7 -7 13 -3 13 5 0 1 8 -8 18 -10 10 -14 22
-11 25 7 6 -42 85 -60 98 -5 4 -6 11 -2 17 3 6 -6 20 -20 31 -15 12 -24 24
-21 27 3 3 -4 16 -15 30 -24 27 -96 79 -102 73 -2 -2 22 -40 53 -84 58 -81
118 -195 103 -195 -5 0 -15 12 -23 27 -29 57 -100 151 -143 191 -56 52 -112
80 -256 127 -213 69 -300 123 -430 262 -109 117 -188 260 -230 418 -24 93 -37
290 -22 350 9 34 10 24 11 -72 1 -66 9 -149 20 -205 20 -96 70 -240 96 -274 9
-10 29 -40 45 -65 16 -25 58 -76 91 -113 53 -58 66 -67 87 -61 22 5 24 4 12
-10 -11 -13 -10 -15 4 -9 13 5 15 2 9 -12 -6 -16 -5 -17 9 -4 15 14 11 21 -40
73 -78 80 -74 75 -119 142 -103 152 -147 302 -147 495 1 166 46 325 127 453
56 89 55 84 21 64z m-190 -261 c-3 -21 -9 -35 -11 -32 -3 3 -2 21 1 42 4 20
10 34 12 31 3 -3 2 -21 -2 -41z m681 -2703 c-11 -7 -23 -13 -28 -13 -4 0 -15
-7 -23 -15 -23 -22 -11 -19 67 20 39 19 73 35 76 35 19 0 -94 -77 -160 -110
-96 -47 -157 -62 -157 -36 0 9 -12 19 -27 23 -24 6 -15 11 72 39 55 19 96 34
90 34 -5 0 1 7 15 14 14 8 28 12 32 9 14 -8 49 8 42 19 -5 7 -2 8 6 3 10 -6 9
-11 -5 -22z"/>
<path d="M5920 5396 c0 -2 7 -7 16 -10 8 -3 12 -2 9 4 -6 10 -25 14 -25 6z"/>
<path d="M1104 5258 c-32 -29 -41 -44 -32 -49 7 -4 112 -39 233 -79 121 -39
280 -91 354 -115 l134 -44 -7 56 c-4 31 -11 62 -17 69 -13 16 -54 23 -71 13
-7 -5 -8 -9 -3 -9 6 0 11 -9 12 -21 2 -16 -2 -20 -15 -15 -9 3 -125 42 -256
86 -132 44 -244 84 -250 90 -5 5 -18 10 -28 10 -22 0 -23 13 -2 34 35 36 -10
13 -52 -26z"/>
<path d="M6648 5288 c26 -33 -3 -51 -175 -106 -90 -29 -204 -65 -252 -81 -75
-24 -91 -26 -106 -15 -16 12 -16 16 -4 30 13 16 12 16 -8 6 -12 -7 -30 -12
-41 -12 -29 0 -43 -23 -49 -84 l-6 -55 149 49 c82 27 228 74 324 105 96 31
192 64 213 73 l38 17 -48 45 c-26 25 -42 37 -35 28z"/>
<path d="M915 4949 c-9 -28 -15 -52 -14 -53 2 -2 105 -35 229 -75 124 -40 312
-101 417 -136 l193 -63 15 51 c8 28 15 52 15 53 0 1 -14 7 -31 13 -39 13 -84
4 -69 -14 5 -6 7 -14 4 -17 -10 -11 -652 209 -675 231 -26 24 -20 27 19 8 17
-9 37 -11 52 -6 22 6 22 7 5 10 -11 1 -29 1 -39 0 -11 -1 -17 2 -13 6 5 5 -74
43 -90 43 -1 0 -9 -23 -18 -51z"/>
<path d="M6793 4977 c-67 -22 -76 -31 -41 -40 26 -7 38 -1 38 19 0 8 5 14 10
14 6 0 10 -4 10 -10 0 -5 7 -7 16 -3 14 5 15 3 6 -13 -8 -15 -91 -46 -334
-124 -178 -57 -330 -106 -338 -108 -13 -4 -13 -3 0 10 8 8 103 43 210 78 107
35 197 65 200 67 2 2 -2 8 -10 13 -12 8 -10 10 8 10 13 0 20 -4 17 -10 -9 -15
1 -13 91 18 77 26 80 28 57 39 -18 9 -32 9 -51 2 -15 -6 -34 -12 -42 -14 -27
-6 -395 -127 -400 -132 -2 -2 2 -8 10 -13 8 -6 10 -10 4 -10 -5 0 -15 5 -21
11 -8 8 -26 6 -65 -9 -29 -10 -70 -22 -90 -26 -21 -4 -40 -11 -43 -16 -8 -14
16 -91 31 -97 7 -2 185 52 395 120 211 69 394 128 407 132 26 8 28 27 4 76
l-17 36 -62 -20z m-113 -67 c-19 -12 -37 -13 -44 -1 -4 5 2 7 13 4 10 -3 22 0
26 7 4 6 10 9 13 5 4 -3 0 -10 -8 -15z m-220 -60 c-8 -5 -22 -9 -30 -9 -10 0
-8 3 5 9 27 12 43 12 25 0z m-250 -85 c-7 -9 -15 -13 -19 -10 -3 3 1 10 9 15
21 14 24 12 10 -5z"/>
<path d="M1152 4916 c7 -8 15 -12 17 -11 5 6 -10 25 -20 25 -5 0 -4 -6 3 -14z"/>
<path d="M1093 4913 c9 -2 23 -2 30 0 6 3 -1 5 -18 5 -16 0 -22 -2 -12 -5z"/>
<path d="M1180 4890 c-8 -5 -10 -10 -5 -10 6 0 17 5 25 10 8 5 11 10 5 10 -5
0 -17 -5 -25 -10z"/>
<path d="M1258 4883 c-10 -2 -18 -9 -18 -14 0 -14 16 -11 30 6 7 8 11 14 9 14
-2 -1 -12 -3 -21 -6z"/>
<path d="M1318 4863 c7 -3 16 -2 19 1 4 3 -2 6 -13 5 -11 0 -14 -3 -6 -6z"/>
<path d="M1278 4853 c7 -3 16 -2 19 1 4 3 -2 6 -13 5 -11 0 -14 -3 -6 -6z"/>
<path d="M1381 4847 c19 -16 70 -34 75 -26 3 5 2 9 -3 8 -4 -1 -21 3 -36 9
-28 12 -45 16 -36 9z"/>
<path d="M1338 4833 c6 -2 18 -2 25 0 6 3 1 5 -13 5 -14 0 -19 -2 -12 -5z"/>
<path d="M1485 4810 c27 -12 43 -12 25 0 -8 5 -22 9 -30 9 -10 0 -8 -3 5 -9z"/>
<path d="M1480 4794 c0 -5 31 -18 70 -28 22 -6 22 -5 7 4 -21 14 -77 31 -77
24z"/>
<path d="M1590 4760 c-9 -6 -10 -10 -3 -10 6 0 15 5 18 10 8 12 4 12 -15 0z"/>
<path d="M1624 4755 c-20 -15 -11 -18 20 -6 11 4 15 10 9 14 -5 3 -19 0 -29
-8z"/>
<path d="M885 4587 c3 -34 7 -62 8 -63 44 -18 609 -194 623 -194 21 0 84 60
84 79 0 5 -18 13 -40 19 -22 5 -38 6 -35 2 3 -4 -9 -13 -26 -20 -28 -12 -48
-8 -242 55 -117 37 -238 79 -269 94 -57 25 -79 48 -59 61 6 3 -4 11 -21 18
l-30 11 7 -62z"/>
<path d="M6893 4624 c-7 -7 -13 -16 -13 -20 0 -27 -58 -53 -281 -125 l-248
-80 -39 20 c-33 17 -45 18 -78 10 -22 -6 -41 -13 -43 -15 -9 -9 74 -84 92 -84
10 0 153 44 318 97 l299 97 6 32 c3 17 4 42 2 56 -2 21 -5 24 -15 12z"/>
<path d="M6805 4610 c-13 -6 -15 -9 -5 -9 8 0 22 4 30 9 18 12 2 12 -25 0z"/>
<path d="M6750 4590 c-8 -5 -10 -10 -5 -10 6 0 17 5 25 10 8 5 11 10 5 10 -5
0 -17 -5 -25 -10z"/>
<path d="M6708 4573 c7 -3 16 -2 19 1 4 3 -2 6 -13 5 -11 0 -14 -3 -6 -6z"/>
<path d="M6610 4546 c0 -2 7 -7 16 -10 8 -3 12 -2 9 4 -6 10 -25 14 -25 6z"/>
<path d="M6578 4533 c7 -3 16 -2 19 1 4 3 -2 6 -13 5 -11 0 -14 -3 -6 -6z"/>
<path d="M6518 4513 c7 -3 16 -2 19 1 4 3 -2 6 -13 5 -11 0 -14 -3 -6 -6z"/>
<path d="M6435 4490 c-13 -6 -15 -9 -5 -9 8 0 22 4 30 9 18 12 2 12 -25 0z"/>
<path d="M6305 4450 c-13 -6 -15 -9 -5 -9 8 0 22 4 30 9 18 12 2 12 -25 0z"/>
<path d="M6285 4220 c-3 -6 1 -7 9 -4 18 7 21 14 7 14 -6 0 -13 -4 -16 -10z"/>
<path d="M6320 4216 c0 -2 7 -7 16 -10 8 -3 12 -2 9 4 -6 10 -25 14 -25 6z"/>
<path d="M6295 3932 c-119 -69 -253 -189 -331 -298 -76 -106 -137 -245 -169
-382 -20 -86 -20 -349 0 -435 33 -142 109 -303 202 -424 85 -111 105 -158 111
-256 21 -359 -221 -708 -574 -826 -196 -66 -402 -61 -587 14 -33 14 -64 22
-67 18 -4 -5 -13 -46 -20 -91 -12 -79 -12 -85 6 -103 22 -21 113 -56 189 -71
79 -16 301 -21 387 -8 249 36 509 196 668 410 147 198 223 477 191 695 -16
103 -49 174 -129 281 -83 110 -128 192 -163 295 -52 156 -57 338 -13 502 23
88 94 230 153 308 92 121 250 236 390 285 49 17 61 25 47 30 -23 9 -53 8 -141
-5 -38 -5 -75 -10 -81 -10 -6 -1 -38 -19 -72 -40 -73 -48 -72 -33 3 27 30 24
52 49 49 56 -5 13 22 14 76 4 14 -3 19 -3 12 -1 -7 3 -10 8 -7 13 3 5 -11 7
-30 6 -36 -3 -56 8 -33 17 7 3 2 6 -12 6 -14 0 -38 -8 -55 -17z m-181 -1498
c3 -8 2 -12 -4 -9 -6 3 -10 10 -10 16 0 14 7 11 14 -7z m-1182 -1153 c-1 -7 2
-10 7 -6 14 8 101 -15 101 -27 0 -5 4 -7 9 -4 17 11 72 -6 67 -21 -4 -10 -1
-11 12 -5 9 4 73 5 142 2 69 -4 103 -8 75 -10 -36 -2 -42 -4 -21 -7 43 -7 103
6 85 18 -10 6 -8 9 11 9 14 0 36 3 49 7 17 4 22 3 17 -5 -4 -7 -16 -12 -26
-12 -10 0 -21 -4 -24 -9 -3 -4 13 -5 37 -1 23 5 46 6 51 3 5 -4 6 -2 3 4 -4 6
5 10 21 9 15 0 38 3 52 8 22 7 23 7 10 -7 -8 -9 -55 -28 -105 -43 -154 -47
-404 -36 -531 23 -21 9 -37 27 -47 54 -11 28 -12 39 -4 36 7 -3 11 -10 9 -16z"/>
<path d="M924 3921 c11 -11 24 -21 30 -21 6 0 19 -7 29 -14 17 -13 15 -15 -17
-36 -36 -22 -62 -19 -52 6 3 8 1 14 -4 14 -6 0 -10 7 -10 15 0 37 -54 8 -84
-44 -6 -10 -29 -49 -50 -86 -160 -276 -169 -648 -23 -949 53 -110 102 -179
193 -270 158 -158 259 -216 499 -286 46 -14 211 6 295 35 140 48 229 65 342
65 313 0 575 -143 746 -409 73 -112 132 -297 132 -411 0 -27 4 -51 8 -54 5 -3
32 27 60 67 29 40 64 86 78 104 25 31 26 34 14 85 -29 122 -64 208 -130 323
-38 67 -229 265 -300 311 -254 165 -563 216 -810 134 -52 -18 -145 -43 -207
-56 l-111 -23 -72 20 c-337 93 -579 381 -620 737 -25 209 36 433 162 599 27
36 50 69 51 73 3 11 -108 78 -142 87 -26 6 -26 6 -7 -16z m-95 -988 c19 -40
38 -73 42 -73 5 0 8 -3 7 -7 -6 -16 42 -84 54 -77 7 4 8 3 4 -5 -5 -7 4 -27
19 -47 21 -28 30 -33 37 -23 6 10 7 6 3 -10 -6 -20 -4 -23 9 -18 10 4 15 3 12
-2 -3 -5 2 -15 11 -22 14 -12 16 -12 8 1 -8 13 -6 13 8 1 9 -7 14 -18 10 -24
-3 -5 -1 -7 4 -4 6 4 25 -6 42 -22 53 -49 168 -120 244 -151 122 -48 161 -55
244 -41 40 7 78 9 84 5 7 -4 9 -3 6 3 -10 16 40 25 63 13 11 -6 20 -13 20 -16
0 -3 -4 -3 -9 1 -5 3 -12 1 -16 -5 -4 -6 -11 -7 -17 -4 -5 4 -20 2 -31 -4 -20
-9 -127 -39 -167 -47 -8 -1 -23 -5 -32 -9 -38 -17 -251 69 -351 140 -76 55
-183 161 -230 229 -80 115 -148 290 -146 375 0 31 2 29 18 -25 9 -33 32 -93
50 -132z m1449 -432 c82 -16 231 -69 292 -103 76 -43 110 -70 104 -79 -3 -5 2
-6 10 -3 9 3 16 1 16 -5 0 -6 6 -11 13 -11 16 0 58 -42 61 -61 3 -22 48 -69
59 -62 6 3 7 1 3 -6 -9 -14 28 -63 39 -53 5 4 5 2 2 -4 -3 -6 7 -30 24 -55 34
-52 92 -186 87 -201 -2 -6 -10 4 -18 23 -8 19 -18 39 -23 44 -4 6 -30 44 -57
86 -98 151 -273 295 -443 365 -150 61 -445 106 -550 84 -31 -6 -59 -16 -62
-21 -4 -5 -14 -9 -23 -8 -11 0 -12 3 -4 6 21 8 13 21 -10 17 -13 -2 2 5 32 17
91 36 176 49 290 44 58 -2 129 -9 158 -14z m-502 -67 c18 -14 18 -14 -6 -3
-31 14 -36 19 -24 19 6 0 19 -7 30 -16z m1054 -235 c0 -5 -4 -9 -8 -9 -5 0 -9
7 -9 15 0 8 4 12 9 9 4 -3 8 -9 8 -15z"/>
<path d="M2727 2264 c6 -15 23 -19 23 -5 0 5 -7 11 -14 14 -10 4 -13 1 -9 -9z"/>
<path d="M1195 3531 c-329 -108 -312 -97 -314 -184 -1 -35 1 -38 22 -32 12 4
166 53 342 110 176 57 331 106 344 110 23 7 22 8 -20 51 -24 24 -50 44 -59 43
-8 0 -150 -44 -315 -98z m293 68 c-2 -3 3 -13 11 -22 12 -15 10 -17 -18 -17
-17 0 -31 3 -31 6 0 15 23 45 31 42 6 -2 9 -6 7 -9z"/>
<path d="M6231 3586 l-43 -44 34 -10 c18 -6 173 -56 343 -111 171 -54 320
-102 333 -106 22 -6 23 -5 17 32 -15 89 -16 93 -36 93 -11 0 -30 5 -41 11 -29
16 -47 -5 -19 -23 23 -14 28 -28 10 -28 -27 0 -501 161 -515 175 -14 14 -12
15 21 10 21 -2 47 -7 58 -11 20 -6 20 -6 4 10 -9 10 -22 14 -28 10 -8 -4 -9
-3 -5 4 10 16 -16 15 -33 0 -11 -11 -13 -10 -8 4 6 16 -10 28 -37 28 -6 0 -31
-20 -55 -44z"/>
<path d="M6470 3560 c-9 -6 -10 -10 -3 -10 6 0 15 5 18 10 8 12 4 12 -15 0z"/>
<path d="M6496 3552 c-3 -6 -3 -13 1 -15 20 -11 59 -15 71 -8 8 5 1 8 -18 8
-18 0 -35 5 -40 12 -5 9 -10 10 -14 3z"/>
<path d="M6580 3519 c-12 -8 -10 -9 9 -4 14 5 21 3 17 -3 -3 -5 3 -12 14 -15
26 -7 26 9 1 23 -24 12 -22 12 -41 -1z"/>
<path d="M6690 3489 c34 -35 92 -51 105 -29 4 6 -7 8 -27 5 -24 -4 -27 -3 -13
3 17 8 16 9 -10 15 -17 3 -39 9 -50 13 -18 7 -18 6 -5 -7z"/>
<path d="M6650 3486 c0 -2 7 -7 16 -10 8 -3 12 -2 9 4 -6 10 -25 14 -25 6z"/>
<path d="M1701 3313 c5 -28 -19 -63 -42 -63 -13 0 -18 4 -13 12 5 8 2 9 -9 5
-11 -4 -17 -1 -17 8 0 8 8 15 18 16 9 0 12 3 5 5 -6 3 -40 -7 -75 -21 -35 -15
-73 -28 -84 -30 -12 -2 -56 -15 -99 -29 -42 -14 -84 -26 -91 -26 -8 0 -14 -5
-14 -11 0 -6 8 -9 18 -6 147 48 185 60 232 75 30 9 60 19 65 22 6 3 2 -3 -8
-12 -11 -10 -25 -18 -32 -18 -8 0 -26 -5 -42 -12 -15 -6 -37 -13 -48 -14 -11
-1 -60 -16 -110 -33 -66 -23 -92 -28 -100 -19 -7 8 -5 9 10 4 14 -5 17 -4 9 4
-7 7 -52 -4 -155 -39 -79 -27 -161 -53 -181 -56 -21 -4 -38 -10 -38 -14 0 -18
33 -101 39 -101 5 0 52 15 107 34 54 18 236 78 404 131 168 54 308 101 313
105 4 3 0 27 -9 53 -12 35 -21 47 -36 47 -13 0 -18 -6 -17 -17z m-451 -163 c0
-5 -11 -10 -24 -10 -14 0 -28 -4 -31 -10 -3 -5 -13 -10 -22 -10 -22 0 -8 13
30 27 41 15 47 15 47 3z m-130 -42 c-14 -6 -40 -17 -58 -25 -18 -8 -38 -12
-45 -10 -7 3 2 8 18 12 17 4 35 11 40 15 10 8 42 17 60 18 6 0 -1 -4 -15 -10z"/>
<path d="M6051 3303 c-25 -64 -21 -75 39 -94 30 -9 216 -69 412 -133 196 -64
358 -116 361 -116 10 0 28 93 19 102 -13 13 -62 -2 -62 -19 0 -17 35 -27 -366
103 -325 105 -339 112 -342 158 0 11 -23 26 -38 26 -6 0 -17 -12 -23 -27z"/>
<path d="M1749 2970 c-9 -5 -81 -29 -160 -54 -79 -25 -231 -74 -337 -108
l-194 -63 41 -43 c45 -47 51 -48 112 -26 24 8 157 51 294 95 138 45 255 86
262 92 6 7 15 36 19 65 7 55 -1 63 -37 42z m-33 -42 c4 -6 -3 -19 -16 -30 -24
-20 -37 -18 -24 4 5 7 9 16 10 21 3 15 4 17 13 17 6 0 13 -5 17 -12z"/>
<path d="M6014 2923 c4 -32 12 -60 18 -64 6 -4 90 -33 187 -64 97 -31 233 -75
303 -98 l128 -41 40 39 c22 21 40 42 40 45 0 4 -42 21 -92 38 -265 88 -440
143 -444 139 -3 -3 7 -8 23 -11 18 -5 23 -10 14 -15 -10 -6 -9 -10 4 -14 10
-5 14 -3 9 5 -9 14 44 2 65 -15 8 -7 22 -11 31 -9 9 1 27 -2 41 -8 21 -9 20
-10 -11 -5 -28 4 -31 2 -17 -6 10 -6 32 -8 50 -4 21 4 27 3 19 -3 -11 -7 -6
-12 19 -21 40 -14 42 -14 33 1 -5 8 -2 9 10 5 10 -4 21 -7 24 -7 4 0 1 -4 -7
-9 -10 -7 -7 -9 12 -10 73 -3 76 -3 70 -18 -5 -12 2 -13 33 -9 31 5 35 4 19
-4 -17 -9 -15 -9 10 -5 l30 6 -29 -20 c-33 -22 -1 -30 -320 74 -191 62 -246
87 -246 115 0 6 10 10 23 10 14 1 4 8 -28 20 -27 11 -54 20 -59 20 -5 0 -6
-25 -2 -57z m443 -99 c-3 -3 -12 -4 -19 -1 -8 3 -5 6 6 6 11 1 17 -2 13 -5z"/>
<path d="M6126 2924 c-4 -10 -1 -14 6 -12 15 5 23 28 10 28 -5 0 -13 -7 -16
-16z"/>
<path d="M6178 2893 c6 -2 18 -2 25 0 6 3 1 5 -13 5 -14 0 -19 -2 -12 -5z"/>
<path d="M5522 2525 c-157 -29 -301 -88 -417 -170 -91 -65 -244 -229 -297
-321 -91 -154 -138 -322 -139 -496 0 -57 -4 -142 -8 -191 -7 -82 -11 -91 -55
-156 -262 -385 -797 -486 -1185 -226 -82 55 -196 170 -240 242 l-33 53 -64
-53 c-74 -60 -84 -84 -58 -134 27 -51 187 -217 258 -267 126 -90 302 -163 447
-186 111 -18 324 -9 420 18 113 32 189 62 189 74 0 5 9 8 20 8 11 0 20 5 20
10 0 6 7 10 15 10 29 0 160 99 242 182 157 161 189 243 203 528 12 242 56 383
164 533 223 310 598 437 975 331 21 -6 18 0 -25 58 -27 37 -57 81 -67 99 -18
32 -19 33 -33 14 -16 -22 -19 -39 -4 -30 5 3 8 0 5 -7 -4 -10 -42 -13 -158
-14 -158 0 -238 -14 -377 -65 l-54 -20 18 20 c27 29 6 26 -58 -10 -31 -16 -56
-26 -56 -21 0 5 9 12 21 15 12 3 18 10 14 16 -3 6 -1 11 5 11 6 0 18 7 27 15
8 9 28 19 44 22 16 3 29 9 29 13 0 10 98 43 195 66 41 10 124 18 200 20 149 4
150 4 110 14 -48 12 -213 9 -293 -5z m-2373 -1333 c5 -9 7 -30 4 -45 -3 -16
-1 -27 6 -27 6 0 11 -6 11 -13 0 -19 35 -49 45 -40 4 5 5 3 2 -3 -9 -16 71
-87 89 -80 8 3 17 -1 20 -9 4 -8 10 -15 16 -15 5 0 24 -11 41 -24 47 -36 153
-90 222 -113 128 -44 211 -56 334 -49 126 7 148 9 171 19 33 13 97 27 125 26
l30 0 -25 -11 c-14 -6 -39 -17 -57 -24 -17 -8 -35 -14 -41 -14 -5 0 -12 -7
-15 -14 -15 -38 -197 -64 -335 -47 -250 31 -450 140 -623 341 -74 86 -85 113
-61 143 19 22 29 22 41 -1z m142 -189 c13 -16 12 -17 -3 -4 -17 13 -22 21 -14
21 2 0 10 -8 17 -17z m1023 -152 c4 -5 -4 -7 -16 -3 -17 4 -20 2 -15 -13 6
-13 3 -16 -9 -11 -8 3 -21 6 -27 6 -14 0 33 28 50 29 6 1 14 -3 17 -8z"/>
<path d="M5366 2421 c-4 -5 3 -7 14 -4 23 6 26 13 6 13 -8 0 -17 -4 -20 -9z"/>
<path d="M2145 2263 c-16 -21 -72 -96 -124 -168 -52 -71 -125 -172 -163 -224
-50 -69 -67 -99 -62 -114 9 -30 45 -87 54 -87 7 0 59 69 271 360 26 36 77 105
113 155 73 99 73 102 -11 111 -46 5 -49 4 -78 -33z m71 -1 c7 -5 3 -15 -12
-32 -19 -20 -24 -21 -24 -8 0 9 -5 20 -12 24 -6 4 -8 3 -5 -3 3 -5 0 -10 -8
-10 -10 0 -11 5 -4 19 10 18 45 24 65 10z"/>
<path d="M5532 2289 c-27 -8 -31 -13 -22 -27 25 -43 426 -586 435 -589 10 -3
55 76 55 97 0 14 -161 235 -170 233 -4 -1 -7 3 -7 10 0 7 -30 54 -68 105 -61
82 -70 91 -83 78 -13 -13 -13 -18 -2 -33 7 -10 -13 8 -44 40 -31 33 -56 61
-56 64 0 2 15 3 33 1 24 -2 31 -7 29 -20 -2 -10 2 -27 9 -39 10 -19 13 -20 26
-6 14 14 13 19 -13 56 -31 44 -54 49 -122 30z m184 -184 c15 -20 25 -38 22
-40 -3 -3 -17 13 -32 35 -33 49 -27 52 10 5z m48 -71 c3 -8 2 -12 -4 -9 -6 3
-10 10 -10 16 0 14 7 11 14 -7z m26 -34 c0 -5 -2 -10 -4 -10 -3 0 -8 5 -11 10
-3 6 -1 10 4 10 6 0 11 -4 11 -10z m65 -88 c-3 -3 -11 0 -18 7 -9 10 -8 11 6
5 10 -3 15 -9 12 -12z"/>
<path d="M1590 2216 c-71 -11 -76 -13 -92 -46 -22 -43 -22 -95 -3 -223 35
-233 125 -413 291 -580 107 -107 173 -153 307 -217 152 -71 204 -82 402 -86
146 -3 184 -1 268 18 53 12 97 25 97 30 0 4 9 8 20 8 11 0 20 5 20 10 0 6 9
10 20 10 11 0 20 5 20 10 0 6 9 10 20 10 11 0 20 3 20 8 0 4 16 16 36 27 40
21 94 82 147 167 108 169 302 312 499 368 106 31 289 38 398 16 208 -42 397
-157 527 -320 l31 -38 7 66 c4 36 6 97 3 135 -4 69 -5 71 -47 108 -220 190
-519 287 -782 254 -185 -23 -342 -81 -492 -183 -81 -55 -206 -183 -268 -274
-27 -40 -66 -90 -86 -110 -127 -124 -427 -161 -673 -82 -357 115 -606 470
-588 836 5 80 3 92 -11 91 -9 -1 -50 -7 -91 -13z m31 -59 c-5 -23 -13 -33 -29
-35 -20 -3 -22 0 -16 25 9 38 10 38 32 40 16 1 18 -3 13 -30z m2464 -250 c84
-12 106 -18 99 -29 -4 -7 -3 -8 4 -4 7 4 18 4 25 -1 13 -8 18 -10 42 -12 8 0
15 -9 15 -18 0 -13 2 -15 8 -5 9 14 42 6 42 -10 0 -5 -5 -6 -12 -2 -7 4 -8 3
-4 -5 4 -6 11 -9 16 -6 5 3 11 1 14 -4 3 -5 14 -7 24 -4 16 4 47 -20 47 -36 0
-3 3 -5 8 -3 4 1 7 -2 7 -8 0 -5 8 -10 18 -10 9 0 23 -9 30 -20 7 -12 18 -18
24 -14 7 4 8 3 4 -5 -4 -7 4 -18 22 -28 40 -23 58 -51 37 -59 -9 -4 -36 11
-67 36 -77 61 -256 144 -368 171 -75 18 -127 22 -248 23 -124 1 -149 3 -135
14 9 6 26 12 37 13 21 0 21 0 1 10 -15 7 -9 8 20 4 22 -3 35 -2 28 2 -6 5 39
8 100 7 109 -1 110 -1 32 6 l-80 7 85 -2 c47 -2 103 -5 125 -8z m-385 -22 c0
-1 -12 -2 -26 -2 -17 0 -22 2 -13 7 10 7 39 3 39 -5z m-1981 -223 c22 -37 63
-93 90 -123 64 -72 187 -173 201 -164 6 4 9 1 8 -7 -2 -7 7 -14 20 -16 12 -2
20 -8 16 -13 -3 -6 0 -9 7 -8 22 3 50 -12 42 -24 -3 -6 -1 -7 6 -3 6 4 17 3
24 -2 7 -5 25 -12 41 -16 24 -6 27 -9 15 -18 -12 -8 -11 -9 3 -5 14 5 87 -12
128 -30 8 -3 35 -8 59 -10 24 -2 51 -7 59 -12 9 -5 41 -8 72 -6 49 3 51 3 15
-4 l-40 -8 40 -3 c22 -1 32 -4 21 -7 -15 -4 -16 -7 -5 -14 29 -18 -145 -13
-226 7 -273 68 -498 241 -614 471 -29 58 -37 83 -27 83 2 0 22 -31 45 -68z"/>
<path d="M2512 2168 c-27 -35 -502 -689 -502 -693 0 -2 20 -18 44 -34 l44 -31
30 38 c74 95 482 663 482 672 0 9 -68 60 -81 60 -4 0 -11 -6 -17 -12z m28 -67
c0 -5 -7 -14 -15 -21 -12 -10 -15 -10 -15 2 0 8 3 18 7 21 9 10 23 9 23 -2z"/>
<path d="M5221 2150 l-42 -31 23 -32 c14 -18 121 -165 238 -327 118 -162 224
-307 236 -322 l22 -27 41 29 c23 17 41 33 41 36 0 5 -55 82 -361 503 -58 80
-110 144 -115 141 -5 -3 -11 8 -14 24 -7 40 -20 41 -69 6z m74 -57 c21 -50 14
-64 -12 -23 -12 18 -19 39 -16 47 8 20 11 17 28 -24z m66 -110 c13 -16 12 -17
-3 -4 -10 7 -18 15 -18 17 0 8 8 3 21 -13z"/>
<path d="M2703 1833 c-38 -54 -130 -181 -205 -283 -74 -102 -143 -197 -152
-212 l-18 -27 34 -5 c96 -16 73 -37 284 253 l192 264 -26 54 c-14 29 -29 53
-33 53 -3 0 -37 -44 -76 -97z m72 23 c-2 -6 -6 -23 -9 -38 -9 -40 -24 -34 -24
10 0 42 16 71 29 51 4 -7 6 -17 4 -23z"/>
<path d="M4988 1876 l-27 -55 26 -38 c14 -21 100 -141 191 -266 182 -251 157
-230 252 -211 17 3 30 9 30 14 0 8 -78 118 -234 330 -42 58 -105 144 -138 193
-34 48 -65 87 -68 87 -3 0 -18 -24 -32 -54z m76 -41 c-3 -7 2 -30 12 -50 13
-27 19 -33 26 -23 7 9 8 8 4 -6 -5 -13 2 -28 20 -48 15 -15 25 -30 22 -33 -7
-8 -108 124 -108 141 0 8 1 16 3 17 1 2 -4 11 -11 20 -8 9 -10 22 -6 28 10 16
45 -27 38 -46z m111 -195 c10 -11 16 -20 13 -20 -3 0 -13 9 -23 20 -10 11 -16
20 -13 20 3 0 13 -9 23 -20z m33 -55 c-3 -3 -9 2 -12 12 -6 14 -5 15 5 6 7 -7
10 -15 7 -18z m51 -65 l23 -35 -26 30 c-14 17 -26 34 -26 39 0 11 0 11 29 -34z"/>
<path d="M3840 1280 l0 -440 55 0 55 0 2 440 3 440 -57 0 -58 0 0 -440z m80
393 c0 -28 -12 -63 -20 -63 -9 0 -20 61 -13 73 8 14 33 7 33 -10z"/>
<path d="M3538 1634 l-48 -24 0 -331 0 -330 53 -23 52 -24 8 27 c4 14 7 185 7
379 -1 268 -4 352 -13 352 -7 -1 -33 -12 -59 -26z m29 -59 c-6 -19 -15 -35
-20 -35 -5 0 -7 6 -4 13 20 47 20 47 1 41 -16 -5 -16 -4 -4 5 30 21 39 13 27
-24z"/>
<path d="M4190 1296 c0 -200 3 -371 6 -380 5 -13 14 -11 60 12 l54 26 0 328 0
328 -50 25 c-27 14 -54 25 -60 25 -7 0 -10 -120 -10 -364z m74 299 c18 -14 18
-15 2 -15 -13 0 -16 -5 -11 -20 4 -11 2 -20 -4 -20 -12 0 -13 3 -16 43 -2 31
2 32 29 12z"/>
</g>
</svg>
