<svg id="svg" version="1.1" xmlns="http://www.w3.org/2000/svg" xmlns:xlink="http://www.w3.org/1999/xlink" width="400" height="398.2222222222222" viewBox="0, 0, 400,398.2222222222222"><g id="svgg"><path id="path0" d="M0.000 0.996 C 0.000 2.110,0.566 2.280,1.423 1.423 C 2.280 0.566,2.110 0.000,0.996 0.000 C 0.199 0.000,0.000 0.199,0.000 0.996 M101.417 124.298 C 97.923 124.707,94.687 125.214,94.225 125.425 C 93.764 125.635,92.319 126.024,91.016 126.290 C 87.873 126.930,79.586 129.820,77.965 130.841 C 77.485 131.144,76.643 131.523,76.096 131.684 C 75.548 131.845,74.624 132.312,74.042 132.722 C 73.460 133.131,72.735 133.466,72.430 133.466 C 72.125 133.466,71.525 133.737,71.097 134.068 C 70.669 134.400,69.422 135.231,68.327 135.916 C 65.940 137.409,62.827 139.514,62.550 139.822 C 62.440 139.944,61.365 140.786,60.159 141.693 C 55.720 145.033,45.600 155.673,44.489 158.167 C 44.343 158.496,43.596 159.572,42.830 160.558 C 42.064 161.544,41.258 162.799,41.038 163.347 C 40.818 163.894,40.465 164.612,40.253 164.940 C 36.897 170.157,32.728 181.957,31.878 188.645 C 31.628 190.618,31.240 193.665,31.017 195.418 C 30.423 200.075,31.277 210.548,32.707 216.135 C 32.932 217.012,33.359 218.676,33.656 219.833 C 34.628 223.614,39.472 234.670,40.298 234.993 C 40.485 235.066,40.637 235.344,40.637 235.611 C 40.637 235.878,41.399 237.231,42.331 238.617 C 43.262 240.004,44.203 241.431,44.422 241.790 C 46.572 245.311,53.675 252.810,58.825 256.996 C 64.273 261.425,64.700 261.742,65.219 261.748 C 65.482 261.751,65.841 261.998,66.016 262.297 C 66.191 262.596,66.873 263.138,67.530 263.502 C 68.187 263.866,69.442 264.611,70.319 265.157 C 71.195 265.703,72.361 266.325,72.908 266.541 C 73.456 266.756,74.173 267.112,74.502 267.333 C 74.831 267.554,75.548 267.935,76.096 268.179 C 76.643 268.423,77.991 269.049,79.089 269.570 C 80.188 270.092,81.358 270.518,81.690 270.518 C 82.022 270.518,82.674 270.785,83.140 271.112 C 83.607 271.438,84.915 271.904,86.049 272.147 C 87.182 272.390,88.589 272.839,89.174 273.145 C 89.760 273.450,90.742 273.701,91.357 273.703 C 92.726 273.706,96.055 274.493,96.650 274.954 C 98.452 276.352,124.522 276.165,127.956 274.731 C 128.705 274.418,130.475 274.034,131.890 273.878 C 133.305 273.722,134.910 273.418,135.458 273.204 C 136.006 272.989,137.620 272.487,139.044 272.087 C 143.240 270.910,145.785 269.936,149.801 267.968 C 157.076 264.403,159.089 263.008,158.687 261.812 C 158.393 260.936,156.214 256.133,155.768 255.378 C 155.574 255.050,153.872 251.692,151.987 247.917 C 150.101 244.142,148.404 240.958,148.214 240.841 C 148.025 240.724,147.744 240.055,147.590 239.354 C 147.436 238.653,147.012 237.624,146.647 237.068 C 146.282 236.511,145.790 235.697,145.554 235.259 C 145.013 234.258,143.725 234.392,141.833 235.648 C 141.066 236.157,140.051 236.688,139.578 236.828 C 139.105 236.968,138.500 237.345,138.234 237.665 C 137.968 237.985,137.459 238.249,137.103 238.251 C 136.746 238.253,135.558 238.695,134.462 239.234 C 133.367 239.773,132.247 240.220,131.974 240.227 C 131.701 240.233,130.446 240.590,129.185 241.020 C 125.416 242.303,116.912 243.088,111.753 242.629 C 105.280 242.054,101.801 241.572,100.953 241.133 C 100.539 240.918,99.482 240.616,98.606 240.461 C 97.729 240.307,96.116 239.764,95.020 239.255 C 87.309 235.673,87.540 235.809,83.070 232.222 C 78.595 228.630,75.136 224.536,73.013 220.319 C 72.627 219.552,72.101 218.702,71.845 218.430 C 71.589 218.159,71.252 217.355,71.096 216.643 C 70.940 215.932,70.579 214.989,70.295 214.548 C 67.058 209.522,67.076 190.300,70.323 185.066 C 70.597 184.624,70.946 183.725,71.099 183.068 C 71.252 182.410,71.602 181.604,71.877 181.275 C 72.152 180.946,72.970 179.602,73.695 178.287 C 75.667 174.711,80.886 168.758,83.824 166.732 C 85.927 165.283,87.038 164.573,88.247 163.908 C 88.904 163.547,89.711 163.026,90.040 162.751 C 90.369 162.477,91.350 162.023,92.220 161.743 C 93.091 161.463,94.045 160.992,94.340 160.697 C 94.636 160.401,95.217 160.159,95.631 160.159 C 96.046 160.159,97.243 159.823,98.292 159.413 C 102.685 157.693,115.305 156.205,119.522 156.909 C 129.172 158.520,135.551 160.375,139.044 162.586 C 139.373 162.794,140.194 163.219,140.868 163.531 C 141.543 163.842,142.327 164.377,142.610 164.718 C 143.608 165.920,145.230 165.495,145.942 163.845 C 146.296 163.023,146.759 162.082,146.970 161.753 C 147.181 161.424,149.195 157.390,151.446 152.789 C 153.697 148.187,155.647 144.333,155.780 144.223 C 155.913 144.114,156.265 143.396,156.562 142.629 C 156.860 141.863,157.319 140.966,157.582 140.637 C 158.329 139.704,158.626 137.909,158.173 137.062 C 157.743 136.260,153.803 133.466,153.100 133.466 C 152.878 133.466,152.255 133.119,151.716 132.694 C 151.176 132.269,150.210 131.797,149.570 131.644 C 148.930 131.492,148.106 131.106,147.738 130.788 C 147.371 130.469,146.474 130.055,145.746 129.867 C 144.328 129.501,140.134 128.103,137.849 127.234 C 137.082 126.943,135.218 126.515,133.707 126.284 C 132.196 126.052,130.623 125.682,130.211 125.462 C 129.322 124.986,118.364 123.920,112.151 123.705 C 109.429 123.611,105.363 123.836,101.417 124.298 M322.172 124.332 C 319.138 124.736,316.448 125.230,316.196 125.429 C 315.944 125.629,314.751 126.022,313.546 126.302 C 312.341 126.582,310.010 127.502,308.367 128.345 C 306.723 129.189,305.182 129.879,304.942 129.880 C 304.702 129.880,304.186 130.234,303.794 130.667 C 303.403 131.100,302.702 131.573,302.238 131.718 C 301.774 131.863,300.924 132.360,300.349 132.823 C 299.774 133.286,298.821 134.013,298.232 134.437 C 297.643 134.862,296.769 135.553,296.290 135.972 C 295.810 136.392,295.149 136.941,294.820 137.192 C 292.944 138.627,287.459 145.961,286.252 148.650 C 285.918 149.392,285.475 150.269,285.266 150.598 C 284.462 151.864,282.820 156.616,282.488 158.638 C 282.296 159.803,281.934 161.570,281.682 162.563 C 280.314 167.957,282.228 179.592,285.284 184.462 C 285.491 184.791,285.835 185.466,286.049 185.962 C 286.798 187.694,293.315 196.003,293.944 196.027 C 294.098 196.032,294.965 196.705,295.871 197.521 C 298.190 199.609,299.303 200.536,300.043 200.996 C 300.395 201.215,301.454 201.907,302.396 202.534 C 303.916 203.546,305.637 204.531,308.167 205.838 C 308.606 206.065,309.412 206.490,309.960 206.784 C 310.508 207.078,311.494 207.565,312.151 207.867 C 312.809 208.170,313.616 208.586,313.944 208.793 C 314.273 209.000,314.990 209.365,315.538 209.604 C 319.972 211.537,329.268 216.046,329.486 216.369 C 329.598 216.535,330.173 216.791,330.765 216.940 C 331.356 217.088,332.057 217.471,332.322 217.791 C 332.588 218.111,333.364 218.606,334.048 218.892 C 339.128 221.015,343.842 229.194,342.264 233.149 C 342.064 233.652,341.678 234.928,341.408 235.984 C 340.110 241.058,334.258 243.992,323.650 244.889 C 319.635 245.228,309.587 243.153,306.773 241.402 C 306.444 241.198,305.906 240.920,305.578 240.785 C 304.212 240.224,298.974 237.647,298.606 237.356 C 297.844 236.753,295.183 235.060,294.998 235.060 C 294.895 235.060,293.725 234.298,292.397 233.367 C 291.069 232.435,289.612 231.465,289.160 231.211 C 288.708 230.957,288.228 230.579,288.094 230.371 C 287.202 228.991,285.289 228.668,284.583 229.777 C 284.198 230.382,283.769 230.966,283.631 231.076 C 283.492 231.185,283.077 231.813,282.709 232.470 C 282.341 233.127,281.605 234.382,281.074 235.259 C 280.543 236.135,279.820 237.459,279.468 238.201 C 279.117 238.943,278.511 240.019,278.122 240.592 C 276.307 243.268,275.159 245.097,274.176 246.879 C 272.875 249.236,271.917 250.828,270.219 253.449 C 267.974 256.915,268.456 257.525,278.287 263.653 C 278.725 263.926,279.532 264.363,280.080 264.625 C 280.627 264.887,281.524 265.400,282.072 265.765 C 282.620 266.130,283.516 266.568,284.064 266.738 C 284.612 266.908,285.500 267.335,286.038 267.687 C 286.576 268.038,287.562 268.536,288.229 268.793 C 288.896 269.049,290.697 269.741,292.231 270.330 C 293.765 270.918,296.006 271.655,297.211 271.967 C 298.416 272.279,299.747 272.729,300.168 272.966 C 300.588 273.204,302.124 273.548,303.580 273.731 C 305.037 273.914,307.045 274.341,308.044 274.680 C 312.062 276.044,330.824 276.446,336.904 275.298 C 340.746 274.573,344.844 273.652,346.016 273.250 C 346.673 273.025,348.106 272.592,349.201 272.288 C 350.295 271.983,351.729 271.477,352.388 271.164 C 357.730 268.619,359.023 267.939,359.413 267.470 C 359.658 267.174,360.083 266.932,360.357 266.932 C 361.655 266.932,369.555 259.593,371.653 256.438 C 374.206 252.597,375.299 250.556,375.299 249.624 C 375.299 249.337,375.558 248.886,375.875 248.624 C 376.191 248.361,376.669 247.129,376.937 245.886 C 377.204 244.643,377.598 243.397,377.812 243.118 C 379.612 240.771,379.554 220.408,377.741 218.181 C 377.539 217.932,377.146 216.965,376.869 216.031 C 376.592 215.097,376.125 214.134,375.832 213.891 C 375.539 213.647,375.299 213.246,375.298 212.999 C 375.298 212.752,374.850 212.029,374.302 211.392 C 373.755 210.756,373.307 210.058,373.307 209.842 C 373.307 208.211,363.061 198.459,358.556 195.801 C 358.170 195.574,357.564 195.146,357.209 194.852 C 355.823 193.702,342.153 186.853,341.243 186.853 C 341.077 186.853,339.271 186.046,337.230 185.060 C 335.189 184.074,333.263 183.267,332.949 183.267 C 332.635 183.267,331.951 182.933,331.428 182.525 C 330.906 182.117,330.030 181.647,329.482 181.482 C 328.934 181.316,328.217 180.968,327.888 180.708 C 327.560 180.449,326.125 179.642,324.701 178.917 C 321.225 177.146,317.391 173.981,315.890 171.641 C 314.407 169.331,314.252 163.379,315.637 161.994 C 316.021 161.611,316.335 161.131,316.335 160.928 C 316.335 160.025,319.583 157.347,322.121 156.157 C 326.822 153.952,335.275 153.972,343.426 156.207 C 346.023 156.919,350.172 158.484,351.847 159.382 C 352.644 159.810,353.572 160.159,353.910 160.159 C 354.248 160.159,354.780 160.415,355.093 160.727 C 355.405 161.040,356.321 161.571,357.127 161.908 C 357.934 162.245,358.869 162.796,359.206 163.133 C 360.661 164.588,361.999 163.936,363.474 161.056 C 364.231 159.577,365.128 157.829,365.467 157.171 C 365.806 156.514,366.730 154.631,367.520 152.988 C 368.310 151.345,370.371 147.271,372.100 143.936 L 375.244 137.872 373.777 136.724 C 372.971 136.093,371.838 135.326,371.259 135.019 C 368.197 133.397,364.215 131.473,363.902 131.465 C 363.706 131.460,363.098 131.106,362.550 130.677 C 362.002 130.249,361.190 129.894,360.746 129.889 C 360.302 129.884,359.568 129.621,359.116 129.305 C 358.664 128.988,357.414 128.513,356.338 128.250 C 355.262 127.987,353.934 127.554,353.386 127.286 C 352.839 127.019,351.135 126.574,349.602 126.296 C 348.068 126.019,346.612 125.633,346.366 125.440 C 346.121 125.246,343.880 124.908,341.386 124.689 C 338.893 124.470,335.856 124.114,334.637 123.898 C 331.621 123.364,328.677 123.467,322.172 124.332 M172.410 126.725 C 171.757 127.106,171.713 128.914,171.713 155.750 L 171.713 184.369 170.817 184.609 C 170.324 184.742,157.998 184.855,143.426 184.861 C 128.855 184.868,116.716 185.010,116.451 185.178 C 115.780 185.605,115.650 213.419,116.317 214.086 C 116.648 214.417,124.178 214.571,143.802 214.650 C 165.481 214.736,170.918 214.860,171.265 215.278 C 171.565 215.640,171.730 224.474,171.805 244.094 C 171.893 267.371,172.009 272.505,172.459 273.047 C 173.184 273.920,255.090 274.078,255.654 273.207 C 256.201 272.362,256.290 245.040,255.747 244.387 C 255.355 243.914,251.444 243.825,231.200 243.825 C 215.362 243.825,206.855 243.684,206.348 243.412 C 205.382 242.895,205.127 216.694,206.076 215.420 C 206.530 214.810,208.597 214.742,229.813 214.647 C 252.294 214.545,253.071 214.517,253.618 213.768 C 254.080 213.136,254.183 210.499,254.183 199.316 L 254.183 185.638 253.161 185.249 C 252.540 185.013,243.169 184.861,229.280 184.861 C 211.431 184.861,206.351 184.751,206.099 184.363 C 205.396 183.275,205.471 157.534,206.180 156.825 C 206.766 156.239,209.156 156.175,230.706 156.175 C 254.050 156.175,254.599 156.158,255.378 155.378 C 256.351 154.406,256.648 127.724,255.697 126.773 C 255.069 126.145,173.487 126.098,172.410 126.725 " stroke="none" fill="#f9faf9" fill-rule="evenodd"></path><path id="path1" d="M1.992 0.427 C 1.992 0.978,0.978 1.992,0.427 1.992 C 0.124 1.992,0.000 59.517,0.000 200.199 L 0.000 398.406 200.000 398.406 L 400.000 398.406 400.000 199.203 L 400.000 0.000 200.996 0.000 C 59.748 0.000,1.992 0.124,1.992 0.427 M122.998 124.459 C 126.553 124.790,129.799 125.241,130.211 125.462 C 130.623 125.682,132.196 126.052,133.707 126.284 C 135.218 126.515,137.082 126.943,137.849 127.234 C 140.134 128.103,144.328 129.501,145.746 129.867 C 146.474 130.055,147.371 130.469,147.738 130.788 C 148.106 131.106,148.930 131.492,149.570 131.644 C 150.210 131.797,151.176 132.269,151.716 132.694 C 152.255 133.119,152.878 133.466,153.100 133.466 C 153.803 133.466,157.743 136.260,158.173 137.062 C 158.626 137.909,158.329 139.704,157.582 140.637 C 157.319 140.966,156.860 141.863,156.562 142.629 C 156.265 143.396,155.913 144.114,155.780 144.223 C 155.647 144.333,153.697 148.187,151.446 152.789 C 149.195 157.390,147.181 161.424,146.970 161.753 C 146.759 162.082,146.296 163.023,145.942 163.845 C 145.230 165.495,143.608 165.920,142.610 164.718 C 142.327 164.377,141.543 163.842,140.868 163.531 C 140.194 163.219,139.373 162.794,139.044 162.586 C 135.551 160.375,129.172 158.520,119.522 156.909 C 115.305 156.205,102.685 157.693,98.292 159.413 C 97.243 159.823,96.046 160.159,95.631 160.159 C 95.217 160.159,94.636 160.401,94.340 160.697 C 94.045 160.992,93.091 161.463,92.220 161.743 C 91.350 162.023,90.369 162.477,90.040 162.751 C 89.711 163.026,88.904 163.547,88.247 163.908 C 87.038 164.573,85.927 165.283,83.824 166.732 C 80.886 168.758,75.667 174.711,73.695 178.287 C 72.970 179.602,72.152 180.946,71.877 181.275 C 71.602 181.604,71.252 182.410,71.099 183.068 C 70.946 183.725,70.597 184.624,70.323 185.066 C 67.076 190.300,67.058 209.522,70.295 214.548 C 70.579 214.989,70.940 215.932,71.096 216.643 C 71.252 217.355,71.589 218.159,71.845 218.430 C 72.101 218.702,72.627 219.552,73.013 220.319 C 75.136 224.536,78.595 228.630,83.070 232.222 C 87.540 235.809,87.309 235.673,95.020 239.255 C 96.116 239.764,97.729 240.307,98.606 240.461 C 99.482 240.616,100.539 240.918,100.953 241.133 C 101.801 241.572,105.280 242.054,111.753 242.629 C 116.912 243.088,125.416 242.303,129.185 241.020 C 130.446 240.590,131.701 240.233,131.974 240.227 C 132.247 240.220,133.367 239.773,134.462 239.234 C 135.558 238.695,136.746 238.253,137.103 238.251 C 137.459 238.249,137.968 237.985,138.234 237.665 C 138.500 237.345,139.105 236.968,139.578 236.828 C 140.051 236.688,141.066 236.157,141.833 235.648 C 143.725 234.392,145.013 234.258,145.554 235.259 C 145.790 235.697,146.282 236.511,146.647 237.068 C 147.012 237.624,147.436 238.653,147.590 239.354 C 147.744 240.055,148.025 240.724,148.214 240.841 C 148.404 240.958,150.101 244.142,151.987 247.917 C 153.872 251.692,155.574 255.050,155.768 255.378 C 156.214 256.133,158.393 260.936,158.687 261.812 C 159.089 263.008,157.076 264.403,149.801 267.968 C 145.785 269.936,143.240 270.910,139.044 272.087 C 137.620 272.487,136.006 272.989,135.458 273.204 C 134.910 273.418,133.305 273.722,131.890 273.878 C 130.475 274.034,128.705 274.418,127.956 274.731 C 124.522 276.165,98.452 276.352,96.650 274.954 C 96.055 274.493,92.726 273.706,91.357 273.703 C 90.742 273.701,89.760 273.450,89.174 273.145 C 88.589 272.839,87.182 272.390,86.049 272.147 C 84.915 271.904,83.607 271.438,83.140 271.112 C 82.674 270.785,82.022 270.518,81.690 270.518 C 81.358 270.518,80.188 270.092,79.089 269.570 C 77.991 269.049,76.643 268.423,76.096 268.179 C 75.548 267.935,74.831 267.554,74.502 267.333 C 74.173 267.112,73.456 266.756,72.908 266.541 C 72.361 266.325,71.195 265.703,70.319 265.157 C 69.442 264.611,68.187 263.866,67.530 263.502 C 66.873 263.138,66.191 262.596,66.016 262.297 C 65.841 261.998,65.482 261.751,65.219 261.748 C 64.700 261.742,64.273 261.425,58.825 256.996 C 53.675 252.810,46.572 245.311,44.422 241.790 C 44.203 241.431,43.262 240.004,42.331 238.617 C 41.399 237.231,40.637 235.878,40.637 235.611 C 40.637 235.344,40.485 235.066,40.298 234.993 C 39.472 234.670,34.628 223.614,33.656 219.833 C 33.359 218.676,32.932 217.012,32.707 216.135 C 31.277 210.548,30.423 200.075,31.017 195.418 C 31.240 193.665,31.628 190.618,31.878 188.645 C 32.728 181.957,36.897 170.157,40.253 164.940 C 40.465 164.612,40.818 163.894,41.038 163.347 C 41.258 162.799,42.064 161.544,42.830 160.558 C 43.596 159.572,44.343 158.496,44.489 158.167 C 45.600 155.673,55.720 145.033,60.159 141.693 C 61.365 140.786,62.440 139.944,62.550 139.822 C 62.827 139.514,65.940 137.409,68.327 135.916 C 69.422 135.231,70.669 134.400,71.097 134.068 C 71.525 133.737,72.125 133.466,72.430 133.466 C 72.735 133.466,73.460 133.131,74.042 132.722 C 74.624 132.312,75.548 131.845,76.096 131.684 C 76.643 131.523,77.485 131.144,77.965 130.841 C 79.586 129.820,87.873 126.930,91.016 126.290 C 92.319 126.024,93.764 125.635,94.225 125.425 C 97.756 123.816,111.232 123.364,122.998 124.459 M334.637 123.898 C 335.856 124.114,338.893 124.470,341.386 124.689 C 343.880 124.908,346.121 125.246,346.366 125.440 C 346.612 125.633,348.068 126.019,349.602 126.296 C 351.135 126.574,352.839 127.019,353.386 127.286 C 353.934 127.554,355.262 127.987,356.338 128.250 C 357.414 128.513,358.664 128.988,359.116 129.305 C 359.568 129.621,360.302 129.884,360.746 129.889 C 361.190 129.894,362.002 130.249,362.550 130.677 C 363.098 131.106,363.706 131.460,363.902 131.465 C 364.215 131.473,368.197 133.397,371.259 135.019 C 371.838 135.326,372.971 136.093,373.777 136.724 L 375.244 137.872 372.100 143.936 C 370.371 147.271,368.310 151.345,367.520 152.988 C 366.730 154.631,365.806 156.514,365.467 157.171 C 365.128 157.829,364.231 159.577,363.474 161.056 C 361.999 163.936,360.661 164.588,359.206 163.133 C 358.869 162.796,357.934 162.245,357.127 161.908 C 356.321 161.571,355.405 161.040,355.093 160.727 C 354.780 160.415,354.248 160.159,353.910 160.159 C 353.572 160.159,352.644 159.810,351.847 159.382 C 350.172 158.484,346.023 156.919,343.426 156.207 C 335.275 153.972,326.822 153.952,322.121 156.157 C 319.583 157.347,316.335 160.025,316.335 160.928 C 316.335 161.131,316.021 161.611,315.637 161.994 C 314.252 163.379,314.407 169.331,315.890 171.641 C 317.391 173.981,321.225 177.146,324.701 178.917 C 326.125 179.642,327.560 180.449,327.888 180.708 C 328.217 180.968,328.934 181.316,329.482 181.482 C 330.030 181.647,330.906 182.117,331.428 182.525 C 331.951 182.933,332.635 183.267,332.949 183.267 C 333.263 183.267,335.189 184.074,337.230 185.060 C 339.271 186.046,341.077 186.853,341.243 186.853 C 342.153 186.853,355.823 193.702,357.209 194.852 C 357.564 195.146,358.170 195.574,358.556 195.801 C 363.061 198.459,373.307 208.211,373.307 209.842 C 373.307 210.058,373.755 210.756,374.302 211.392 C 374.850 212.029,375.298 212.752,375.298 212.999 C 375.299 213.246,375.539 213.647,375.832 213.891 C 376.125 214.134,376.592 215.097,376.869 216.031 C 377.146 216.965,377.539 217.932,377.741 218.181 C 379.554 220.408,379.612 240.771,377.812 243.118 C 377.598 243.397,377.204 244.643,376.937 245.886 C 376.669 247.129,376.191 248.361,375.875 248.624 C 375.558 248.886,375.299 249.337,375.299 249.624 C 375.299 250.556,374.206 252.597,371.653 256.438 C 369.555 259.593,361.655 266.932,360.357 266.932 C 360.083 266.932,359.658 267.174,359.413 267.470 C 359.023 267.939,357.730 268.619,352.388 271.164 C 351.729 271.477,350.295 271.983,349.201 272.288 C 348.106 272.592,346.673 273.025,346.016 273.250 C 344.844 273.652,340.746 274.573,336.904 275.298 C 330.824 276.446,312.062 276.044,308.044 274.680 C 307.045 274.341,305.037 273.914,303.580 273.731 C 302.124 273.548,300.588 273.204,300.168 272.966 C 299.747 272.729,298.416 272.279,297.211 271.967 C 296.006 271.655,293.765 270.918,292.231 270.330 C 290.697 269.741,288.896 269.049,288.229 268.793 C 287.562 268.536,286.576 268.038,286.038 267.687 C 285.500 267.335,284.612 266.908,284.064 266.738 C 283.516 266.568,282.620 266.130,282.072 265.765 C 281.524 265.400,280.627 264.887,280.080 264.625 C 279.532 264.363,278.725 263.926,278.287 263.653 C 268.456 257.525,267.974 256.915,270.219 253.449 C 271.917 250.828,272.875 249.236,274.176 246.879 C 275.159 245.097,276.307 243.268,278.122 240.592 C 278.511 240.019,279.117 238.943,279.468 238.201 C 279.820 237.459,280.543 236.135,281.074 235.259 C 281.605 234.382,282.341 233.127,282.709 232.470 C 283.077 231.813,283.492 231.185,283.631 231.076 C 283.769 230.966,284.198 230.382,284.583 229.777 C 285.289 228.668,287.202 228.991,288.094 230.371 C 288.228 230.579,288.708 230.957,289.160 231.211 C 289.612 231.465,291.069 232.435,292.397 233.367 C 293.725 234.298,294.895 235.060,294.998 235.060 C 295.183 235.060,297.844 236.753,298.606 237.356 C 298.974 237.647,304.212 240.224,305.578 240.785 C 305.906 240.920,306.444 241.198,306.773 241.402 C 309.587 243.153,319.635 245.228,323.650 244.889 C 334.258 243.992,340.110 241.058,341.408 235.984 C 341.678 234.928,342.064 233.652,342.264 233.149 C 343.842 229.194,339.128 221.015,334.048 218.892 C 333.364 218.606,332.588 218.111,332.322 217.791 C 332.057 217.471,331.356 217.088,330.765 216.940 C 330.173 216.791,329.598 216.535,329.486 216.369 C 329.268 216.046,319.972 211.537,315.538 209.604 C 314.990 209.365,314.273 209.000,313.944 208.793 C 313.616 208.586,312.809 208.170,312.151 207.867 C 311.494 207.565,310.508 207.078,309.960 206.784 C 309.412 206.490,308.606 206.065,308.167 205.838 C 305.637 204.531,303.916 203.546,302.396 202.534 C 301.454 201.907,300.395 201.215,300.043 200.996 C 299.303 200.536,298.190 199.609,295.871 197.521 C 294.965 196.705,294.098 196.032,293.944 196.027 C 293.315 196.003,286.798 187.694,286.049 185.962 C 285.835 185.466,285.491 184.791,285.284 184.462 C 282.228 179.592,280.314 167.957,281.682 162.563 C 281.934 161.570,282.296 159.803,282.488 158.638 C 282.820 156.616,284.462 151.864,285.266 150.598 C 285.475 150.269,285.918 149.392,286.252 148.650 C 287.459 145.961,292.944 138.627,294.820 137.192 C 295.149 136.941,295.810 136.392,296.290 135.972 C 296.769 135.553,297.643 134.862,298.232 134.437 C 298.821 134.013,299.774 133.286,300.349 132.823 C 300.924 132.360,301.774 131.863,302.238 131.718 C 302.702 131.573,303.403 131.100,303.794 130.667 C 304.186 130.234,304.702 129.880,304.942 129.880 C 305.182 129.879,306.723 129.189,308.367 128.345 C 310.010 127.502,312.341 126.582,313.546 126.302 C 314.751 126.022,315.944 125.629,316.196 125.429 C 317.552 124.358,330.953 123.246,334.637 123.898 M255.697 126.773 C 256.648 127.724,256.351 154.406,255.378 155.378 C 254.599 156.158,254.050 156.175,230.706 156.175 C 209.156 156.175,206.766 156.239,206.180 156.825 C 205.471 157.534,205.396 183.275,206.099 184.363 C 206.351 184.751,211.431 184.861,229.280 184.861 C 243.169 184.861,252.540 185.013,253.161 185.249 L 254.183 185.638 254.183 199.316 C 254.183 210.499,254.080 213.136,253.618 213.768 C 253.071 214.517,252.294 214.545,229.813 214.647 C 208.597 214.742,206.530 214.810,206.076 215.420 C 205.127 216.694,205.382 242.895,206.348 243.412 C 206.855 243.684,215.362 243.825,231.200 243.825 C 251.444 243.825,255.355 243.914,255.747 244.387 C 256.290 245.040,256.201 272.362,255.654 273.207 C 255.090 274.078,173.184 273.920,172.459 273.047 C 172.009 272.505,171.893 267.371,171.805 244.094 C 171.730 224.474,171.565 215.640,171.265 215.278 C 170.918 214.860,165.481 214.736,143.802 214.650 C 124.178 214.571,116.648 214.417,116.317 214.086 C 115.650 213.419,115.780 185.605,116.451 185.178 C 116.716 185.010,128.855 184.868,143.426 184.861 C 157.998 184.855,170.324 184.742,170.817 184.609 L 171.713 184.369 171.713 155.750 C 171.713 128.914,171.757 127.106,172.410 126.725 C 173.487 126.098,255.069 126.145,255.697 126.773 " stroke="none" fill="#6bc363" fill-rule="evenodd"></path></g></svg>