<svg id="svg" version="1.1" xmlns="http://www.w3.org/2000/svg" xmlns:xlink="http://www.w3.org/1999/xlink" width="400" height="381.27090301003346" viewBox="0, 0, 400,381.27090301003346"><g id="svgg"><path id="path0" d="M202.929 0.858 C 203.022 1.516,203.340 1.744,204.290 1.835 C 205.220 1.925,205.529 2.139,205.529 2.693 C 205.529 3.332,205.806 3.432,207.586 3.432 C 209.062 3.432,209.704 3.593,209.861 4.004 C 210.012 4.396,210.625 4.576,211.809 4.576 C 213.028 4.576,213.761 4.800,214.299 5.338 C 214.893 5.932,215.570 6.101,217.362 6.101 C 219.054 6.101,219.720 6.252,219.881 6.673 C 220.012 7.015,220.587 7.245,221.310 7.245 C 222.047 7.245,222.774 7.543,223.172 8.008 C 223.623 8.535,224.297 8.770,225.354 8.770 C 226.459 8.770,226.883 8.929,226.883 9.342 C 226.883 9.761,227.317 9.914,228.507 9.914 C 229.718 9.914,230.252 10.108,230.607 10.677 C 230.905 11.153,231.497 11.439,232.184 11.439 C 232.810 11.439,233.378 11.686,233.503 12.011 C 233.626 12.331,234.192 12.583,234.787 12.583 C 235.438 12.583,236.036 12.879,236.327 13.346 C 236.625 13.822,237.216 14.109,237.903 14.109 C 238.529 14.109,239.098 14.355,239.223 14.681 C 239.351 15.015,239.922 15.253,240.598 15.253 C 241.234 15.253,241.754 15.433,241.754 15.653 C 241.754 15.874,242.355 16.305,243.089 16.612 C 243.823 16.918,244.423 17.339,244.423 17.546 C 244.423 17.753,244.897 17.922,245.475 17.922 C 246.115 17.922,246.715 18.221,247.004 18.684 C 247.266 19.104,247.889 19.447,248.390 19.447 C 248.890 19.447,249.398 19.704,249.518 20.019 C 249.639 20.334,250.131 20.591,250.611 20.591 C 251.092 20.591,251.699 20.934,251.961 21.354 C 252.223 21.773,252.693 22.116,253.006 22.116 C 253.319 22.116,253.575 22.374,253.575 22.688 C 253.575 23.088,253.977 23.260,254.909 23.260 C 255.990 23.260,256.244 23.406,256.244 24.023 C 256.244 24.517,256.498 24.786,256.966 24.786 C 257.363 24.786,257.786 25.043,257.907 25.357 C 258.028 25.672,258.549 25.929,259.066 25.929 C 259.671 25.929,260.092 26.201,260.248 26.692 C 260.381 27.112,260.717 27.455,260.995 27.455 C 261.273 27.455,261.600 27.712,261.720 28.027 C 261.849 28.361,262.420 28.599,263.096 28.599 C 263.997 28.599,264.252 28.766,264.252 29.361 C 264.252 29.792,264.506 30.124,264.836 30.124 C 265.157 30.124,265.518 30.381,265.639 30.696 C 265.760 31.010,266.056 31.268,266.298 31.268 C 266.540 31.268,266.952 31.611,267.214 32.031 C 267.483 32.462,268.103 32.793,268.640 32.793 C 269.230 32.793,269.590 33.010,269.590 33.365 C 269.590 33.680,269.836 33.937,270.136 33.937 C 270.437 33.937,270.792 34.280,270.925 34.700 C 271.058 35.119,271.413 35.462,271.713 35.462 C 272.013 35.462,272.259 35.720,272.259 36.034 C 272.259 36.352,272.598 36.606,273.022 36.606 C 273.530 36.606,273.785 36.861,273.785 37.369 C 273.785 37.788,274.024 38.132,274.316 38.132 C 274.608 38.132,274.946 38.389,275.066 38.704 C 275.187 39.018,275.463 39.276,275.679 39.276 C 275.895 39.276,276.416 39.619,276.835 40.038 C 277.255 40.458,277.941 40.801,278.360 40.801 C 278.869 40.801,279.123 41.055,279.123 41.563 C 279.123 41.987,279.377 42.326,279.695 42.326 C 280.010 42.326,280.267 42.583,280.267 42.898 C 280.267 43.216,280.606 43.470,281.030 43.470 C 281.538 43.470,281.792 43.724,281.792 44.233 C 281.792 44.656,282.046 44.995,282.364 44.995 C 282.679 44.995,282.936 45.253,282.936 45.567 C 282.936 45.885,283.275 46.139,283.699 46.139 C 284.207 46.139,284.461 46.393,284.461 46.902 C 284.461 47.325,284.716 47.664,285.033 47.664 C 285.348 47.664,285.605 47.881,285.605 48.145 C 285.605 48.409,285.949 48.839,286.368 49.101 C 286.787 49.363,287.131 49.925,287.131 50.349 C 287.131 50.773,287.388 51.219,287.703 51.340 C 288.017 51.460,288.275 51.798,288.275 52.090 C 288.275 52.383,288.618 52.622,289.037 52.622 C 289.546 52.622,289.800 52.876,289.800 53.384 C 289.800 53.804,290.037 54.147,290.327 54.147 C 290.617 54.147,290.945 54.490,291.054 54.909 C 291.164 55.329,291.527 55.672,291.861 55.672 C 292.196 55.672,292.469 55.929,292.469 56.244 C 292.469 56.559,292.726 56.816,293.041 56.816 C 293.356 56.816,293.613 57.148,293.613 57.553 C 293.613 57.958,293.956 58.399,294.376 58.532 C 294.850 58.683,295.138 59.109,295.138 59.661 C 295.138 60.149,295.396 60.646,295.710 60.767 C 296.025 60.888,296.282 61.249,296.282 61.570 C 296.282 61.900,296.614 62.154,297.045 62.154 C 297.607 62.154,297.807 62.409,297.807 63.120 C 297.807 63.651,298.065 64.184,298.379 64.304 C 298.694 64.425,298.951 64.865,298.951 65.281 C 298.951 65.718,299.274 66.123,299.714 66.238 C 300.133 66.348,300.477 66.675,300.477 66.965 C 300.477 67.255,300.734 67.493,301.049 67.493 C 301.448 67.493,301.621 67.895,301.621 68.827 C 301.621 69.908,301.766 70.162,302.383 70.162 C 302.877 70.162,303.146 70.416,303.146 70.884 C 303.146 71.281,303.403 71.704,303.718 71.825 C 304.032 71.946,304.290 72.495,304.290 73.046 C 304.290 73.726,304.534 74.111,305.052 74.246 C 305.595 74.388,305.815 74.766,305.815 75.557 C 305.815 76.172,306.060 76.762,306.364 76.879 C 306.666 76.995,307.022 77.590,307.157 78.202 C 307.291 78.813,307.645 79.314,307.943 79.314 C 308.241 79.314,308.484 79.657,308.484 80.076 C 308.484 80.500,308.738 80.839,309.056 80.839 C 309.456 80.839,309.628 81.241,309.628 82.173 C 309.628 83.254,309.773 83.508,310.391 83.508 C 311.008 83.508,311.153 83.762,311.153 84.843 C 311.153 85.775,311.326 86.177,311.725 86.177 C 312.120 86.177,312.297 86.573,312.297 87.453 C 312.297 88.244,312.587 88.990,313.060 89.418 C 313.536 89.849,313.823 90.593,313.823 91.396 C 313.823 92.189,314.043 92.768,314.395 92.903 C 314.726 93.030,314.967 93.601,314.967 94.261 C 314.967 95.080,315.181 95.456,315.729 95.600 C 316.347 95.761,316.492 96.120,316.492 97.483 C 316.492 98.627,316.675 99.236,317.064 99.385 C 317.417 99.521,317.636 100.100,317.636 100.899 C 317.636 101.938,317.786 102.193,318.398 102.193 C 319.069 102.193,319.161 102.447,319.161 104.290 C 319.161 105.819,319.304 106.387,319.687 106.387 C 320.059 106.387,320.263 107.073,320.383 108.726 C 320.498 110.327,320.754 111.213,321.191 111.533 C 321.626 111.851,321.830 112.551,321.830 113.729 C 321.830 114.851,322.016 115.528,322.359 115.660 C 322.727 115.801,322.933 116.752,323.035 118.783 C 323.150 121.050,323.330 121.786,323.841 122.072 C 324.379 122.373,324.500 122.997,324.500 125.484 C 324.500 127.837,324.629 128.577,325.071 128.747 C 325.527 128.922,325.645 129.751,325.649 132.834 C 325.655 137.182,325.874 138.418,326.641 138.418 C 327.083 138.418,327.169 141.363,327.169 156.530 C 327.169 171.758,327.084 174.643,326.638 174.643 C 325.809 174.643,325.643 175.537,325.643 180.012 C 325.643 183.459,325.545 184.175,325.071 184.175 C 324.608 184.175,324.500 184.790,324.500 187.417 C 324.500 189.933,324.381 190.658,323.968 190.658 C 323.237 190.658,322.974 191.512,322.974 193.889 C 322.974 195.338,322.811 195.977,322.402 196.134 C 321.976 196.298,321.830 196.977,321.830 198.800 C 321.830 200.925,321.730 201.272,321.068 201.445 C 320.431 201.612,320.305 201.965,320.305 203.587 C 320.305 205.059,320.167 205.529,319.733 205.529 C 319.301 205.529,319.161 205.995,319.161 207.436 C 319.161 208.811,319.013 209.342,318.630 209.342 C 317.944 209.342,317.636 210.180,317.636 212.043 C 317.636 213.116,317.475 213.537,317.064 213.537 C 316.672 213.537,316.492 213.930,316.492 214.787 C 316.492 215.565,316.204 216.283,315.729 216.689 C 315.236 217.112,314.967 217.814,314.967 218.681 C 314.967 219.616,314.794 220.019,314.395 220.019 C 313.999 220.019,313.823 220.417,313.823 221.309 C 313.823 222.279,313.633 222.649,313.060 222.799 C 312.512 222.942,312.297 223.319,312.297 224.137 C 312.297 224.798,312.057 225.368,311.725 225.495 C 311.406 225.618,311.153 226.185,311.153 226.779 C 311.153 227.430,310.858 228.028,310.391 228.320 C 309.971 228.581,309.628 229.205,309.628 229.705 C 309.628 230.205,309.371 230.713,309.056 230.834 C 308.729 230.959,308.484 231.529,308.484 232.165 C 308.484 232.955,308.264 233.334,307.722 233.476 C 307.166 233.621,306.959 233.996,306.959 234.855 C 306.959 235.649,306.772 236.034,306.387 236.034 C 306.072 236.034,305.815 236.292,305.815 236.606 C 305.815 236.921,305.472 237.521,305.052 237.941 C 304.633 238.360,304.290 239.047,304.290 239.466 C 304.290 239.890,304.036 240.229,303.718 240.229 C 303.318 240.229,303.146 240.631,303.146 241.563 C 303.146 242.644,303.001 242.898,302.383 242.898 C 301.964 242.898,301.621 243.137,301.621 243.429 C 301.621 243.721,301.363 244.059,301.049 244.180 C 300.734 244.301,300.477 244.822,300.477 245.339 C 300.477 245.944,300.205 246.365,299.714 246.520 C 299.295 246.654,298.951 247.094,298.951 247.499 C 298.951 247.905,298.714 248.236,298.424 248.236 C 298.134 248.236,297.807 248.580,297.697 248.999 C 297.587 249.418,297.224 249.762,296.890 249.762 C 296.469 249.762,296.282 250.113,296.282 250.906 C 296.282 251.668,296.092 252.050,295.710 252.050 C 295.392 252.050,295.138 252.389,295.138 252.812 C 295.138 253.321,294.884 253.575,294.376 253.575 C 293.945 253.575,293.613 253.829,293.613 254.159 C 293.613 254.480,293.356 254.841,293.041 254.962 C 292.726 255.083,292.469 255.421,292.469 255.713 C 292.469 256.005,292.196 256.244,291.861 256.244 C 291.527 256.244,291.164 256.587,291.054 257.007 C 290.945 257.426,290.617 257.769,290.327 257.769 C 290.037 257.769,289.800 258.112,289.800 258.532 C 289.800 258.961,289.546 259.295,289.218 259.295 C 288.877 259.295,288.542 259.768,288.408 260.439 C 288.282 261.068,288.030 261.582,287.848 261.582 C 287.294 261.582,285.605 263.213,285.605 263.748 C 285.605 264.025,285.348 264.252,285.033 264.252 C 284.716 264.252,284.461 264.591,284.461 265.014 C 284.461 265.438,284.207 265.777,283.889 265.777 C 283.575 265.777,282.974 266.077,282.555 266.444 C 282.135 266.811,281.449 267.412,281.030 267.779 C 280.610 268.146,280.104 268.446,279.905 268.446 C 279.705 268.446,279.405 268.674,279.237 268.952 C 279.070 269.230,278.632 269.567,278.265 269.702 C 277.898 269.837,277.598 270.210,277.598 270.531 C 277.598 270.853,277.340 271.115,277.026 271.115 C 276.711 271.115,276.454 271.373,276.454 271.687 C 276.454 272.005,276.115 272.259,275.691 272.259 C 275.183 272.259,274.929 272.514,274.929 273.022 C 274.929 273.441,274.689 273.785,274.397 273.785 C 274.105 273.785,273.777 274.018,273.667 274.302 C 273.558 274.587,272.939 274.926,272.292 275.055 C 271.595 275.195,271.115 275.528,271.115 275.872 C 271.115 276.200,270.782 276.454,270.353 276.454 C 269.929 276.454,269.590 276.708,269.590 277.026 C 269.590 277.340,269.344 277.598,269.044 277.598 C 268.743 277.598,268.389 277.941,268.255 278.360 C 268.086 278.895,267.679 279.123,266.895 279.123 C 266.155 279.123,265.777 279.317,265.777 279.695 C 265.777 280.013,265.438 280.267,265.014 280.267 C 264.506 280.267,264.252 280.521,264.252 281.030 C 264.252 281.624,263.997 281.792,263.096 281.792 C 262.456 281.792,261.848 282.031,261.735 282.327 C 261.622 282.620,261.198 282.948,260.793 283.054 C 260.389 283.159,260.057 283.520,260.057 283.854 C 260.057 284.275,259.706 284.461,258.913 284.461 C 258.284 284.461,257.769 284.631,257.769 284.838 C 257.769 285.044,257.169 285.465,256.435 285.771 C 255.701 286.078,255.100 286.509,255.100 286.730 C 255.100 286.950,254.580 287.131,253.944 287.131 C 253.268 287.131,252.697 287.368,252.569 287.703 C 252.448 288.017,252.024 288.275,251.627 288.275 C 251.160 288.275,250.906 288.543,250.906 289.037 C 250.906 289.655,250.651 289.800,249.571 289.800 C 248.639 289.800,248.236 289.972,248.236 290.372 C 248.236 290.795,247.793 290.944,246.534 290.944 C 245.222 290.944,244.738 291.119,244.423 291.706 C 244.155 292.209,243.625 292.469,242.873 292.469 C 242.209 292.469,241.638 292.709,241.511 293.041 C 241.375 293.394,240.796 293.613,239.997 293.613 C 239.212 293.613,238.404 293.913,237.941 294.376 C 237.385 294.932,236.670 295.138,235.299 295.138 C 234.137 295.138,233.201 295.357,232.848 295.710 C 232.526 296.032,231.594 296.282,230.719 296.282 C 229.635 296.282,228.965 296.513,228.510 297.045 C 227.998 297.643,227.385 297.807,225.673 297.807 C 224.240 297.807,223.384 297.985,223.184 298.324 C 222.959 298.705,221.379 298.900,217.170 299.065 C 212.628 299.244,211.372 299.411,211.027 299.883 C 210.658 300.387,209.400 300.477,202.669 300.477 C 195.939 300.477,194.680 300.387,194.312 299.883 C 193.966 299.411,192.711 299.244,188.169 299.065 C 184.315 298.914,182.215 298.673,181.707 298.324 C 181.294 298.040,180.050 297.807,178.943 297.807 C 177.484 297.807,176.930 297.662,176.930 297.280 C 176.930 296.664,175.778 296.295,173.831 296.287 C 173.070 296.285,172.234 296.025,171.973 295.710 C 171.654 295.326,170.795 295.138,169.349 295.138 C 167.613 295.138,167.108 294.992,166.723 294.376 C 166.426 293.899,165.834 293.613,165.147 293.613 C 164.521 293.613,163.953 293.366,163.828 293.041 C 163.690 292.682,163.107 292.469,162.262 292.469 C 161.365 292.469,160.915 292.292,160.915 291.938 C 160.915 291.272,160.085 290.944,158.405 290.944 C 157.501 290.944,157.102 290.769,157.102 290.372 C 157.102 289.972,156.700 289.800,155.767 289.800 C 154.687 289.800,154.433 289.655,154.433 289.037 C 154.433 288.484,154.179 288.275,153.507 288.275 C 152.997 288.275,152.323 288.017,152.009 287.703 C 151.694 287.388,150.910 287.131,150.266 287.131 C 149.349 287.131,149.094 286.965,149.094 286.368 C 149.094 285.860,148.840 285.605,148.332 285.605 C 147.908 285.605,147.569 285.351,147.569 285.033 C 147.569 284.655,147.191 284.461,146.451 284.461 C 145.668 284.461,145.260 284.233,145.091 283.699 C 144.921 283.165,144.514 282.936,143.730 282.936 C 142.990 282.936,142.612 282.743,142.612 282.364 C 142.612 282.046,142.273 281.792,141.849 281.792 C 141.341 281.792,141.087 281.538,141.087 281.030 C 141.087 280.521,140.833 280.267,140.324 280.267 C 139.900 280.267,139.561 280.013,139.561 279.695 C 139.561 279.314,139.180 279.123,138.418 279.123 C 137.625 279.123,137.274 278.936,137.274 278.515 C 137.274 278.181,136.930 277.818,136.511 277.708 C 136.092 277.599,135.748 277.271,135.748 276.981 C 135.748 276.691,135.405 276.454,134.986 276.454 C 134.477 276.454,134.223 276.200,134.223 275.691 C 134.223 275.272,133.987 274.929,133.698 274.929 C 133.409 274.929,132.959 274.671,132.698 274.357 C 132.437 274.042,131.815 273.785,131.317 273.785 C 130.664 273.785,130.410 273.571,130.410 273.022 C 130.410 272.598,130.156 272.259,129.838 272.259 C 129.523 272.259,129.266 272.002,129.266 271.687 C 129.266 271.370,128.927 271.115,128.503 271.115 C 127.995 271.115,127.741 270.861,127.741 270.353 C 127.741 269.929,127.486 269.590,127.169 269.590 C 126.854 269.590,126.597 269.333,126.597 269.018 C 126.597 268.700,126.258 268.446,125.834 268.446 C 125.326 268.446,125.071 268.192,125.071 267.684 C 125.071 267.260,124.817 266.921,124.500 266.921 C 124.185 266.921,123.928 266.663,123.928 266.349 C 123.928 266.031,123.589 265.777,123.165 265.777 C 122.656 265.777,122.402 265.523,122.402 265.014 C 122.402 264.595,122.059 263.908,121.640 263.489 C 121.220 263.070,120.877 262.469,120.877 262.154 C 120.877 261.840,120.620 261.582,120.305 261.582 C 119.990 261.582,119.733 261.325,119.733 261.010 C 119.733 260.693,119.394 260.439,118.970 260.439 C 118.462 260.439,118.208 260.184,118.208 259.676 C 118.208 259.252,117.954 258.913,117.636 258.913 C 117.318 258.913,117.064 258.574,117.064 258.151 C 117.064 257.731,116.721 257.045,116.301 256.625 C 115.882 256.206,115.539 255.709,115.539 255.522 C 115.539 255.335,115.281 255.083,114.967 254.962 C 114.652 254.841,114.395 254.480,114.395 254.159 C 114.395 253.829,114.063 253.575,113.632 253.575 C 113.015 253.575,112.869 253.321,112.869 252.240 C 112.869 251.308,112.697 250.906,112.297 250.906 C 111.980 250.906,111.725 250.567,111.725 250.146 C 111.725 249.729,111.382 249.173,110.963 248.911 C 110.543 248.649,110.200 248.127,110.200 247.751 C 110.200 247.376,109.943 246.970,109.628 246.849 C 109.307 246.726,109.056 246.158,109.056 245.552 C 109.056 244.810,108.819 244.399,108.294 244.233 C 107.757 244.062,107.531 243.656,107.531 242.860 C 107.531 242.207,107.289 241.637,106.959 241.511 C 106.637 241.387,106.387 240.820,106.387 240.214 C 106.387 239.471,106.150 239.061,105.624 238.894 C 105.088 238.724,104.862 238.317,104.862 237.522 C 104.862 236.869,104.620 236.299,104.290 236.172 C 103.958 236.045,103.718 235.474,103.718 234.814 C 103.718 233.996,103.503 233.619,102.955 233.476 C 102.324 233.311,102.193 232.955,102.193 231.414 C 102.193 230.013,102.051 229.552,101.621 229.552 C 101.189 229.552,101.049 229.089,101.049 227.671 C 101.049 226.125,100.913 225.747,100.286 225.548 C 99.659 225.349,99.523 224.971,99.523 223.425 C 99.523 222.008,99.382 221.544,98.951 221.544 C 98.497 221.544,98.379 220.994,98.379 218.875 C 98.379 216.460,98.307 216.206,97.617 216.206 C 96.905 216.206,96.854 215.952,96.854 212.381 C 96.854 209.332,96.738 208.511,96.282 208.336 C 95.812 208.156,95.710 207.176,95.710 202.819 C 95.710 198.030,95.637 197.448,94.948 196.759 C 93.858 195.669,93.776 185.586,94.852 184.985 C 95.432 184.661,95.536 183.867,95.644 178.960 C 95.741 174.565,95.889 173.240,96.311 173.003 C 97.136 172.540,97.090 165.558,96.261 165.239 C 94.635 164.616,93.237 165.623,93.115 167.505 C 93.039 168.695,92.827 169.304,92.489 169.304 C 91.873 169.304,91.516 170.138,91.516 171.576 C 91.516 172.163,91.258 172.856,90.944 173.117 C 90.629 173.378,90.372 174.172,90.372 174.880 C 90.372 175.722,90.189 176.168,89.844 176.168 C 89.271 176.168,88.860 177.297,88.852 178.892 C 88.849 179.446,88.589 179.998,88.275 180.119 C 87.883 180.269,87.703 180.882,87.703 182.066 C 87.703 183.286,87.478 184.018,86.940 184.557 C 86.362 185.134,86.177 185.828,86.177 187.417 C 86.177 189.027,86.044 189.514,85.605 189.514 C 85.154 189.514,85.033 190.049,85.033 192.046 C 85.033 194.017,84.886 194.685,84.366 195.065 C 83.832 195.455,83.672 196.266,83.565 199.111 C 83.469 201.648,83.278 202.757,82.897 202.974 C 82.478 203.214,82.364 204.505,82.364 209.045 C 82.364 214.002,82.270 214.915,81.697 215.548 C 80.680 216.672,80.680 233.985,81.697 234.555 C 82.290 234.887,82.364 235.624,82.364 241.213 C 82.364 246.448,82.460 247.534,82.936 247.717 C 83.382 247.888,83.508 248.648,83.508 251.173 C 83.508 254.088,83.584 254.429,84.271 254.608 C 84.934 254.782,85.033 255.128,85.033 257.269 C 85.033 258.948,85.215 259.912,85.605 260.302 C 85.976 260.673,86.177 261.617,86.177 262.980 C 86.177 264.765,86.293 265.116,86.940 265.285 C 87.582 265.453,87.703 265.805,87.703 267.510 C 87.703 268.802,87.910 269.743,88.275 270.108 C 88.589 270.422,88.847 271.281,88.847 272.016 C 88.847 273.017,89.038 273.413,89.609 273.594 C 90.236 273.793,90.372 274.171,90.372 275.717 C 90.372 277.135,90.513 277.598,90.944 277.598 C 91.343 277.598,91.516 278.000,91.516 278.932 C 91.516 279.759,91.806 280.557,92.278 281.030 C 92.702 281.453,93.041 282.301,93.041 282.936 C 93.041 283.699,93.232 284.080,93.613 284.080 C 93.994 284.080,94.185 284.461,94.185 285.221 C 94.185 285.949,94.461 286.534,94.948 286.838 C 95.414 287.129,95.710 287.727,95.710 288.378 C 95.710 288.972,95.963 289.539,96.282 289.662 C 96.597 289.783,96.854 290.291,96.854 290.791 C 96.854 291.291,97.197 291.914,97.617 292.176 C 98.083 292.468,98.379 293.065,98.379 293.717 C 98.379 294.302,98.626 294.876,98.928 294.991 C 99.230 295.107,99.587 295.702,99.721 296.314 C 99.855 296.926,100.209 297.426,100.507 297.426 C 100.805 297.426,101.049 297.769,101.049 298.189 C 101.049 298.612,101.303 298.951,101.621 298.951 C 101.935 298.951,102.193 299.281,102.193 299.683 C 102.193 300.819,102.604 301.621,103.187 301.621 C 103.479 301.621,103.718 301.952,103.718 302.357 C 103.718 303.222,105.263 305.769,105.815 305.814 C 106.025 305.831,106.611 306.696,107.117 307.736 C 107.624 308.777,108.267 309.628,108.547 309.628 C 108.827 309.628,109.056 309.971,109.056 310.391 C 109.056 310.820,109.310 311.153,109.638 311.153 C 109.976 311.153,110.313 311.622,110.443 312.273 C 110.566 312.889,110.905 313.484,111.196 313.596 C 111.487 313.707,111.725 314.042,111.725 314.338 C 111.725 314.635,112.069 314.967,112.488 315.077 C 112.908 315.187,113.251 315.550,113.251 315.884 C 113.251 316.218,113.508 316.492,113.823 316.492 C 114.137 316.492,114.395 316.749,114.395 317.064 C 114.395 317.378,114.635 317.636,114.929 317.636 C 115.223 317.636,115.662 318.108,115.905 318.684 C 116.767 320.733,117.256 321.459,117.918 321.669 C 118.287 321.786,118.589 322.128,118.589 322.428 C 118.589 322.728,118.847 322.974,119.161 322.974 C 119.476 322.974,119.733 323.248,119.733 323.582 C 119.733 323.916,120.076 324.279,120.496 324.389 C 120.915 324.499,121.258 324.826,121.258 325.116 C 121.258 325.406,121.516 325.643,121.830 325.643 C 122.148 325.643,122.402 325.982,122.402 326.406 C 122.402 326.915,122.656 327.169,123.165 327.169 C 123.589 327.169,123.928 327.423,123.928 327.741 C 123.928 328.055,124.185 328.313,124.500 328.313 C 124.814 328.313,125.071 328.586,125.071 328.920 C 125.071 329.255,125.415 329.618,125.834 329.727 C 126.254 329.837,126.597 330.164,126.597 330.454 C 126.597 330.745,126.854 330.982,127.169 330.982 C 127.483 330.982,127.741 331.255,127.741 331.590 C 127.741 331.924,128.084 332.287,128.503 332.397 C 128.923 332.506,129.266 332.833,129.266 333.124 C 129.266 333.414,129.416 333.651,129.599 333.651 C 129.783 333.651,130.588 334.252,131.390 334.986 C 132.191 335.720,133.242 336.320,133.726 336.320 C 134.350 336.320,134.604 336.541,134.604 337.083 C 134.604 337.507,134.859 337.846,135.176 337.846 C 135.491 337.846,135.748 338.103,135.748 338.418 C 135.748 338.735,136.087 338.990,136.511 338.990 C 137.019 338.990,137.274 339.244,137.274 339.752 C 137.274 340.183,137.528 340.515,137.858 340.515 C 138.179 340.515,138.540 340.772,138.661 341.087 C 138.786 341.413,139.355 341.659,139.984 341.659 C 140.833 341.659,141.087 341.834,141.087 342.421 C 141.087 342.930,141.341 343.184,141.849 343.184 C 142.269 343.184,142.612 343.401,142.612 343.666 C 142.612 344.136,143.245 344.565,145.377 345.540 C 145.953 345.804,146.425 346.232,146.425 346.491 C 146.425 346.751,147.026 347.075,147.760 347.213 C 148.524 347.356,149.094 347.690,149.094 347.993 C 149.094 348.284,149.438 348.522,149.857 348.522 C 150.276 348.522,150.621 348.737,150.623 348.999 C 150.626 349.544,153.331 351.192,154.222 351.192 C 154.548 351.192,154.814 351.361,154.814 351.568 C 154.814 351.775,155.415 352.195,156.149 352.502 C 156.883 352.808,157.483 353.240,157.483 353.460 C 157.483 353.680,157.998 353.861,158.627 353.861 C 159.398 353.861,159.771 354.050,159.771 354.442 C 159.771 354.782,160.243 355.118,160.907 355.251 C 161.531 355.376,162.238 355.715,162.479 356.004 C 162.719 356.293,163.323 356.530,163.822 356.530 C 164.320 356.530,165.071 356.873,165.491 357.293 C 165.910 357.712,166.578 358.055,166.975 358.055 C 167.372 358.055,167.796 358.313,167.917 358.627 C 168.044 358.959,168.614 359.199,169.273 359.199 C 169.911 359.199,170.558 359.463,170.746 359.799 C 170.930 360.129,171.812 360.496,172.704 360.616 C 173.597 360.736,174.416 361.067,174.526 361.351 C 174.639 361.646,175.280 361.868,176.018 361.868 C 176.896 361.868,177.312 362.047,177.312 362.423 C 177.312 362.754,177.845 363.078,178.633 363.226 C 179.359 363.362,180.152 363.713,180.395 364.006 C 180.639 364.299,181.523 364.538,182.369 364.538 C 183.286 364.538,184.070 364.767,184.324 365.108 C 184.578 365.451,185.701 365.778,187.131 365.925 C 188.763 366.094,189.514 366.335,189.514 366.689 C 189.514 367.051,190.047 367.207,191.283 367.207 C 192.489 367.207,193.199 367.408,193.514 367.838 C 193.814 368.249,194.725 368.531,196.122 368.647 C 197.302 368.745,198.464 369.062,198.704 369.351 C 199.009 369.719,200.074 369.876,202.254 369.876 C 204.615 369.876,205.729 370.060,206.864 370.639 C 207.998 371.217,209.112 371.401,211.473 371.401 C 213.776 371.401,214.711 371.550,215.062 371.973 C 215.768 372.824,251.520 372.835,252.644 371.985 C 253.151 371.602,254.367 371.422,256.508 371.413 C 258.225 371.407,259.737 371.230,259.867 371.020 C 259.996 370.810,260.521 370.639,261.033 370.639 C 261.545 370.639,261.964 370.467,261.964 370.257 C 261.964 370.030,263.412 369.876,265.545 369.876 C 268.226 369.876,269.178 369.745,269.328 369.354 C 269.452 369.029,270.353 368.763,271.713 368.650 C 273.144 368.532,274.058 368.251,274.360 367.838 C 274.676 367.407,275.386 367.207,276.603 367.207 C 277.764 367.207,278.454 367.024,278.586 366.682 C 278.708 366.364,279.668 366.057,281.018 365.904 C 282.245 365.765,283.457 365.401,283.711 365.095 C 283.965 364.788,284.753 364.538,285.461 364.538 C 286.298 364.538,286.749 364.354,286.749 364.015 C 286.749 363.677,287.373 363.423,288.523 363.293 C 289.590 363.173,290.433 362.849,290.639 362.481 C 290.834 362.132,291.471 361.868,292.119 361.868 C 292.744 361.868,293.346 361.632,293.457 361.343 C 293.570 361.048,294.488 360.707,295.543 360.567 C 296.829 360.396,297.426 360.140,297.426 359.758 C 297.426 359.451,297.678 359.199,297.986 359.199 C 298.943 359.199,301.621 357.626,301.621 357.064 C 301.621 356.724,302.040 356.530,302.777 356.530 C 303.430 356.530,304.024 356.292,304.143 355.981 C 304.259 355.680,304.866 355.320,305.491 355.183 C 306.117 355.045,306.722 354.692,306.835 354.397 C 306.948 354.102,307.285 353.861,307.584 353.861 C 307.882 353.861,308.222 353.614,308.337 353.312 C 308.453 353.010,309.048 352.654,309.660 352.519 C 310.272 352.385,310.772 352.108,310.772 351.904 C 310.772 351.700,311.287 351.354,311.916 351.134 C 312.545 350.915,313.060 350.599,313.060 350.433 C 313.060 350.267,313.489 350.023,314.013 349.891 C 314.538 349.759,314.967 349.398,314.967 349.087 C 314.967 348.777,315.310 348.522,315.729 348.522 C 316.149 348.522,316.492 348.279,316.492 347.981 C 316.492 347.683,317.018 347.323,317.662 347.182 C 318.305 347.041,318.924 346.684,319.037 346.389 C 319.150 346.094,319.482 345.853,319.774 345.853 C 320.066 345.853,320.305 345.633,320.305 345.365 C 320.305 345.096,320.777 344.664,321.354 344.404 C 323.519 343.428,324.500 342.744,324.500 342.210 C 324.500 341.907,324.757 341.659,325.071 341.659 C 325.386 341.659,325.643 341.401,325.643 341.087 C 325.643 340.772,325.945 340.515,326.314 340.515 C 326.683 340.515,327.200 340.172,327.462 339.752 C 327.724 339.333,328.285 338.990,328.709 338.990 C 329.133 338.990,329.579 338.732,329.700 338.418 C 329.821 338.103,330.159 337.846,330.451 337.846 C 330.743 337.846,330.982 337.502,330.982 337.083 C 330.982 336.575,331.236 336.320,331.745 336.320 C 332.168 336.320,332.507 336.066,332.507 335.748 C 332.507 335.434,332.765 335.176,333.079 335.176 C 333.397 335.176,333.651 334.837,333.651 334.414 C 333.651 333.915,333.905 333.651,334.386 333.651 C 334.791 333.651,335.379 333.394,335.694 333.079 C 336.008 332.765,336.448 332.507,336.671 332.507 C 336.894 332.507,337.291 332.164,337.553 331.745 C 337.815 331.325,338.245 330.982,338.509 330.982 C 338.773 330.982,338.990 330.745,338.990 330.454 C 338.990 330.164,339.333 329.837,339.752 329.727 C 340.172 329.618,340.515 329.255,340.515 328.920 C 340.515 328.586,340.772 328.313,341.087 328.313 C 341.401 328.313,341.659 328.075,341.659 327.785 C 341.659 327.495,342.002 327.168,342.421 327.058 C 342.841 326.949,343.184 326.585,343.184 326.251 C 343.184 325.917,343.441 325.643,343.756 325.643 C 344.071 325.643,344.328 325.406,344.328 325.116 C 344.328 324.826,344.671 324.499,345.091 324.389 C 345.510 324.279,345.853 323.916,345.853 323.582 C 345.853 323.248,346.111 322.974,346.425 322.974 C 346.740 322.974,346.997 322.737,346.997 322.447 C 346.997 322.157,347.340 321.830,347.760 321.720 C 348.179 321.610,348.522 321.247,348.522 320.913 C 348.522 320.579,348.780 320.305,349.094 320.305 C 349.409 320.305,349.666 320.068,349.666 319.778 C 349.666 319.487,350.010 319.160,350.429 319.051 C 350.848 318.941,351.192 318.596,351.192 318.284 C 351.192 317.973,351.449 317.619,351.764 317.498 C 352.078 317.377,352.336 317.101,352.336 316.885 C 352.336 316.669,352.679 316.149,353.098 315.729 C 353.518 315.310,353.861 314.709,353.861 314.395 C 353.861 314.080,354.118 313.823,354.433 313.823 C 354.751 313.823,355.005 313.484,355.005 313.060 C 355.005 312.552,355.259 312.297,355.767 312.297 C 356.191 312.297,356.530 312.043,356.530 311.725 C 356.530 311.411,356.787 311.153,357.102 311.153 C 357.420 311.153,357.674 310.815,357.674 310.391 C 357.674 309.882,357.928 309.628,358.437 309.628 C 358.924 309.628,359.199 309.374,359.199 308.925 C 359.199 308.538,359.542 307.911,359.962 307.531 C 360.381 307.151,360.724 306.610,360.724 306.328 C 360.724 306.046,360.982 305.815,361.296 305.815 C 361.614 305.815,361.868 305.476,361.868 305.052 C 361.868 304.629,362.123 304.290,362.440 304.290 C 362.755 304.290,363.012 304.144,363.012 303.967 C 363.012 303.789,363.356 303.248,363.775 302.765 C 364.194 302.281,364.538 301.588,364.538 301.225 C 364.538 300.863,364.881 300.476,365.300 300.366 C 365.720 300.256,366.063 299.893,366.063 299.559 C 366.063 299.225,366.320 298.951,366.635 298.951 C 367.034 298.951,367.207 298.549,367.207 297.617 C 367.207 296.536,367.352 296.282,367.969 296.282 C 368.389 296.282,368.732 296.043,368.732 295.751 C 368.732 295.459,368.990 295.121,369.304 295.000 C 369.631 294.875,369.876 294.306,369.876 293.669 C 369.876 292.879,370.096 292.500,370.639 292.359 C 371.058 292.249,371.401 291.886,371.401 291.551 C 371.401 291.217,371.659 290.944,371.973 290.944 C 372.369 290.944,372.545 290.546,372.545 289.654 C 372.545 288.684,372.735 288.314,373.308 288.164 C 373.727 288.054,374.071 287.710,374.071 287.398 C 374.071 287.086,374.328 286.732,374.643 286.611 C 374.957 286.491,375.214 285.996,375.214 285.511 C 375.214 285.027,375.558 284.337,375.977 283.978 C 376.397 283.619,376.740 282.998,376.740 282.599 C 376.740 282.200,376.997 281.775,377.312 281.654 C 377.639 281.529,377.884 280.960,377.884 280.323 C 377.884 279.533,378.104 279.154,378.646 279.012 C 379.194 278.869,379.409 278.492,379.409 277.674 C 379.409 277.014,379.649 276.443,379.981 276.316 C 380.296 276.195,380.553 275.668,380.553 275.145 C 380.553 274.583,380.866 274.025,381.316 273.785 C 381.805 273.523,382.078 272.986,382.078 272.287 C 382.078 271.670,382.326 271.102,382.650 270.977 C 382.970 270.855,383.222 270.288,383.222 269.694 C 383.222 269.043,383.518 268.445,383.985 268.153 C 384.471 267.849,384.747 267.264,384.747 266.536 C 384.747 265.777,384.938 265.396,385.319 265.396 C 385.719 265.396,385.891 264.993,385.891 264.061 C 385.891 263.179,386.070 262.726,386.419 262.726 C 386.997 262.726,387.403 261.595,387.411 259.962 C 387.415 259.286,387.620 258.913,387.989 258.913 C 388.389 258.913,388.561 258.509,388.561 257.563 C 388.561 256.739,388.858 255.893,389.323 255.394 C 389.757 254.928,390.086 254.048,390.086 253.353 C 390.086 252.619,390.314 252.044,390.658 251.912 C 391.035 251.767,391.230 251.170,391.230 250.155 C 391.230 249.126,391.482 248.365,391.992 247.855 C 392.553 247.295,392.755 246.584,392.755 245.174 C 392.755 243.820,392.923 243.191,393.327 243.036 C 393.738 242.878,393.899 242.236,393.899 240.760 C 393.899 239.256,394.042 238.704,394.430 238.704 C 395.164 238.704,395.424 237.848,395.424 235.431 C 395.424 233.849,395.558 233.365,395.996 233.365 C 396.458 233.365,396.568 232.761,396.568 230.216 C 396.568 227.479,396.668 227.004,397.331 226.590 C 397.988 226.179,398.093 225.701,398.093 223.113 C 398.093 220.911,398.246 219.986,398.665 219.638 C 399.120 219.261,399.237 218.152,399.237 214.253 C 399.237 211.233,399.384 209.342,399.619 209.342 C 399.868 209.342,400.000 202.860,400.000 190.658 C 400.000 178.456,399.868 171.973,399.619 171.973 C 399.385 171.973,399.237 170.139,399.237 167.234 C 399.237 163.530,399.112 162.370,398.665 161.923 C 398.252 161.509,398.093 160.501,398.093 158.276 C 398.093 155.615,397.991 155.138,397.331 154.726 C 396.668 154.312,396.568 153.836,396.568 151.100 C 396.568 148.555,396.458 147.950,395.996 147.950 C 395.558 147.950,395.424 147.467,395.424 145.884 C 395.424 143.468,395.164 142.612,394.430 142.612 C 394.041 142.612,393.899 142.057,393.899 140.542 C 393.899 139.210,393.695 138.268,393.327 137.900 C 393.006 137.579,392.755 136.647,392.755 135.776 C 392.755 134.731,392.505 133.973,391.992 133.460 C 391.456 132.924,391.230 132.189,391.230 130.982 C 391.230 129.783,391.072 129.266,390.707 129.266 C 390.369 129.266,390.115 128.643,389.985 127.492 C 389.865 126.425,389.541 125.582,389.173 125.376 C 388.795 125.165,388.561 124.529,388.561 123.718 C 388.561 122.803,388.386 122.402,387.989 122.402 C 387.620 122.402,387.415 122.029,387.411 121.354 C 387.403 119.721,386.997 118.589,386.419 118.589 C 386.070 118.589,385.891 118.137,385.891 117.255 C 385.891 116.322,385.719 115.920,385.319 115.920 C 384.934 115.920,384.747 115.535,384.747 114.740 C 384.747 113.881,384.540 113.506,383.985 113.361 C 383.412 113.211,383.222 112.841,383.222 111.872 C 383.222 110.979,383.046 110.582,382.650 110.582 C 382.252 110.582,382.078 110.180,382.078 109.260 C 382.078 108.329,381.853 107.819,381.316 107.531 C 380.886 107.301,380.553 106.733,380.553 106.230 C 380.553 105.738,380.296 105.123,379.981 104.862 C 379.666 104.601,379.409 103.991,379.409 103.506 C 379.409 102.960,379.119 102.533,378.646 102.383 C 378.121 102.216,377.884 101.806,377.884 101.064 C 377.884 100.458,377.633 99.890,377.312 99.767 C 376.997 99.646,376.740 99.197,376.740 98.769 C 376.740 98.341,376.397 97.697,375.977 97.338 C 375.558 96.979,375.214 96.288,375.214 95.804 C 375.214 95.320,374.974 94.831,374.680 94.719 C 374.386 94.606,374.059 94.182,373.953 93.777 C 373.847 93.372,373.487 93.041,373.153 93.041 C 372.713 93.041,372.545 92.673,372.545 91.706 C 372.545 90.824,372.366 90.372,372.018 90.372 C 371.728 90.372,371.401 90.029,371.291 89.609 C 371.181 89.190,370.818 88.847,370.484 88.847 C 370.077 88.847,369.874 88.500,369.869 87.798 C 369.863 86.758,368.466 85.033,367.630 85.033 C 367.397 85.033,367.207 84.433,367.207 83.699 C 367.207 82.817,367.028 82.364,366.679 82.364 C 366.389 82.364,366.062 82.021,365.952 81.602 C 365.843 81.182,365.480 80.839,365.145 80.839 C 364.724 80.839,364.538 80.487,364.538 79.695 C 364.538 78.956,364.344 78.551,363.991 78.551 C 363.691 78.551,363.336 78.208,363.203 77.788 C 363.070 77.369,362.715 77.026,362.415 77.026 C 362.114 77.026,361.868 76.683,361.868 76.263 C 361.868 75.839,361.614 75.500,361.296 75.500 C 360.982 75.500,360.724 75.270,360.724 74.988 C 360.724 74.706,360.381 74.164,359.962 73.785 C 359.542 73.405,359.199 72.778,359.199 72.391 C 359.199 71.942,358.924 71.687,358.437 71.687 C 357.928 71.687,357.674 71.433,357.674 70.925 C 357.674 70.501,357.420 70.162,357.102 70.162 C 356.787 70.162,356.530 69.905,356.530 69.590 C 356.530 69.272,356.191 69.018,355.767 69.018 C 355.259 69.018,355.005 68.764,355.005 68.255 C 355.005 67.832,354.751 67.493,354.433 67.493 C 354.118 67.493,353.861 67.235,353.861 66.921 C 353.861 66.606,353.547 66.036,353.164 65.652 C 352.781 65.269,352.358 64.669,352.223 64.318 C 352.088 63.967,351.821 63.680,351.629 63.680 C 351.438 63.680,351.191 63.337,351.081 62.917 C 350.971 62.498,350.608 62.154,350.274 62.154 C 349.940 62.154,349.666 61.897,349.666 61.582 C 349.666 61.268,349.429 61.010,349.139 61.010 C 348.849 61.010,348.522 60.667,348.412 60.248 C 348.302 59.828,347.939 59.485,347.605 59.485 C 347.271 59.485,346.997 59.228,346.997 58.913 C 346.997 58.599,346.760 58.341,346.470 58.341 C 346.180 58.341,345.852 57.998,345.743 57.579 C 345.633 57.159,345.270 56.816,344.936 56.816 C 344.601 56.816,344.328 56.559,344.328 56.244 C 344.328 55.929,344.091 55.672,343.800 55.672 C 343.510 55.672,343.183 55.329,343.073 54.909 C 342.964 54.490,342.601 54.147,342.266 54.147 C 341.932 54.147,341.659 53.889,341.659 53.575 C 341.659 53.260,341.401 53.003,341.087 53.003 C 340.772 53.003,340.515 52.729,340.515 52.395 C 340.515 52.061,340.172 51.698,339.752 51.588 C 339.333 51.478,338.990 51.151,338.990 50.861 C 338.990 50.571,338.738 50.334,338.431 50.334 C 338.124 50.334,337.689 49.990,337.464 49.571 C 337.240 49.152,336.878 48.808,336.661 48.808 C 336.444 48.808,336.008 48.551,335.694 48.236 C 335.379 47.922,334.791 47.664,334.386 47.664 C 333.905 47.664,333.651 47.401,333.651 46.902 C 333.651 46.478,333.397 46.139,333.079 46.139 C 332.765 46.139,332.507 45.882,332.507 45.567 C 332.507 45.249,332.168 44.995,331.745 44.995 C 331.236 44.995,330.982 44.741,330.982 44.233 C 330.982 43.813,330.743 43.470,330.451 43.470 C 330.159 43.470,329.821 43.213,329.700 42.898 C 329.579 42.583,329.133 42.326,328.709 42.326 C 328.285 42.326,327.724 41.983,327.462 41.563 C 327.200 41.144,326.683 40.801,326.314 40.801 C 325.945 40.801,325.643 40.543,325.643 40.229 C 325.643 39.914,325.406 39.657,325.116 39.657 C 324.826 39.657,324.499 39.314,324.389 38.894 C 324.279 38.475,323.904 38.132,323.555 38.132 C 323.205 38.132,322.662 37.874,322.348 37.560 C 322.033 37.245,321.445 36.988,321.040 36.988 C 320.559 36.988,320.305 36.724,320.305 36.225 C 320.305 35.794,320.051 35.462,319.721 35.462 C 319.400 35.462,319.038 35.205,318.918 34.890 C 318.797 34.576,318.294 34.318,317.799 34.318 C 317.290 34.318,316.723 33.987,316.492 33.556 C 316.267 33.136,315.832 32.793,315.525 32.793 C 315.218 32.793,314.967 32.536,314.967 32.221 C 314.967 31.903,314.628 31.649,314.204 31.649 C 313.785 31.649,313.098 31.306,312.679 30.887 C 312.259 30.467,311.659 30.124,311.344 30.124 C 311.030 30.124,310.772 29.867,310.772 29.552 C 310.772 29.233,310.433 28.980,310.006 28.980 C 309.584 28.980,308.946 28.637,308.586 28.217 C 308.227 27.798,307.709 27.455,307.434 27.455 C 307.160 27.455,306.840 27.208,306.725 26.906 C 306.609 26.604,306.028 26.251,305.434 26.120 C 304.840 25.990,304.259 25.636,304.143 25.334 C 304.024 25.024,303.430 24.786,302.777 24.786 C 302.019 24.786,301.621 24.594,301.621 24.231 C 301.621 23.899,301.085 23.576,300.286 23.426 C 299.522 23.282,298.951 22.949,298.951 22.646 C 298.951 22.355,298.678 22.116,298.344 22.116 C 298.010 22.116,297.301 21.773,296.768 21.354 C 296.234 20.934,295.387 20.591,294.884 20.591 C 294.382 20.591,293.872 20.334,293.751 20.019 C 293.615 19.666,293.036 19.447,292.238 19.447 C 291.383 19.447,290.944 19.266,290.944 18.914 C 290.944 18.309,288.235 16.778,287.166 16.778 C 286.778 16.778,286.246 16.519,285.984 16.202 C 285.721 15.886,284.853 15.523,284.054 15.395 C 283.255 15.267,282.511 14.926,282.400 14.636 C 282.288 14.346,281.758 14.109,281.220 14.109 C 280.683 14.109,280.144 13.850,280.023 13.535 C 279.902 13.219,279.123 12.852,278.293 12.719 C 277.463 12.586,276.550 12.244,276.265 11.959 C 275.978 11.672,274.965 11.439,274.002 11.439 C 272.767 11.439,272.259 11.285,272.259 10.908 C 272.259 10.320,271.456 9.914,270.294 9.914 C 269.877 9.914,269.278 9.657,268.964 9.342 C 268.649 9.028,267.718 8.770,266.894 8.770 C 265.845 8.770,265.396 8.606,265.396 8.222 C 265.396 7.853,264.803 7.600,263.584 7.451 C 262.588 7.329,261.258 7.032,260.629 6.792 C 260.000 6.551,258.429 6.283,257.138 6.197 C 255.221 6.068,254.757 5.905,254.600 5.307 C 254.446 4.719,254.063 4.576,252.645 4.576 C 251.429 4.576,250.814 4.398,250.662 4.004 C 250.498 3.576,249.814 3.432,247.952 3.432 C 246.110 3.432,245.345 3.273,245.015 2.823 C 244.672 2.354,243.608 2.166,240.397 2.007 C 237.461 1.861,236.135 1.646,235.920 1.281 C 235.695 0.899,234.616 0.763,231.821 0.763 C 229.546 0.763,228.027 0.610,228.027 0.381 C 228.027 0.135,223.569 0.000,215.417 0.000 L 202.807 0.000 202.929 0.858 M149.338 9.342 C 149.163 9.797,148.350 9.914,145.374 9.914 C 142.382 9.914,141.329 10.068,140.133 10.677 C 138.958 11.276,137.885 11.439,135.123 11.439 C 132.507 11.439,131.462 11.586,131.036 12.011 C 130.722 12.326,129.866 12.583,129.134 12.583 C 127.428 12.583,126.597 12.909,126.597 13.577 C 126.597 13.967,126.038 14.109,124.500 14.109 C 122.989 14.109,122.402 14.253,122.402 14.625 C 122.402 14.990,121.605 15.209,119.688 15.370 C 118.055 15.506,116.714 15.832,116.322 16.187 C 115.963 16.512,115.125 16.778,114.460 16.778 C 113.639 16.778,113.251 16.962,113.251 17.350 C 113.251 17.743,112.856 17.922,111.988 17.922 C 111.252 17.922,110.384 18.240,109.907 18.684 C 109.456 19.104,108.561 19.447,107.916 19.447 C 107.272 19.447,106.654 19.684,106.543 19.973 C 106.430 20.267,105.512 20.609,104.457 20.749 C 103.171 20.919,102.574 21.176,102.574 21.557 C 102.574 21.925,102.179 22.116,101.418 22.116 C 100.778 22.116,100.170 22.355,100.057 22.651 C 99.944 22.945,99.521 23.272,99.116 23.378 C 98.711 23.484,98.379 23.844,98.379 24.178 C 98.379 24.618,98.012 24.786,97.045 24.786 C 96.131 24.786,95.710 24.960,95.710 25.340 C 95.710 25.672,95.174 25.995,94.376 26.145 C 93.611 26.289,93.041 26.622,93.041 26.925 C 93.041 27.216,92.698 27.455,92.278 27.455 C 91.859 27.455,91.516 27.698,91.516 27.996 C 91.516 28.294,90.989 28.654,90.346 28.795 C 89.703 28.936,89.084 29.293,88.971 29.588 C 88.857 29.883,88.360 30.124,87.866 30.124 C 87.357 30.124,86.790 30.455,86.559 30.887 C 86.334 31.306,85.899 31.649,85.592 31.649 C 85.285 31.649,85.033 31.907,85.033 32.221 C 85.033 32.539,84.694 32.793,84.271 32.793 C 83.851 32.793,83.508 33.032,83.508 33.324 C 83.508 33.907,82.707 34.318,81.570 34.318 C 81.168 34.318,80.839 34.576,80.839 34.890 C 80.839 35.205,80.667 35.462,80.458 35.462 C 80.248 35.462,79.733 35.806,79.314 36.225 C 78.894 36.644,78.208 36.988,77.788 36.988 C 77.365 36.988,77.026 37.242,77.026 37.560 C 77.026 37.874,76.752 38.132,76.418 38.132 C 76.084 38.132,75.721 38.475,75.611 38.894 C 75.501 39.314,75.098 39.657,74.716 39.657 C 74.333 39.657,73.908 39.839,73.770 40.062 C 73.632 40.284,73.108 40.623,72.604 40.815 C 72.100 41.006,71.687 41.425,71.687 41.745 C 71.687 42.072,71.354 42.326,70.925 42.326 C 70.501 42.326,70.162 42.580,70.162 42.898 C 70.162 43.213,69.905 43.470,69.590 43.470 C 69.272 43.470,69.018 43.809,69.018 44.233 C 69.018 44.656,68.764 44.995,68.446 44.995 C 68.132 44.995,67.531 45.338,67.112 45.758 C 66.692 46.177,66.092 46.520,65.777 46.520 C 65.462 46.520,65.205 46.778,65.205 47.092 C 65.205 47.410,64.866 47.664,64.442 47.664 C 64.019 47.664,63.680 47.919,63.680 48.236 C 63.680 48.551,63.406 48.808,63.072 48.808 C 62.738 48.808,62.375 49.152,62.265 49.571 C 62.155 49.990,61.828 50.334,61.538 50.334 C 61.248 50.334,61.010 50.591,61.010 50.906 C 61.010 51.223,60.672 51.478,60.248 51.478 C 59.739 51.478,59.485 51.732,59.485 52.240 C 59.485 52.664,59.231 53.003,58.913 53.003 C 58.599 53.003,58.341 53.260,58.341 53.575 C 58.341 53.893,58.002 54.147,57.579 54.147 C 57.070 54.147,56.816 54.401,56.816 54.909 C 56.816 55.333,56.562 55.672,56.244 55.672 C 55.929 55.672,55.672 55.929,55.672 56.244 C 55.672 56.562,55.333 56.816,54.909 56.816 C 54.401 56.816,54.147 57.070,54.147 57.579 C 54.147 58.002,53.893 58.341,53.575 58.341 C 53.260 58.341,53.003 58.599,53.003 58.913 C 53.003 59.231,52.664 59.485,52.240 59.485 C 51.732 59.485,51.478 59.739,51.478 60.248 C 51.478 60.672,51.223 61.010,50.906 61.010 C 50.591 61.010,50.334 61.268,50.334 61.582 C 50.334 61.900,49.995 62.154,49.571 62.154 C 49.063 62.154,48.808 62.409,48.808 62.917 C 48.808 63.341,48.554 63.680,48.236 63.680 C 47.922 63.680,47.664 63.917,47.664 64.207 C 47.664 64.497,47.321 64.824,46.902 64.934 C 46.482 65.044,46.139 65.407,46.139 65.741 C 46.139 66.075,45.882 66.349,45.567 66.349 C 45.249 66.349,44.995 66.688,44.995 67.112 C 44.995 67.541,44.741 67.874,44.414 67.874 C 44.073 67.874,43.738 68.347,43.603 69.018 C 43.478 69.647,43.139 70.162,42.850 70.162 C 42.562 70.162,42.326 70.505,42.326 70.925 C 42.326 71.433,42.072 71.687,41.563 71.687 C 41.140 71.687,40.801 71.942,40.801 72.259 C 40.801 72.574,40.543 72.831,40.229 72.831 C 39.914 72.831,39.657 73.154,39.657 73.549 C 39.657 73.947,39.316 74.357,38.894 74.467 C 38.339 74.612,38.132 74.987,38.132 75.846 C 38.132 76.640,37.945 77.026,37.560 77.026 C 37.245 77.026,36.988 77.263,36.988 77.553 C 36.988 77.843,36.644 78.170,36.225 78.280 C 35.806 78.390,35.462 78.753,35.462 79.087 C 35.462 79.421,35.224 79.695,34.933 79.695 C 34.630 79.695,34.296 80.265,34.153 81.030 C 34.003 81.828,33.680 82.364,33.348 82.364 C 33.043 82.364,32.793 82.603,32.793 82.895 C 32.793 83.187,32.552 83.519,32.257 83.632 C 31.962 83.745,31.605 84.364,31.464 85.008 C 31.323 85.651,30.964 86.177,30.666 86.177 C 30.368 86.177,30.124 86.520,30.124 86.940 C 30.124 87.359,29.874 87.703,29.569 87.703 C 29.237 87.703,28.914 88.238,28.764 89.037 C 28.621 89.802,28.288 90.372,27.984 90.372 C 27.693 90.372,27.455 90.635,27.455 90.956 C 27.455 91.277,27.208 91.634,26.906 91.750 C 26.604 91.866,26.251 92.447,26.120 93.041 C 25.990 93.635,25.636 94.216,25.334 94.332 C 25.032 94.448,24.786 94.812,24.786 95.142 C 24.786 95.472,24.442 96.110,24.023 96.561 C 23.603 97.011,23.260 97.586,23.260 97.839 C 23.260 98.091,23.003 98.397,22.688 98.517 C 22.354 98.646,22.116 99.217,22.116 99.893 C 22.116 100.627,21.922 101.049,21.585 101.049 C 21.002 101.049,20.591 101.850,20.591 102.986 C 20.591 103.389,20.334 103.718,20.019 103.718 C 19.623 103.718,19.447 104.115,19.447 105.008 C 19.447 105.977,19.258 106.348,18.684 106.498 C 18.129 106.643,17.922 107.018,17.922 107.877 C 17.922 108.671,17.735 109.056,17.350 109.056 C 16.954 109.056,16.778 109.454,16.778 110.346 C 16.778 111.316,16.588 111.686,16.015 111.836 C 15.467 111.979,15.253 112.356,15.253 113.174 C 15.253 113.835,15.012 114.405,14.681 114.533 C 14.346 114.661,14.109 115.232,14.109 115.908 C 14.109 116.555,13.773 117.399,13.346 117.827 C 12.874 118.299,12.583 119.098,12.583 119.924 C 12.583 120.856,12.411 121.258,12.011 121.258 C 11.630 121.258,11.439 121.640,11.439 122.402 C 11.439 123.038,11.101 123.885,10.677 124.309 C 10.214 124.772,9.914 125.580,9.914 126.365 C 9.914 127.164,9.695 127.743,9.342 127.879 C 8.941 128.033,8.770 128.658,8.770 129.972 C 8.770 131.526,8.640 131.880,8.008 132.046 C 7.388 132.208,7.245 132.566,7.245 133.956 C 7.245 135.125,7.064 135.736,6.673 135.886 C 6.256 136.046,6.101 136.703,6.101 138.314 C 6.101 140.109,5.958 140.611,5.338 140.998 C 4.745 141.369,4.576 141.887,4.576 143.337 C 4.576 144.641,4.404 145.265,4.004 145.419 C 3.566 145.587,3.432 146.308,3.432 148.497 C 3.432 150.965,3.328 151.411,2.669 151.764 C 1.999 152.122,1.907 152.562,1.907 155.399 C 1.907 158.014,1.798 158.627,1.335 158.627 C 0.862 158.627,0.763 159.326,0.763 162.631 C 0.763 165.046,0.611 166.635,0.381 166.635 C 0.131 166.635,0.000 174.897,0.000 190.658 C 0.000 206.419,0.131 214.681,0.381 214.681 C 0.613 214.681,0.763 216.401,0.763 219.078 C 0.763 222.635,0.872 223.517,1.335 223.694 C 1.771 223.862,1.907 224.575,1.907 226.702 C 1.907 229.823,2.124 230.696,2.901 230.696 C 3.304 230.696,3.432 231.338,3.432 233.365 C 3.432 235.484,3.550 236.034,4.004 236.034 C 4.442 236.034,4.576 236.518,4.576 238.100 C 4.576 240.517,4.836 241.373,5.570 241.373 C 5.960 241.373,6.101 241.932,6.101 243.470 C 6.101 245.080,6.234 245.567,6.673 245.567 C 7.101 245.567,7.245 246.023,7.245 247.382 C 7.245 248.784,7.419 249.305,8.008 249.673 C 8.586 250.035,8.770 250.562,8.770 251.862 C 8.770 253.130,8.919 253.575,9.342 253.575 C 9.768 253.575,9.914 254.024,9.914 255.326 C 9.914 256.757,10.054 257.115,10.677 257.278 C 11.289 257.438,11.439 257.798,11.439 259.102 C 11.439 260.081,11.667 260.915,12.011 261.201 C 12.326 261.462,12.583 261.984,12.583 262.361 C 12.583 263.453,13.003 264.252,13.577 264.252 C 13.930 264.252,14.109 264.700,14.109 265.586 C 14.109 266.518,14.281 266.921,14.681 266.921 C 15.075 266.921,15.253 267.317,15.253 268.196 C 15.253 268.988,15.542 269.734,16.015 270.162 C 16.435 270.542,16.778 271.242,16.778 271.719 C 16.778 272.196,17.035 272.844,17.350 273.158 C 17.664 273.473,17.922 274.000,17.922 274.329 C 17.922 274.659,18.265 275.272,18.684 275.691 C 19.104 276.111,19.447 276.874,19.447 277.388 C 19.447 277.902,19.675 278.460,19.952 278.627 C 20.230 278.795,20.568 279.233,20.703 279.600 C 20.838 279.967,21.211 280.267,21.532 280.267 C 21.946 280.267,22.116 280.657,22.116 281.602 C 22.116 282.534,22.289 282.936,22.688 282.936 C 23.003 282.936,23.260 283.265,23.260 283.668 C 23.260 284.804,23.671 285.605,24.254 285.605 C 24.592 285.605,24.786 286.027,24.786 286.761 C 24.786 287.424,25.024 288.009,25.343 288.131 C 25.650 288.249,26.004 288.672,26.131 289.072 C 26.258 289.472,26.608 289.800,26.908 289.800 C 27.234 289.800,27.455 290.177,27.455 290.733 C 27.455 291.705,28.937 293.613,29.691 293.613 C 29.932 293.613,30.124 294.206,30.124 294.948 C 30.124 295.852,30.300 296.282,30.670 296.282 C 30.971 296.282,31.325 296.625,31.459 297.045 C 31.592 297.464,31.946 297.807,32.247 297.807 C 32.597 297.807,32.793 298.209,32.793 298.926 C 32.793 299.709,33.022 300.116,33.556 300.286 C 33.975 300.419,34.318 300.774,34.318 301.074 C 34.318 301.375,34.576 301.621,34.890 301.621 C 35.208 301.621,35.462 301.960,35.462 302.383 C 35.462 302.892,35.717 303.146,36.225 303.146 C 36.820 303.146,36.988 303.400,36.988 304.302 C 36.988 304.977,37.225 305.549,37.560 305.677 C 37.874 305.798,38.132 306.136,38.132 306.428 C 38.132 306.720,38.475 306.959,38.894 306.959 C 39.403 306.959,39.657 307.213,39.657 307.722 C 39.657 308.145,39.911 308.484,40.229 308.484 C 40.583 308.484,40.801 308.843,40.801 309.424 C 40.801 309.974,41.117 310.533,41.563 310.772 C 41.983 310.997,42.326 311.432,42.326 311.739 C 42.326 312.046,42.583 312.297,42.898 312.297 C 43.213 312.297,43.470 312.571,43.470 312.905 C 43.470 313.239,43.813 313.603,44.233 313.712 C 44.652 313.822,44.995 314.149,44.995 314.439 C 44.995 314.729,45.253 314.967,45.567 314.967 C 45.885 314.967,46.139 315.306,46.139 315.729 C 46.139 316.238,46.393 316.492,46.902 316.492 C 47.325 316.492,47.664 316.746,47.664 317.064 C 47.664 317.378,47.922 317.636,48.236 317.636 C 48.554 317.636,48.808 317.975,48.808 318.398 C 48.808 318.907,49.063 319.161,49.571 319.161 C 49.995 319.161,50.334 319.415,50.334 319.733 C 50.334 320.048,50.591 320.305,50.906 320.305 C 51.291 320.305,51.478 320.690,51.478 321.485 C 51.478 322.344,51.685 322.719,52.240 322.864 C 52.660 322.973,53.003 323.306,53.003 323.603 C 53.003 323.899,53.290 324.252,53.641 324.387 C 54.422 324.687,55.672 325.902,55.672 326.362 C 55.672 326.547,56.015 326.788,56.435 326.898 C 56.854 327.008,57.197 327.371,57.197 327.705 C 57.197 328.126,57.549 328.313,58.341 328.313 C 59.231 328.313,59.485 328.482,59.485 329.075 C 59.485 329.584,59.739 329.838,60.248 329.838 C 60.672 329.838,61.010 330.092,61.010 330.410 C 61.010 330.724,61.268 330.982,61.582 330.982 C 61.900 330.982,62.154 331.321,62.154 331.745 C 62.154 332.253,62.409 332.507,62.917 332.507 C 63.341 332.507,63.680 332.761,63.680 333.079 C 63.680 333.394,63.937 333.651,64.252 333.651 C 64.569 333.651,64.824 333.990,64.824 334.414 C 64.824 334.922,65.078 335.176,65.586 335.176 C 66.010 335.176,66.349 335.431,66.349 335.748 C 66.349 336.063,66.595 336.320,66.895 336.320 C 67.196 336.320,67.550 336.663,67.684 337.083 C 67.853 337.617,68.260 337.846,69.044 337.846 C 69.784 337.846,70.162 338.039,70.162 338.418 C 70.162 338.735,70.501 338.990,70.925 338.990 C 71.433 338.990,71.687 339.244,71.687 339.752 C 71.687 340.176,71.942 340.515,72.259 340.515 C 72.574 340.515,72.831 340.772,72.831 341.087 C 72.831 341.405,73.170 341.659,73.594 341.659 C 74.013 341.659,74.357 341.898,74.357 342.190 C 74.357 342.773,75.158 343.184,76.294 343.184 C 76.697 343.184,77.029 343.398,77.032 343.661 C 77.040 344.221,78.677 345.853,79.231 345.853 C 79.441 345.853,79.706 346.094,79.819 346.389 C 79.932 346.684,80.551 347.041,81.194 347.182 C 81.838 347.323,82.364 347.683,82.364 347.981 C 82.364 348.279,82.707 348.522,83.127 348.522 C 83.546 348.522,83.889 348.766,83.889 349.064 C 83.889 349.362,84.390 349.716,85.002 349.850 C 85.613 349.984,86.208 350.341,86.324 350.643 C 86.440 350.945,86.963 351.192,87.487 351.192 C 88.048 351.192,88.606 351.504,88.847 351.954 C 89.071 352.374,89.506 352.717,89.813 352.717 C 90.120 352.717,90.372 352.974,90.372 353.289 C 90.372 353.635,90.725 353.861,91.266 353.861 C 91.758 353.861,92.471 354.204,92.850 354.623 C 93.230 355.043,93.753 355.386,94.013 355.386 C 94.272 355.386,94.583 355.643,94.704 355.958 C 94.825 356.273,95.363 356.530,95.901 356.530 C 96.438 356.530,96.973 356.777,97.089 357.079 C 97.204 357.380,97.811 357.740,98.437 357.877 C 99.063 358.015,99.667 358.368,99.781 358.663 C 99.894 358.958,100.311 359.199,100.708 359.199 C 101.105 359.199,101.430 359.343,101.430 359.519 C 101.430 359.944,103.177 360.724,104.129 360.724 C 104.545 360.724,104.984 360.982,105.105 361.296 C 105.228 361.616,105.794 361.868,106.387 361.868 C 106.971 361.868,107.539 362.101,107.647 362.384 C 107.893 363.024,110.735 364.538,111.691 364.538 C 112.078 364.538,112.605 364.791,112.861 365.100 C 113.118 365.409,113.899 365.769,114.597 365.900 C 115.296 366.031,115.959 366.378,116.072 366.672 C 116.185 366.966,116.728 367.207,117.278 367.207 C 117.828 367.207,118.714 367.550,119.248 367.969 C 119.781 368.389,120.691 368.732,121.269 368.732 C 121.852 368.732,122.418 368.987,122.540 369.304 C 122.694 369.705,123.320 369.876,124.634 369.876 C 126.187 369.876,126.542 370.007,126.707 370.639 C 126.847 371.172,127.233 371.405,127.991 371.413 C 128.587 371.420,129.408 371.678,129.815 371.985 C 130.223 372.293,131.062 372.545,131.680 372.545 C 132.298 372.545,133.005 372.820,133.251 373.156 C 133.507 373.506,134.499 373.857,135.572 373.978 C 136.603 374.094,137.677 374.420,137.959 374.702 C 138.254 374.996,139.295 375.214,140.405 375.214 C 141.713 375.214,142.477 375.406,142.771 375.808 C 143.021 376.150,144.161 376.531,145.465 376.708 C 146.707 376.876,147.789 377.210,147.869 377.449 C 147.954 377.705,148.889 377.884,150.145 377.884 C 151.558 377.884,152.501 378.088,152.946 378.490 C 153.424 378.923,154.714 379.157,157.455 379.308 C 159.998 379.448,161.440 379.694,161.724 380.036 C 162.029 380.404,163.185 380.553,165.728 380.553 C 167.858 380.553,169.304 380.707,169.304 380.934 C 169.304 381.181,174.007 381.316,182.650 381.316 L 195.996 381.316 195.996 380.362 C 195.996 379.540,195.825 379.409,194.753 379.409 C 193.923 379.409,193.352 379.156,193.034 378.646 C 192.651 378.033,192.145 377.884,190.452 377.884 C 188.932 377.884,188.285 377.725,188.126 377.312 C 187.979 376.928,187.376 376.740,186.291 376.740 C 185.159 376.740,184.468 376.511,183.985 375.977 C 183.433 375.367,182.810 375.214,180.875 375.214 C 178.979 375.214,178.456 375.091,178.456 374.643 C 178.456 374.261,178.074 374.071,177.312 374.071 C 176.676 374.071,175.829 373.732,175.405 373.308 C 174.942 372.845,174.134 372.545,173.349 372.545 C 172.550 372.545,171.971 372.326,171.835 371.973 C 171.691 371.596,171.094 371.401,170.082 371.401 C 168.961 371.401,168.420 371.196,168.072 370.639 C 167.754 370.129,167.182 369.876,166.353 369.876 C 165.502 369.876,165.110 369.696,165.110 369.304 C 165.110 368.908,164.712 368.732,163.819 368.732 C 162.850 368.732,162.480 368.543,162.330 367.969 C 162.187 367.422,161.810 367.207,160.992 367.207 C 160.331 367.207,159.761 366.967,159.633 366.635 C 159.513 366.320,158.979 366.063,158.449 366.063 C 157.918 366.063,157.140 365.720,156.721 365.300 C 156.301 364.881,155.615 364.538,155.195 364.538 C 154.772 364.538,154.433 364.283,154.433 363.966 C 154.433 363.570,154.035 363.394,153.143 363.394 C 152.173 363.394,151.803 363.204,151.653 362.631 C 151.508 362.076,151.133 361.868,150.274 361.868 C 149.480 361.868,149.094 361.682,149.094 361.296 C 149.094 360.979,148.755 360.724,148.332 360.724 C 147.903 360.724,147.569 360.470,147.569 360.143 C 147.569 359.798,147.090 359.466,146.392 359.326 C 145.745 359.197,145.126 358.858,145.017 358.573 C 144.908 358.288,144.322 358.055,143.715 358.055 C 142.960 358.055,142.612 357.864,142.612 357.448 C 142.612 357.113,142.269 356.750,141.849 356.641 C 141.430 356.531,141.087 356.204,141.087 355.914 C 141.087 355.623,140.770 355.386,140.383 355.386 C 139.996 355.386,139.369 355.043,138.990 354.623 C 138.610 354.204,138.063 353.861,137.775 353.861 C 137.486 353.861,137.151 353.603,137.030 353.289 C 136.909 352.974,136.610 352.717,136.364 352.717 C 136.119 352.717,135.624 352.374,135.265 351.954 C 134.906 351.535,134.267 351.192,133.845 351.192 C 133.424 351.192,133.079 350.954,133.079 350.664 C 133.079 350.374,132.736 350.047,132.316 349.937 C 131.897 349.827,131.554 349.464,131.554 349.130 C 131.554 348.796,131.315 348.522,131.023 348.522 C 130.731 348.522,130.393 348.265,130.272 347.950 C 130.144 347.616,129.572 347.378,128.897 347.378 C 127.995 347.378,127.741 347.211,127.741 346.616 C 127.741 346.196,127.502 345.853,127.210 345.853 C 126.917 345.853,126.580 345.596,126.459 345.281 C 126.338 344.967,125.977 344.709,125.655 344.709 C 125.326 344.709,125.071 344.377,125.071 343.947 C 125.071 343.527,124.832 343.184,124.540 343.184 C 124.248 343.184,123.910 342.927,123.790 342.612 C 123.669 342.297,123.307 342.040,122.986 342.040 C 122.665 342.040,122.402 341.767,122.402 341.432 C 122.402 341.098,122.059 340.735,121.640 340.625 C 121.220 340.516,120.877 340.188,120.877 339.898 C 120.877 339.608,120.620 339.371,120.305 339.371 C 119.990 339.371,119.733 339.097,119.733 338.763 C 119.733 338.429,119.390 338.066,118.970 337.956 C 118.551 337.846,118.208 337.519,118.208 337.229 C 118.208 336.939,117.950 336.702,117.636 336.702 C 117.321 336.702,117.064 336.428,117.064 336.094 C 117.064 335.760,116.721 335.397,116.301 335.287 C 115.882 335.177,115.539 334.850,115.539 334.560 C 115.539 334.270,115.281 334.032,114.967 334.032 C 114.652 334.032,114.395 333.759,114.395 333.425 C 114.395 333.091,114.051 332.727,113.632 332.618 C 113.213 332.508,112.869 332.181,112.869 331.891 C 112.869 331.601,112.612 331.363,112.297 331.363 C 111.980 331.363,111.725 331.024,111.725 330.601 C 111.725 330.092,111.471 329.838,110.963 329.838 C 110.532 329.838,110.200 329.584,110.200 329.254 C 110.200 328.933,109.943 328.571,109.628 328.451 C 109.314 328.330,109.056 327.992,109.056 327.700 C 109.056 327.408,108.713 327.169,108.294 327.169 C 107.800 327.169,107.531 326.915,107.531 326.447 C 107.531 326.050,107.274 325.626,106.959 325.506 C 106.644 325.385,106.387 324.872,106.387 324.365 C 106.387 323.765,106.121 323.375,105.624 323.245 C 105.205 323.135,104.862 322.772,104.862 322.438 C 104.862 322.104,104.604 321.830,104.290 321.830 C 103.975 321.830,103.718 321.557,103.718 321.223 C 103.718 320.888,103.375 320.525,102.955 320.416 C 102.415 320.274,102.193 319.895,102.193 319.117 C 102.193 318.394,101.997 318.017,101.621 318.017 C 101.303 318.017,101.049 317.678,101.049 317.255 C 101.049 316.746,100.794 316.492,100.286 316.492 C 99.778 316.492,99.523 316.238,99.523 315.729 C 99.523 315.306,99.269 314.967,98.951 314.967 C 98.566 314.967,98.379 314.581,98.379 313.787 C 98.379 312.987,98.165 312.549,97.712 312.426 C 97.075 312.252,95.710 309.871,95.710 308.931 C 95.710 308.685,95.367 308.484,94.948 308.484 C 94.330 308.484,94.185 308.230,94.185 307.150 C 94.185 306.218,94.012 305.815,93.613 305.815 C 93.294 305.815,93.041 305.476,93.041 305.049 C 93.041 304.627,92.698 303.988,92.278 303.629 C 91.859 303.270,91.516 302.671,91.516 302.298 C 91.516 301.926,91.258 301.621,90.944 301.621 C 90.559 301.621,90.372 301.235,90.372 300.441 C 90.372 299.582,90.164 299.207,89.609 299.062 C 89.036 298.912,88.847 298.542,88.847 297.572 C 88.847 296.680,88.670 296.282,88.275 296.282 C 87.889 296.282,87.703 295.897,87.703 295.103 C 87.703 294.244,87.495 293.869,86.940 293.723 C 86.348 293.569,86.177 293.203,86.177 292.090 C 86.177 291.280,85.928 290.449,85.605 290.181 C 85.291 289.920,85.033 289.197,85.033 288.573 C 85.033 287.761,84.817 287.384,84.271 287.241 C 83.698 287.091,83.508 286.721,83.508 285.752 C 83.508 284.859,83.332 284.461,82.936 284.461 C 82.503 284.461,82.364 283.991,82.364 282.519 C 82.364 280.898,82.238 280.544,81.602 280.377 C 80.970 280.212,80.839 279.857,80.839 278.316 C 80.839 276.915,80.697 276.454,80.267 276.454 C 79.856 276.454,79.695 276.034,79.695 274.960 C 79.695 273.097,79.387 272.259,78.701 272.259 C 78.318 272.259,78.170 271.728,78.170 270.353 C 78.170 268.912,78.030 268.446,77.598 268.446 C 77.144 268.446,77.026 267.895,77.026 265.777 C 77.026 263.362,76.953 263.108,76.263 263.108 C 75.561 263.108,75.500 262.854,75.500 259.885 C 75.500 257.525,75.358 256.582,74.967 256.358 C 74.587 256.141,74.395 255.032,74.300 252.495 C 74.193 249.650,74.032 248.839,73.499 248.449 C 72.913 248.021,72.831 247.239,72.831 242.025 C 72.831 237.257,72.719 235.976,72.259 235.517 C 71.421 234.679,71.432 216.385,72.271 215.275 C 72.709 214.697,72.831 213.217,72.831 208.507 C 72.831 203.628,72.932 202.479,73.359 202.479 C 74.096 202.479,74.345 201.260,74.351 197.617 C 74.356 195.077,74.467 194.471,74.929 194.471 C 75.392 194.471,75.500 193.857,75.500 191.230 C 75.500 188.714,75.619 187.989,76.032 187.989 C 76.766 187.989,77.026 187.133,77.026 184.716 C 77.026 183.134,77.160 182.650,77.598 182.650 C 78.037 182.650,78.170 182.163,78.170 180.553 C 78.170 179.021,78.312 178.456,78.697 178.456 C 79.315 178.456,79.682 177.303,79.690 175.337 C 79.693 174.566,79.952 173.677,80.267 173.362 C 80.582 173.048,80.839 172.263,80.839 171.619 C 80.839 170.876,81.032 170.448,81.366 170.448 C 81.945 170.448,82.351 169.316,82.359 167.684 C 82.362 167.008,82.568 166.635,82.936 166.635 C 83.349 166.635,83.508 166.211,83.508 165.110 C 83.508 164.065,83.674 163.584,84.036 163.584 C 84.614 163.584,85.020 162.453,85.028 160.820 C 85.032 160.144,85.237 159.771,85.605 159.771 C 86.005 159.771,86.177 159.369,86.177 158.437 C 86.177 157.356,86.323 157.102,86.940 157.102 C 87.557 157.102,87.703 156.848,87.703 155.767 C 87.703 154.835,87.875 154.433,88.275 154.433 C 88.674 154.433,88.847 154.030,88.847 153.098 C 88.847 152.018,88.992 151.764,89.609 151.764 C 90.227 151.764,90.372 151.509,90.372 150.429 C 90.372 149.497,90.544 149.094,90.944 149.094 C 91.343 149.094,91.516 148.692,91.516 147.760 C 91.516 146.679,91.661 146.425,92.278 146.425 C 92.787 146.425,93.041 146.171,93.041 145.663 C 93.041 145.239,93.295 144.900,93.613 144.900 C 93.989 144.900,94.185 144.524,94.185 143.800 C 94.185 143.022,94.407 142.643,94.948 142.502 C 95.503 142.356,95.710 141.981,95.710 141.122 C 95.710 140.328,95.897 139.943,96.282 139.943 C 96.600 139.943,96.854 139.604,96.854 139.180 C 96.854 138.672,97.108 138.418,97.617 138.418 C 98.234 138.418,98.379 138.163,98.379 137.083 C 98.379 136.151,98.552 135.748,98.951 135.748 C 99.266 135.748,99.523 135.491,99.523 135.176 C 99.523 134.862,99.797 134.604,100.131 134.604 C 100.465 134.604,100.828 134.261,100.938 133.842 C 101.048 133.422,101.375 133.079,101.665 133.079 C 102.014 133.079,102.193 132.627,102.193 131.745 C 102.193 130.664,102.338 130.410,102.955 130.410 C 103.375 130.410,103.718 130.171,103.718 129.879 C 103.718 129.587,103.975 129.249,104.290 129.128 C 104.604 129.007,104.862 128.646,104.862 128.325 C 104.862 128.003,105.135 127.741,105.469 127.741 C 105.804 127.741,106.167 127.398,106.277 126.978 C 106.386 126.559,106.713 126.215,107.003 126.215 C 107.297 126.215,107.531 125.833,107.531 125.354 C 107.531 124.880,107.874 124.278,108.294 124.016 C 108.713 123.754,109.056 123.284,109.056 122.971 C 109.056 122.658,109.314 122.402,109.628 122.402 C 109.943 122.402,110.200 122.145,110.200 121.830 C 110.200 121.516,110.474 121.258,110.808 121.258 C 111.142 121.258,111.505 120.915,111.615 120.496 C 111.725 120.076,112.052 119.733,112.342 119.733 C 112.632 119.733,112.869 119.476,112.869 119.161 C 112.869 118.847,113.143 118.589,113.477 118.589 C 113.811 118.589,114.174 118.246,114.284 117.827 C 114.394 117.407,114.721 117.064,115.011 117.064 C 115.301 117.064,115.539 116.806,115.539 116.492 C 115.539 116.177,115.812 115.920,116.146 115.920 C 116.480 115.920,116.844 115.577,116.953 115.157 C 117.063 114.738,117.390 114.395,117.680 114.395 C 117.970 114.395,118.208 114.051,118.208 113.632 C 118.208 113.124,118.462 112.869,118.970 112.869 C 119.390 112.869,119.733 112.633,119.733 112.345 C 119.733 112.057,120.248 111.718,120.877 111.592 C 121.548 111.458,122.021 111.123,122.021 110.782 C 122.021 110.454,122.354 110.200,122.784 110.200 C 123.207 110.200,123.546 109.946,123.546 109.628 C 123.546 109.314,123.820 109.056,124.154 109.056 C 124.488 109.056,124.851 108.713,124.961 108.294 C 125.071 107.874,125.403 107.531,125.700 107.531 C 125.997 107.531,126.338 107.274,126.459 106.959 C 126.580 106.644,126.917 106.387,127.210 106.387 C 127.502 106.387,127.741 106.044,127.741 105.624 C 127.741 105.034,127.995 104.862,128.866 104.862 C 129.484 104.862,130.128 104.634,130.296 104.356 C 130.463 104.078,130.901 103.741,131.268 103.606 C 131.635 103.471,131.935 103.098,131.935 102.777 C 131.935 102.382,132.306 102.193,133.079 102.193 C 133.799 102.193,134.223 101.997,134.223 101.665 C 134.223 101.375,134.566 101.048,134.986 100.938 C 135.405 100.828,135.748 100.465,135.748 100.131 C 135.748 99.709,136.101 99.523,136.904 99.523 C 137.580 99.523,138.151 99.286,138.280 98.951 C 138.400 98.637,138.727 98.379,139.005 98.379 C 139.283 98.379,139.619 98.036,139.752 97.617 C 139.922 97.083,140.329 96.854,141.112 96.854 C 141.852 96.854,142.231 96.661,142.231 96.282 C 142.231 95.964,142.570 95.710,142.993 95.710 C 143.502 95.710,143.756 95.456,143.756 94.948 C 143.756 94.314,144.010 94.185,145.254 94.185 C 146.078 94.185,147.009 93.928,147.324 93.613 C 147.639 93.298,148.166 93.041,148.495 93.041 C 148.840 93.041,149.094 92.717,149.094 92.278 C 149.094 91.661,149.349 91.516,150.429 91.516 C 151.361 91.516,151.764 91.343,151.764 90.944 C 151.764 90.521,152.207 90.372,153.466 90.372 C 154.778 90.372,155.262 90.197,155.577 89.609 C 155.845 89.107,156.375 88.847,157.127 88.847 C 157.791 88.847,158.362 88.607,158.489 88.275 C 158.623 87.925,159.201 87.703,159.971 87.703 C 161.612 87.703,162.440 87.369,162.440 86.708 C 162.440 86.315,163.020 86.177,164.682 86.177 C 166.209 86.177,167.074 85.995,167.398 85.605 C 167.687 85.257,168.523 85.033,169.538 85.033 C 170.791 85.033,171.322 84.844,171.680 84.271 C 172.074 83.641,172.570 83.508,174.525 83.508 C 176.110 83.508,176.993 83.338,177.197 82.993 C 177.429 82.601,179.296 82.419,184.938 82.236 C 190.941 82.041,192.455 81.883,192.797 81.417 C 193.404 80.588,199.667 80.592,200.583 81.421 C 201.092 81.882,202.786 82.053,208.716 82.244 C 214.608 82.433,216.206 82.594,216.206 82.996 C 216.206 83.376,216.896 83.508,218.875 83.508 C 220.902 83.508,221.544 83.636,221.544 84.039 C 221.544 84.708,222.375 85.033,224.081 85.033 C 224.813 85.033,225.669 85.291,225.984 85.605 C 226.374 85.995,227.336 86.177,229.004 86.177 C 231.039 86.177,231.532 86.306,231.928 86.940 C 232.246 87.449,232.818 87.703,233.647 87.703 C 234.498 87.703,234.890 87.883,234.890 88.275 C 234.890 88.656,235.272 88.847,236.034 88.847 C 236.670 88.847,237.517 89.185,237.941 89.609 C 238.404 90.072,239.212 90.372,239.997 90.372 C 240.796 90.372,241.375 90.591,241.511 90.944 C 241.636 91.271,242.205 91.516,242.842 91.516 C 243.632 91.516,244.011 91.736,244.152 92.278 C 244.296 92.826,244.673 93.041,245.491 93.041 C 246.151 93.041,246.722 93.281,246.849 93.613 C 246.975 93.940,247.544 94.185,248.180 94.185 C 248.971 94.185,249.349 94.405,249.491 94.948 C 249.636 95.503,250.011 95.710,250.870 95.710 C 251.664 95.710,252.050 95.897,252.050 96.282 C 252.050 96.597,252.373 96.854,252.768 96.854 C 253.165 96.854,253.575 97.195,253.685 97.617 C 253.831 98.172,254.205 98.379,255.064 98.379 C 255.859 98.379,256.244 98.566,256.244 98.951 C 256.244 99.266,256.567 99.523,256.962 99.523 C 257.360 99.523,257.769 99.864,257.880 100.286 C 258.015 100.801,258.400 101.049,259.068 101.049 C 259.693 101.049,260.057 101.259,260.057 101.621 C 260.057 101.938,260.396 102.193,260.820 102.193 C 261.328 102.193,261.582 102.447,261.582 102.955 C 261.582 103.464,261.837 103.718,262.345 103.718 C 262.769 103.718,263.108 103.972,263.108 104.290 C 263.108 104.604,263.410 104.862,263.779 104.862 C 264.148 104.862,264.664 105.205,264.926 105.624 C 265.188 106.044,265.744 106.387,266.161 106.387 C 266.582 106.387,266.921 106.642,266.921 106.959 C 266.921 107.274,267.167 107.531,267.467 107.531 C 267.768 107.531,268.122 107.874,268.255 108.294 C 268.389 108.713,268.743 109.056,269.044 109.056 C 269.344 109.056,269.590 109.294,269.590 109.584 C 269.590 109.874,269.933 110.201,270.353 110.311 C 270.772 110.420,271.115 110.784,271.115 111.118 C 271.115 111.452,271.373 111.725,271.687 111.725 C 272.002 111.725,272.259 111.983,272.259 112.297 C 272.259 112.615,272.598 112.869,273.022 112.869 C 273.530 112.869,273.785 113.124,273.785 113.632 C 273.785 114.051,274.022 114.395,274.312 114.395 C 274.602 114.395,274.929 114.738,275.039 115.157 C 275.149 115.577,275.512 115.920,275.846 115.920 C 276.180 115.920,276.454 116.177,276.454 116.492 C 276.454 116.806,276.691 117.064,276.981 117.064 C 277.271 117.064,277.599 117.407,277.708 117.827 C 277.818 118.246,278.181 118.589,278.515 118.589 C 278.850 118.589,279.123 118.828,279.123 119.120 C 279.123 119.412,279.380 119.750,279.695 119.871 C 280.010 119.992,280.267 120.541,280.267 121.091 C 280.267 121.772,280.511 122.156,281.030 122.292 C 281.449 122.401,281.792 122.734,281.792 123.031 C 281.792 123.327,282.050 123.669,282.364 123.790 C 282.679 123.910,282.936 124.248,282.936 124.540 C 282.936 124.832,283.279 125.071,283.699 125.071 C 284.316 125.071,284.461 125.326,284.461 126.406 C 284.461 127.288,284.640 127.741,284.989 127.741 C 285.279 127.741,285.606 128.084,285.716 128.503 C 285.826 128.923,286.189 129.266,286.523 129.266 C 286.944 129.266,287.131 129.617,287.131 130.410 C 287.131 131.039,287.311 131.554,287.532 131.554 C 287.752 131.554,288.108 132.055,288.321 132.667 C 288.534 133.280,288.955 133.875,289.254 133.990 C 289.554 134.105,289.800 134.548,289.800 134.974 C 289.800 135.408,290.051 135.748,290.372 135.748 C 290.771 135.748,290.944 136.151,290.944 137.083 C 290.944 138.163,291.089 138.418,291.706 138.418 C 292.324 138.418,292.469 138.672,292.469 139.752 C 292.469 140.684,292.642 141.087,293.041 141.087 C 293.440 141.087,293.613 141.489,293.613 142.421 C 293.613 143.502,293.758 143.756,294.376 143.756 C 294.993 143.756,295.138 144.010,295.138 145.091 C 295.138 146.023,295.311 146.425,295.710 146.425 C 296.141 146.425,296.282 146.888,296.282 148.306 C 296.282 149.852,296.418 150.230,297.045 150.429 C 297.657 150.623,297.807 151.006,297.807 152.373 C 297.807 153.535,297.989 154.145,298.379 154.295 C 298.767 154.444,298.951 155.051,298.951 156.176 C 298.951 157.448,299.130 157.934,299.714 158.246 C 300.319 158.570,300.477 159.044,300.477 160.547 C 300.477 161.976,300.617 162.440,301.049 162.440 C 301.509 162.440,301.621 163.033,301.621 165.488 C 301.621 168.122,301.724 168.600,302.383 169.011 C 303.061 169.435,303.146 169.901,303.146 173.221 C 303.146 176.188,303.263 176.999,303.718 177.174 C 304.211 177.363,304.290 179.225,304.290 190.711 C 304.290 202.196,304.211 204.058,303.718 204.247 C 303.263 204.422,303.146 205.233,303.146 208.195 C 303.146 211.602,303.080 211.940,302.383 212.122 C 300.850 212.523,301.574 216.969,303.173 216.969 C 304.145 216.969,305.815 215.886,305.815 215.255 C 305.815 214.991,306.072 214.560,306.387 214.299 C 306.714 214.028,306.959 213.197,306.959 212.359 C 306.959 211.285,307.162 210.786,307.722 210.486 C 308.309 210.172,308.484 209.688,308.484 208.376 C 308.484 207.116,308.633 206.673,309.056 206.673 C 309.443 206.673,309.628 206.286,309.628 205.476 C 309.628 204.817,309.903 204.078,310.239 203.832 C 310.589 203.576,310.940 202.584,311.061 201.511 C 311.177 200.480,311.503 199.405,311.785 199.124 C 312.085 198.823,312.297 197.773,312.297 196.585 C 312.297 194.881,312.418 194.528,313.060 194.360 C 313.725 194.186,313.823 193.840,313.823 191.647 C 313.823 189.666,313.944 189.133,314.395 189.133 C 314.858 189.133,314.967 188.518,314.967 185.891 C 314.967 183.375,315.085 182.650,315.498 182.650 C 316.303 182.650,316.491 181.771,316.504 177.948 C 316.513 175.480,316.681 174.234,317.076 173.712 C 317.926 172.587,317.915 139.263,317.064 138.937 C 316.606 138.761,316.492 137.925,316.492 134.754 C 316.492 131.300,316.394 130.693,315.729 130.029 C 315.116 129.415,314.967 128.758,314.967 126.670 C 314.967 124.977,314.772 123.816,314.407 123.333 C 314.099 122.926,313.841 121.762,313.835 120.746 C 313.825 119.225,313.688 118.864,313.060 118.700 C 312.391 118.525,312.297 118.179,312.297 115.875 C 312.297 113.797,312.178 113.251,311.725 113.251 C 311.335 113.251,311.152 112.856,311.148 112.011 C 311.141 110.200,310.757 109.056,310.156 109.056 C 309.784 109.056,309.628 108.545,309.628 107.328 C 309.628 106.144,309.448 105.531,309.056 105.381 C 308.709 105.248,308.484 104.671,308.484 103.912 C 308.484 102.984,308.289 102.612,307.722 102.463 C 307.121 102.306,306.959 101.943,306.959 100.750 C 306.959 99.917,306.720 99.037,306.427 98.794 C 306.134 98.551,305.783 97.758,305.647 97.031 C 305.499 96.243,305.175 95.710,304.844 95.710 C 304.465 95.710,304.290 95.289,304.290 94.376 C 304.290 93.443,304.117 93.041,303.718 93.041 C 303.403 93.041,303.146 92.712,303.146 92.310 C 303.146 91.173,302.735 90.372,302.152 90.372 C 301.799 90.372,301.621 89.924,301.621 89.037 C 301.621 88.138,301.444 87.703,301.079 87.703 C 300.781 87.703,300.422 87.176,300.280 86.533 C 300.139 85.890,299.782 85.271,299.487 85.157 C 299.193 85.044,298.951 84.627,298.951 84.230 C 298.951 83.833,298.694 83.508,298.379 83.508 C 298.065 83.508,297.807 83.179,297.807 82.777 C 297.807 81.640,297.396 80.839,296.813 80.839 C 296.499 80.839,296.282 80.444,296.282 79.874 C 296.282 79.343,296.042 78.816,295.748 78.703 C 295.454 78.591,295.127 78.167,295.021 77.762 C 294.915 77.357,294.555 77.026,294.221 77.026 C 293.798 77.026,293.613 76.673,293.613 75.870 C 293.613 75.207,293.375 74.623,293.056 74.500 C 292.749 74.382,292.394 73.959,292.267 73.559 C 292.140 73.159,291.790 72.831,291.490 72.831 C 291.190 72.831,290.944 72.574,290.944 72.259 C 290.944 71.945,290.705 71.687,290.414 71.687 C 290.111 71.687,289.778 71.117,289.634 70.353 C 289.484 69.554,289.161 69.018,288.829 69.018 C 288.524 69.018,288.275 68.675,288.275 68.255 C 288.275 67.836,288.036 67.493,287.743 67.493 C 287.451 67.493,287.113 67.235,286.993 66.921 C 286.872 66.606,286.510 66.349,286.189 66.349 C 285.868 66.349,285.605 66.032,285.605 65.645 C 285.605 65.258,285.262 64.631,284.843 64.252 C 284.423 63.872,284.080 63.325,284.080 63.037 C 284.080 62.748,283.823 62.413,283.508 62.292 C 283.194 62.172,282.936 61.834,282.936 61.542 C 282.936 61.250,282.690 61.010,282.390 61.010 C 282.089 61.010,281.735 60.667,281.602 60.248 C 281.468 59.828,281.114 59.485,280.813 59.485 C 280.513 59.485,280.267 59.228,280.267 58.913 C 280.267 58.595,279.928 58.341,279.504 58.341 C 278.996 58.341,278.742 58.087,278.742 57.579 C 278.742 57.155,278.487 56.816,278.170 56.816 C 277.855 56.816,277.598 56.559,277.598 56.244 C 277.598 55.926,277.259 55.672,276.835 55.672 C 276.327 55.672,276.072 55.418,276.072 54.909 C 276.072 54.486,275.818 54.147,275.500 54.147 C 275.186 54.147,274.929 53.889,274.929 53.575 C 274.929 53.257,274.590 53.003,274.166 53.003 C 273.657 53.003,273.403 52.749,273.403 52.240 C 273.403 51.817,273.149 51.478,272.831 51.478 C 272.517 51.478,272.259 51.220,272.259 50.906 C 272.259 50.588,271.920 50.334,271.497 50.334 C 270.988 50.334,270.734 50.079,270.734 49.571 C 270.734 49.147,270.480 48.808,270.162 48.808 C 269.847 48.808,269.590 48.551,269.590 48.236 C 269.590 47.919,269.251 47.664,268.827 47.664 C 268.319 47.664,268.065 47.410,268.065 46.902 C 268.065 46.482,267.826 46.139,267.534 46.139 C 267.241 46.139,266.904 45.882,266.783 45.567 C 266.662 45.253,266.387 44.995,266.170 44.995 C 265.954 44.995,265.434 44.652,265.014 44.233 C 264.595 43.813,263.908 43.470,263.489 43.470 C 263.065 43.470,262.726 43.216,262.726 42.898 C 262.726 42.583,262.469 42.326,262.154 42.326 C 261.837 42.326,261.582 41.987,261.582 41.563 C 261.582 41.055,261.328 40.801,260.820 40.801 C 260.396 40.801,260.057 40.547,260.057 40.229 C 260.057 39.829,259.655 39.657,258.723 39.657 C 257.642 39.657,257.388 39.512,257.388 38.894 C 257.388 38.471,257.134 38.132,256.816 38.132 C 256.501 38.132,256.244 37.874,256.244 37.560 C 256.244 37.245,255.921 36.988,255.526 36.988 C 255.128 36.988,254.719 36.647,254.608 36.225 C 254.463 35.670,254.088 35.462,253.229 35.462 C 252.435 35.462,252.050 35.276,252.050 34.890 C 252.050 34.576,251.830 34.318,251.562 34.318 C 251.294 34.318,250.781 33.975,250.422 33.556 C 250.063 33.136,249.424 32.793,249.003 32.793 C 248.576 32.793,248.236 32.540,248.236 32.221 C 248.236 31.907,247.979 31.649,247.664 31.649 C 247.350 31.649,246.749 31.306,246.330 30.887 C 245.910 30.467,245.242 30.124,244.845 30.124 C 244.448 30.124,244.031 29.883,243.918 29.588 C 243.805 29.293,243.186 28.936,242.542 28.795 C 241.899 28.654,241.373 28.294,241.373 27.996 C 241.373 27.632,240.937 27.455,240.038 27.455 C 239.226 27.455,238.702 27.268,238.701 26.978 C 238.696 26.272,235.869 24.786,234.529 24.786 C 233.788 24.786,233.365 24.592,233.365 24.254 C 233.365 23.671,232.564 23.260,231.427 23.260 C 231.025 23.260,230.696 23.003,230.696 22.688 C 230.696 22.289,230.293 22.116,229.361 22.116 C 228.454 22.116,228.027 21.940,228.027 21.568 C 228.027 21.210,227.433 20.930,226.323 20.764 C 225.386 20.623,224.421 20.269,224.179 19.978 C 223.937 19.686,223.159 19.447,222.451 19.447 C 221.592 19.447,221.163 19.267,221.163 18.905 C 221.163 18.604,220.614 18.244,219.924 18.094 C 219.242 17.946,218.346 17.589,217.932 17.301 C 217.519 17.013,216.550 16.778,215.781 16.778 C 214.912 16.778,214.301 16.569,214.170 16.227 C 214.035 15.877,213.122 15.582,211.657 15.416 C 210.391 15.273,209.160 14.920,208.921 14.632 C 208.682 14.344,207.805 14.109,206.972 14.109 C 206.036 14.109,205.089 13.818,204.489 13.346 C 203.851 12.844,202.942 12.583,201.828 12.583 C 200.833 12.583,199.901 12.348,199.564 12.011 C 199.128 11.575,198.036 11.439,194.962 11.439 C 191.564 11.439,190.856 11.335,190.445 10.772 C 190.040 10.218,189.212 10.083,185.541 9.977 C 182.050 9.875,181.125 9.736,181.125 9.309 C 181.125 8.473,149.659 8.506,149.338 9.342 " stroke="none" fill="#0474bc" fill-rule="evenodd"></path><path id="path1" d="" stroke="none" fill="#0874bc" fill-rule="evenodd"></path><path id="path2" d="" stroke="none" fill="#0874bc" fill-rule="evenodd"></path><path id="path3" d="" stroke="none" fill="#0874bc" fill-rule="evenodd"></path><path id="path4" d="" stroke="none" fill="#0874bc" fill-rule="evenodd"></path><path id="path5" d="" stroke="none" fill="#0874bc" fill-rule="evenodd"></path><path id="path6" d="" stroke="none" fill="#0874bc" fill-rule="evenodd"></path><path id="path7" d="" stroke="none" fill="#0874bc" fill-rule="evenodd"></path><path id="path8" d="" stroke="none" fill="#0874bc" fill-rule="evenodd"></path></g></svg>